<svg xmlns="http://www.w3.org/2000/svg" width="400" height="428"><path fill="#042445" d="M0 0h400v428H0z"/><path fill="#fbfcfd" d="M0 0h400v428H0zm191.188 4.16-3.479 1.396-1.833.745c-3.172 1.287-6.354 2.547-9.536 3.808l-1.92.762C159.226 16.88 143.777 21.77 128 26l-2.698.73C106.723 31.704 87.88 35.384 69 39l-2.853.556c-9.468 1.796-19.028 3.02-28.571 4.342q-3.507.488-7.014.98l-2.168.298c-2.924.411-5.585.888-8.394 1.824q-.035 12.637-.052 25.275-.007 5.871-.023 11.742c-.062 21.582.232 42.897 2.762 64.358l.255 2.183c1.625 13.738 4.181 27.143 7.388 40.607a303 303 0 0 1 1.592 7.14C37.782 224.45 49.022 249.656 62 273l1.346 2.424Q65.17 278.714 67 282q-5.907-3.435-11.812-6.875l-3.393-1.973-3.252-1.894-3-1.746A127 127 0 0 1 40 266h-3l.438 2.969C39.19 281.26 40.305 293.606 41 306c-13.287-3.635-26.193-7.691-38-15 1.274 7.287 3.732 13.021 7.25 19.5l1.41 2.684c2.784 5.222 5.792 10.076 9.327 14.826C22 330 22 330 21.893 332.06c-1.135 2.465-2.42 3.467-4.604 5.069l-2.273 1.697-2.391 1.736q-2.326 1.719-4.648 3.442l-2.092 1.526C4.11 346.915 2.552 348.372 1 350c12.437 7.107 28.702 10.324 43 10l-1 2.125c-1.09 3.135-1.153 5.58-1 8.875 25.904 12.49 58.571 18.034 87.121 19.336 11.93.562 18.578 2.075 27.322 10.285 2.732 2.42 5.758 4.383 8.807 6.379l1.867 1.235c6.836 4.47 13.872 8.627 20.977 12.655q1.906 1.11 3.75 2.322c2.741 1.754 4.71 2.778 7.992 2.854 4.563-1.537 8.608-3.76 12.789-6.128l2.702-1.512c6.792-3.839 13.307-7.909 19.673-12.426l1.774-1.248c7.499-5.143 7.499-5.143 14.56-10.841 3.046-2.183 4.742-2.512 8.443-2.782l3.448-.292 3.712-.274q3.948-.35 7.891-.727l2.046-.194c41.685-3.756 41.685-3.756 80.126-18.642l-1-11 2.316-.113c20.48-1.007 20.48-1.007 38.48-9.512L398 349l-2.562-1.941C389.103 342.237 382.886 337.37 377 332c2.153-4.587 4.53-8.909 7.198-13.22 8.459-12.324 8.459-12.324 11.358-25.963L395 291l-1.69 1.141c-7.122 4.562-14.398 7.204-22.435 9.734l-3.766 1.219q-4.55 1.47-9.109 2.906c.281-3.96.577-7.917.875-11.875l.238-3.36c.457-5.97 1.127-11.716 2.49-17.55.438-2.444.462-4.738.397-7.215-3.827.682-6.74 2.432-10.078 4.379l-1.732 1.005a1630 1630 0 0 0-5.44 3.178q-1.85 1.079-3.703 2.155A3370 3370 0 0 0 332 282l1.456-2.414c13.019-21.794 25.987-47.092 30.999-72.162.67-2.982 1.56-5.873 2.443-8.799 2.536-8.762 4.147-17.65 5.727-26.625l.463-2.592c2.201-12.359 4.056-24.662 4.726-37.213.152-1.79.406-3.572.69-5.347.503-3.899.63-7.698.61-11.62v-2.249q-.002-3.643-.016-7.288l-.005-5.081q-.006-6.66-.024-13.321-.014-6.808-.02-13.615Q379.033 60.337 379 47l-3.921-.549C317.953 38.41 261.035 26.99 207.63 4.551l-2.463-1.012-2.148-.9c-4.493-1.421-7.675-.168-11.833 1.521"/><path fill="#0a2c57" d="M212 6.438c13.82 5.386 27.882 10.027 42 14.562l2.975.964C296.592 34.66 337.915 41.208 379 47q.07 14.501.104 29.002.014 6.735.047 13.471.032 6.516.039 13.033.005 2.47.021 4.939c.058 9.053-.258 17.705-1.74 26.656-.537 3.305-.813 6.584-1.053 9.92-.765 10.417-2.439 20.649-4.293 30.917l-.373 2.101c-1.497 8.379-3.352 16.557-5.787 24.722a290 290 0 0 0-2.477 8.903c-4.303 15.822-10.475 30.919-17.613 45.649l-1.738 3.589c-3.735 7.57-7.786 14.865-12.137 22.098l2.323-1.361a3806 3806 0 0 1 8.566-4.993q1.852-1.079 3.7-2.162 2.664-1.558 5.333-3.105l3.237-1.889c2.362-1.239 4.24-2.026 6.841-2.49-.421 6.154-.988 12.225-2 18.313-1.173 7.215-1.597 14.395-2 21.687a1962 1962 0 0 0 12.813-4.125l3.623-1.148c7.694-2.516 14.614-5.57 21.564-9.727-.505 5.385-1.921 9.57-4.437 14.375l-1.047 2.049C386.34 315.47 381.685 323.244 377 331c3.866 5.078 8.159 8.644 13.313 12.375l2.244 1.652A924 924 0 0 0 398 349c-6.296 6.562-16.149 7.585-24.75 9.25l-2.724.531c-4.927.906-9.518 1.41-14.526 1.219l1 11c-3.842 2.53-7.671 4.05-12.062 5.313l-2.186.632c-21.703 6.065-44.721 11.074-67.236 12.614-14.959 1.058-23.71 1.861-34.516 12.441-2.344 1.78-4.783 3.396-7.25 5l-1.87 1.235c-7.45 4.871-15.109 9.426-22.88 13.765l-2.07 1.212c-3.126 1.73-5.26 2.775-8.871 2.847-4.323-1.497-8.08-3.652-11.996-5.997l-2.532-1.493c-12.559-7.48-25.29-15.505-36.332-25.14-2.73-1.774-4.642-1.95-7.879-2.202l-3.457-.302-3.738-.3c-77.68-7.18-77.68-7.18-90.125-19.625.086-1.996.086-1.996.375-4.437l.273-2.434C43 362 43 362 44 360l-2.027-.113C27.925 358.925 14.935 356.692 2 351v-3a91 91 0 0 1 6.625-4.875c4.661-3.182 9.09-6.446 13.375-10.125-.53-4.545-2.51-7.583-5.062-11.25-3.605-5.389-6.67-10.887-9.438-16.75l-1.024-2.138C4.656 298.912 3.492 295.37 3 291l3.113 1.61c9.694 4.962 19.164 9.154 29.711 11.995l2.952.798L41 306c-.28-4.5-.576-9-.875-13.5l-.238-3.844C39.448 282.178 38.737 276.25 37 270v-4c3.715.688 6.587 2.307 9.86 4.16l3.378 1.904 3.512 1.998 3.559 2.01Q61.659 278.53 66 281c-.836-2.508-1.701-4.37-3.004-6.633l-1.233-2.164-1.325-2.328c-8.872-15.857-15.54-31.927-21.473-49.108a297 297 0 0 0-2.434-6.716C31.954 201.42 29.62 188.145 27 175l-.508-2.51c-1.82-9.085-3.021-18.23-4.117-27.428l-.374-3.102c-2.273-20.057-2.129-40.103-2.07-60.255q.014-5.883.02-11.767Q19.967 58.469 20 47c10.33-1.891 20.643-3.545 31.063-4.875 19.696-2.63 38.886-7.003 58.171-11.727a460 460 0 0 1 10.344-2.421c11.717-2.59 23.048-6.17 34.422-9.977l3.245-1.084c17.5-5.846 17.5-5.846 34.506-12.973C199.256.607 204.875 3.586 212 6.438m-20.5 5.75-3.469 1.23c-3.11 1.168-6.087 2.535-9.09 3.953-6.654 3.057-13.53 5.297-20.504 7.504l-2.04.651c-31.954 10.185-64.81 18.12-98.014 22.974-2.697.399-5.387.817-8.078 1.25l-2.53.406q-2.445.393-4.89.792l-2.307.368-2.018.327c-3.844.536-7.702.941-11.56 1.357-.359 37.999-.359 37.999 1.734 75.92.382 4.427.683 8.86.987 13.294.238 2.378.661 4.487 1.279 6.786.151 1.915.273 3.832.375 5.75.517 7.22 1.796 14.198 3.235 21.275.365 1.846.687 3.7 1.007 5.553 1.728 9.686 4.617 18.83 7.684 28.164 1.405 4.289 2.65 8.588 3.824 12.946 1.4 4.982 3.15 9.539 5.395 14.199a225 225 0 0 1 3.367 7.445C59.45 252.574 63.08 260.46 68 268l1.645 2.656C73.799 277.334 78.313 283.688 83 290l1.77 2.469 1.605 2.219 1.398 1.949L89 298h2l.813 1.813c1.264 2.328 2.001 3.68 4.187 5.187h7l1.363 1.431c2.299 2.203 4.192 2.242 7.325 2.667l3.515.487 3.797.478 3.92.514c12.003 1.542 24.037 2.521 36.117 3.244 2.588.156 5.174.333 7.76.519 36.149 2.407 72.597.633 108.516-3.715l2.59-.3a568 568 0 0 0 7.273-.91c1.079-.125 1.079-.125 2.18-.25 6.212-.864 9.72-3.63 13.433-8.513l1.414-1.834 1.422-1.88q1.424-1.865 2.852-3.723l1.252-1.653c1.353-1.663 2.634-3.173 4.271-4.562l2.953.059c3.074.25 3.074.25 5.031-1.649 8.702-11.57 16.68-24.561 21.954-38.098l.996-2.542c2.367-6.148 2.367-6.148 4.722-12.301.741-1.913 1.49-3.822 2.274-5.717C372.39 172.203 372.265 110.859 372 53l-2.497-.304c-15.985-1.96-31.88-4.045-47.69-7.155a493 493 0 0 0-6.364-1.176c-9.483-1.7-18.819-3.801-28.158-6.162a1469 1469 0 0 0-6.87-1.71c-9.93-2.479-19.68-5.35-29.421-8.493q-3.046-.96-6.094-1.914l-5.406-1.711-2.758-.867c-9.8-3.107-19.26-6.894-28.76-10.81l-2.595-1.053-2.337-.958c-4.302-1.442-7.439.022-11.55 1.5"/><path fill="#0d488f" d="M211.938 14.438a605 605 0 0 0 60.694 19.92c2.336.633 4.667 1.285 6.997 1.939 11.986 3.313 24.104 5.8 36.318 8.121 2.818.537 5.633 1.09 8.448 1.645C340.164 49.11 356.063 51.06 372 53c.193 42.147-.26 83.288-8.5 124.75l-.434 2.2c-1.64 8.213-3.58 16.237-6.18 24.21-.893 2.864-1.6 5.727-2.261 8.653-2.807 11.534-7.594 22.471-12.625 33.187q-.942 2.154-1.875 4.313C335.262 261.205 329.951 271.28 323 281l-1.406 2.078c-1.219 1.672-1.219 1.672-3.594 3.922-3.312.375-3.312.375-6 0v-2h2l.188-2.031c1.312-4.798 4.358-8.43 7.218-12.442 2.43-3.497 4.174-6.18 4.594-10.527.544-3.81 1.294-6.588 3-10 1.25-5.59 1.22-11.176 1.25-16.875l.063-2.895c.029-5.357-.504-9.367-2.614-14.277-1.28-3.577-1.234-7.25-1.324-11.016l-.191-4.992-.087-2.499c-.147-3.716-.398-7.424-.66-11.133l-.253-3.7L325 180l2-1v-25l-5 1 2 1v21h-89v-9h5v-13h12v12h10v-11h-2v-2l-2-1v10h-1v-11h-9v-36c7.301-.608 14.478-1.17 21.781-1.352l2.61-.07q2.693-.07 5.384-.136c2.747-.068 5.494-.145 8.24-.223q2.634-.068 5.266-.133l2.475-.072c3.61-.08 6.774.001 10.244.986l-1-5-2 3c-1.868.367-1.868.367-4.167.356l-2.613.01-2.837-.038-2.932-.006a921 921 0 0 1-6.169-.04c-3.11-.032-6.219-.042-9.329-.048-9.706-.038-19.295-.207-28.953-1.234V91h10v12h10V93h-2v6h-4c-.619-9.663-.619-9.663 1.563-14.375 2.86-3.08 5.576-5.856 9.437-7.625 4.54.681 8.373 4.298 12 7l-3-13 10-7-13-1-5-11-4 11-13 1 9 7-.937 4.125c-.805 3.611-1.5 7.217-2.063 10.875l-3-1-1 3h-14c.03 2.382.03 2.382.063 4.813.04 3.145-.058 5.172-1.063 8.187h-2l-.168-2.323q-.38-5.214-.77-10.427l-.263-3.656-.264-3.516-.238-3.237c-.25-2.387-.635-4.541-1.297-6.841l-2.598.035-3.464.028-3.41.035c-3.58-.1-6.995-.526-10.528-1.098q-.722-3.28-1.437-6.562l-.81-3.692C212.034 56.164 211.48 52.62 211 49l2.555-1.863 3.32-2.45 1.684-1.224C221.28 41.446 223.1 39.849 225 37h-19l-4-10-1.133-2.645C200 22 200 22 200 19c-5.89.959-11.36 2.03-16.98 4.074l-3.5 1.265-3.708 1.349q-3.817 1.374-7.636 2.742l-3.744 1.342c-11.114 3.976-22.161 7.596-33.657 10.317-3.925.931-7.824 1.914-11.7 3.033-11.307 3.259-22.641 5.756-34.2 7.94l-5.417 1.04c-9.847 1.88-19.701 3.715-29.583 5.398l-2.81.485-2.573.421-2.145.354c-3.121.32-6.212.276-9.347.24.784 67.44 4.132 136.185 36.063 197.185 1.009 1.954 1.972 3.929 2.937 5.905 4.374 8.766 10.459 16.613 16.234 24.492C94 294.478 94 294.478 94 297l1.875.688c2.748 1.697 3.057 3.337 4.125 6.312l2 1c-2.687.313-2.687.313-6 0-2.875-2.375-2.875-2.375-5-5v-2l-1.715-.637c-3.123-1.863-4.712-4.245-6.847-7.175l-2.317-3.145c-1.834-2.631-3.5-5.279-5.121-8.043q-1.65-2.598-3.312-5.187l-1.872-2.954a361 361 0 0 0-3.289-5.093C60.985 257.058 57.082 247.452 53 238l-1.228-2.76c-3.22-7.418-5.637-14.964-7.83-22.73q-.852-3.014-1.723-6.022c-2.004-6.976-3.891-13.972-5.613-21.023a261 261 0 0 0-1.669-6.403c-2.218-8.946-3.135-18.104-3.69-27.285-.16-2.65-.16-2.65-.731-4.656-1.004-4.127-1.158-8.398-1.516-12.621l-.25-2.762c-1.598-18.496-1.885-36.932-1.812-55.488q.008-3.405.013-6.809.017-8.22.049-16.441 5.24-.723 10.48-1.441l2.97-.41c5.614-.77 11.228-1.472 16.862-2.087 6.024-.742 11.845-1.935 17.725-3.396 5.189-1.281 10.394-2.364 15.642-3.375C122.166 36.224 153.117 27.68 183 16l3.2-1.25c3.119-1.239 6.216-2.471 9.245-3.918 5.643-1.838 11.241 1.524 16.493 3.605"/><path fill="#f8f9fa" d="M335 304c3.284 12.779 6.422 25.588 9.347 38.454q.462 2.03.928 4.06c1.56 6.811 3.048 13.526 3.725 20.486-7.08 3.072-14.103 5.239-21.625 6.938l-3.362.766c-13.025 2.873-26.178 4.863-39.372 6.769-3.196.462-6.387.944-9.579 1.433-25.29 3.784-50.599 4.409-76.113 4.29-2.976-.011-5.951-.01-8.927-.01q-4.354-.001-8.71-.013-3.03-.007-6.061-.008c-6.185-.032-12.134-.256-18.251-1.165a95 95 0 0 0-4.137-.176C118.655 384.838 82.077 379.23 50 367c.592-5.28 1.442-10.337 2.672-15.516l.493-2.091q.787-3.323 1.585-6.643l1.086-4.574A2049 2049 0 0 1 64 305c5.31.634 10.43 1.75 15.636 2.968C142.862 322.674 211.701 325.344 276 316l3.592-.501c17.383-2.475 34.72-6.096 51.58-11.019C333 304 333 304 335 304"/><path fill="#0b3866" d="M127 46c2.745 2.383 3.89 4.69 5.188 8.063l1.042 2.66C134 59 134 59 134 61l2.957-.07 3.856-.055 3.832-.07C148 61 148 61 151 63l-2.441 1.688c-5.726 3.798-5.726 3.798-9.102 9.41.31 2.079.87 3.913 1.543 5.902q.328 2.244.563 4.5L142 88l2.438-.5c4.22-.592 8.309-.585 12.562-.5l1 7h2l2-21 1 2h17v12h12V75h14v12h12V75h15l1 24-61 1 53 1v50h-13v12h-3v-12h-21v12h-3v-13l-14 3 10 1v13h11v-12h13v12h11v-12h14c.182 7.338.328 14.674.414 22.013.042 3.41.098 6.818.19 10.226.728 27.834.728 27.834-8.604 38.761-1.525 2.95-2.748 5.921-4 9h-1l-.044-2.886c-.059-3.574-.136-7.146-.218-10.719a700 700 0 0 1-.084-4.617c.013-15.635.013-15.635-7.654-28.778-4.04-3.55-8.184-3.504-13.344-3.352-4.985.66-7.609 3.217-10.906 6.79-3.582 5.245-4.072 9.896-4.164 16.144l-.059 2.467c-.06 2.588-.106 5.176-.152 7.763l-.117 5.28q-.142 6.453-.258 12.908c-2.786-2.786-4.174-6.182-5.875-9.687q-1.024-2.101-2.055-4.2l-1.025-2.118c-1.134-2.261-1.134-2.261-3.256-5.206-2.957-5.086-2.467-11.008-2.539-16.726l-.09-3.518q-.105-4.272-.16-8.545h-1l-1 23c-3.331-1.666-5.026-2.795-7.625-5.25-12.738-11.326-27.486-15.696-44.318-14.92C99.061 189.906 89.913 197.087 81 206v-25q11.49-.218 22.98-.427 3.89-.071 7.781-.146c17.082-.324 34.154-.502 51.239-.427v-2l-2.261.007q-10.74.03-21.477.045-5.517.007-11.032.023c-18.108.056-36.136-.212-54.23-1.075v-21c8.496-.098 8.496-.098 11 0 1 1 1 1 1.098 3.504L86 168h12l-.07-3.14q-.029-2.055-.055-4.11l-.05-2.066c-.052-5.25-.052-5.25 1.245-7.73 1.174-2.467.703-4.072.227-6.693-.681-5.185-.397-10.479-.36-15.698l.014-3.663q.018-4.45.049-8.9h-5c-.264-7.595.391-14.574 2-22l2 3 1-5 2.152.035 2.785.028 2.778.035c2.25.161 2.25.161 3.285-1.098h-10c2.59-2.59 4.027-2.374 7.625-2.625l3.04-.227L113 88c.238-1.906.47-3.812.668-5.723C114 80 114 80 114.676 78.004c.7-2.366.95-3.593.324-6.004-2.665-2.717-5.47-4.898-8.559-7.117L104 63v-2l3.254.273c6.498.27 6.498.27 12.746-1.273 3.8-3.738 5.41-9.03 7-14"/><path fill="#0c478d" d="m197 19 1 2a122 122 0 0 1-2.875 7.563l-.855 2.115c-2.116 5.168-2.116 5.168-3.27 6.322-1.34.156-2.688.25-4.035.316l-2.451.127-2.577.12-2.587.13q-3.175.159-6.35.307c3.113 3.202 6.26 6.108 9.813 8.813L187 50l-5 18 2 1-1 2-17 1v2h14v1h-14v9h-1v-9h-2l-.148 2.379c-.414 5.811-.97 11.1-2.852 16.621h-2l-1-7-15 1c-3.553-12.931-3.553-12.931-2-17 2.285-2.238 2.285-2.238 5.063-4.312l2.785-2.114L150 63c-4.546-2.273-11.087-1.687-16-2l-6-14c-2.354 2.354-3.232 4.517-4.562 7.563-2.34 5.34-2.34 5.34-3.438 6.437-2.697.073-5.367.092-8.062.063l-2.3-.014Q106.82 61.029 104 61c2.82 2.902 5.581 5.473 8.875 7.813 1.8 1.527 1.8 1.527 3.125 3.187.052 3.231-.145 5.013-1 8l-.54 2.29A202 202 0 0 1 113 88l-11 2 8 1v12h-1V92H99v10h-1l-1-5h-1l-2 19h5l.076 2.244q.177 5.097.362 10.194l.119 3.529c.186 5.097.405 10.084 1.166 15.13C101 151 101 151 98 155h13v1H98v12H86v-1h11l-1-8-2 4h-4l-1-10H71l1 26 2 1-.184 3.086-.12 2.045q-.135 2.272-.275 4.543a500 500 0 0 0-.605 12.146l-.097 2.374a308 308 0 0 0-.15 4.475c-.17 3.883-.74 7.09-2.085 10.745-1.746 4.871-1.946 9.32-1.859 14.461l.033 2.664c.364 14.849 5.839 26.192 16.28 36.711l1.505 1.39c2.031 2 3.45 3.635 3.87 6.499.003 2.22.003 2.22-.313 5.861h-3c-1.363-1.51-1.363-1.51-2.742-3.621l-1.543-2.338-1.59-2.478-1.566-2.374c-11.775-18.017-20.812-37.761-27.684-58.127l-.659-1.944A305 305 0 0 1 49 209l-1.147-3.81c-3.474-11.845-5.893-23.781-7.978-35.94l-.521-3.027C33.257 130.448 32.546 95.235 33 59l3.252-.516c45.723-7.283 90.175-16.522 133.998-31.671l2.813-.973a264 264 0 0 0 15.773-6.075c2.787-.985 5.238-1.073 8.164-.765"/><path fill="#0861cd" d="M306.91 200.055c8.957 7.624 14.04 16.18 15.445 27.91.735 16.053-5.798 29.35-16.222 41.148-5.54 5.361-12.924 9.269-20.133 11.887-3.87-.4-6.377-1.637-9.562-3.816l-2.633-1.792-2.805-1.954-2.932-2.021c-8.583-5.968-16.897-12.263-25.17-18.651-6.54-5.05-13.21-9.917-19.898-14.766 2.443-14.66 14.52-27.85 26.25-36.25 16.812-10.626 40.76-13.628 57.66-1.695"/><path fill="#ca0d0a" d="M151 203c10.722 8.277 19.051 18.277 24 31 .29 2.484.29 2.484 0 5-1.458 1.646-1.458 1.646-3.523 3.094l-2.319 1.664-2.533 1.742-2.586 1.838a927 927 0 0 1-5.366 3.784c-3.34 2.346-6.64 4.745-9.94 7.147-6.097 4.433-12.22 8.828-18.432 13.098a152 152 0 0 0-5.133 3.828l-2.918 2.243-2.61 2.058c-3.243 1.847-4.955 2.006-8.64 1.504-15.08-6.615-26.037-18.722-32-34-2.815-12.48-2.505-26.227 4.355-37.16 5.788-8.3 13.05-13.866 22.915-16.43 16.146-2.425 31.075.536 44.73 9.59"/><path fill="#3491df" d="M211.938 14.438a605 605 0 0 0 60.694 19.92c2.336.633 4.667 1.285 6.997 1.939 11.986 3.313 24.104 5.8 36.318 8.121 2.818.537 5.633 1.09 8.448 1.645C340.164 49.11 356.063 51.06 372 53c.193 42.147-.26 83.288-8.5 124.75l-.434 2.2c-1.64 8.213-3.58 16.237-6.18 24.21-.893 2.864-1.6 5.727-2.261 8.653-2.807 11.534-7.594 22.471-12.625 33.187q-.942 2.154-1.875 4.313C335.262 261.205 329.951 271.28 323 281l-1.406 2.078c-1.219 1.672-1.219 1.672-3.594 3.922-3.312.375-3.312.375-6 0v-2h2c.07-.68.14-1.359.21-2.059 1.04-3.875 3.137-6.766 5.415-10.003q1.375-2.012 2.742-4.028l1.362-2.007c7.804-11.687 13.487-24.185 18.052-37.442 1.17-3.322 2.46-6.572 3.781-9.836 2.393-6.135 3.97-12.3 5.446-18.703.663-2.8 1.514-5.463 2.48-8.172 1.842-5.396 2.704-10.878 3.575-16.5.17-1.064.34-2.128.517-3.224q.718-4.512 1.42-9.026l.629-3.926A820 820 0 0 0 361 151l.486-3.206c1.454-10.127 2.113-20.204 2.577-30.419l.249-5.2C365.142 94.46 365.614 76.733 366 59l-2.287-.175c-49.657-3.942-115.885-14.832-159.682-39.954-3.717-1.594-7.02-1.169-10.83-.048l-2.877 1.154-3.23 1.274-3.406 1.374q-3.54 1.39-7.079 2.777l-3.459 1.363C158.383 32.553 143.322 36.922 128 41l-3.277.88C100.16 48.417 75.23 53.155 50.188 57.436l-2.87.497-2.65.437-2.241.373c-3.15.332-6.262.295-9.427.256.784 67.44 4.132 136.185 36.063 197.185 1.009 1.954 1.972 3.929 2.937 5.905 4.374 8.766 10.459 16.613 16.234 24.492C94 294.478 94 294.478 94 297l1.875.688c2.748 1.697 3.057 3.337 4.125 6.312l2 1c-2.687.313-2.687.313-6 0-2.875-2.375-2.875-2.375-5-5v-2l-1.715-.637c-3.123-1.863-4.712-4.245-6.847-7.175l-2.317-3.145c-1.834-2.631-3.5-5.279-5.121-8.043q-1.65-2.598-3.312-5.187l-1.872-2.954a361 361 0 0 0-3.289-5.093C60.985 257.058 57.082 247.452 53 238l-1.228-2.76c-3.22-7.418-5.637-14.964-7.83-22.73q-.852-3.014-1.723-6.022c-2.004-6.976-3.891-13.972-5.613-21.023a261 261 0 0 0-1.669-6.403c-2.218-8.946-3.135-18.104-3.69-27.285-.16-2.65-.16-2.65-.731-4.656-1.004-4.127-1.158-8.398-1.516-12.621l-.25-2.762c-1.598-18.496-1.885-36.932-1.812-55.488q.008-3.405.013-6.809.017-8.22.049-16.441 5.24-.723 10.48-1.441l2.97-.41c5.614-.77 11.228-1.472 16.862-2.087 6.024-.742 11.845-1.935 17.725-3.396 5.189-1.281 10.394-2.364 15.642-3.375C122.166 36.224 153.117 27.68 183 16l3.2-1.25c3.119-1.239 6.216-2.471 9.245-3.918 5.643-1.838 11.241 1.524 16.493 3.605"/><path fill="#0b3762" d="M198 19h2l6 17 19 1c-2.039 4.077-3.496 5.5-7 8.25l-2.687 2.14C213 49 213 49 211 49l.875 2.816L213 55.562l1.125 3.692C215 63 215 63 215 70l20 1c4.462 8.923 3.119 20.207 3 30h2l1-13h14l1-4 1 2c1.757-4.974 3.326-9.742 4-15l-1.969-1.496-2.531-1.942-2.531-1.933L252 64v-1h14l.813-4.312c.666-3.54 1.416-5.342 4.187-7.688q1.005 2.435 2 4.875l1.125 2.742C275 61 275 61 275 63h14c-3.247 3.433-5.86 5.516-10 8l3 14-8.203-5.664c-2.644-1.652-2.644-1.652-4.961-.664L267 80l-3.125 1.875c-2.899 2.142-3.628 2.894-4.875 6.125-.453 2.815-.453 2.815-.625 5.75l-.227 2.984L258 99h4v-6h2v10h-10V91h-10v21l57 1v-11h1l1 7h1v6l-56 1v36h9l4 2-1 2h2v11h-10v-12h-12v13h-5l.125 2.813C235 174 235 174 233 177c-.37 3.2-.37 3.2-.414 6.855l-.059 2.005c-.06 2.11-.106 4.218-.152 6.327q-.057 2.148-.117 4.295-.142 5.259-.258 10.518h-1v-52h-14v12h-11v-12h-13v12h-11v-13h-13c5.501-3.668 10.523-4 17-4v13h3v-12h21v12h3v-12h13v-50l-11.312.035q-5.447.011-10.893.02-3.773.008-7.547.02c-3.625.013-7.249.018-10.873.023l-3.388.015c-5.762 0-11.29-.24-16.987-1.113v-1h69l-1-8a76 76 0 0 1-.098-4.281l.01-2.11.025-2.109.014-2.203q.02-2.649.049-5.297h-15v12h-12V75h-14v12h-12V74h-14v-2l-2-1h19l-1-7c.777-3.746.777-3.746 1.938-7.437l1.152-3.747L186 50l-2.844-2.082-3.656-2.73-1.879-1.37c-1.596-1.201-3.115-2.505-4.621-3.818v-3l18-1z"/><path fill="#e0140e" d="M151 203c10.276 7.932 22.525 19.98 24.329 33.455C175 239 175 239 173.256 240.853l-2.412 1.698-2.598 1.865-2.746 1.897-2.746 1.955A641 641 0 0 1 156 253c-5.81-2.987-10.096-6.637-14.75-11.187-5.424-5.205-10.917-10.083-16.797-14.766-3.324-2.774-6.311-5.822-9.332-8.918-2.625-2.634-5.375-5.076-8.207-7.484a114 114 0 0 1-3.828-3.446l-1.836-1.699-1.61-1.531c-1.62-1.178-1.62-1.178-3.69-.746-5.357 2.136-8.61 7.486-11 12.5-1.252 4.321-1.427 8.358-1.45 12.84l-.019 2.396c.274 12.881 6.63 24.695 15.312 33.975 5.702 5.338 12.371 9.35 19.207 13.066l-1 3c-8.716.634-15.794-4.975-22.312-10.312-9.622-8.944-16.355-20.925-16.926-34.079C77.464 223.497 78.978 214.063 88 204c16.681-17.323 44.626-13.183 63-1"/><path fill="#f8f9fa" d="M168 155h13v12h12v-12h13v12h11v-12h14c.182 7.338.328 14.674.414 22.013.042 3.41.098 6.818.19 10.226.728 27.834.728 27.834-8.604 38.761-1.525 2.95-2.748 5.921-4 9h-1l-.044-2.886c-.059-3.574-.136-7.146-.218-10.719a700 700 0 0 1-.084-4.617c.013-15.635.013-15.635-7.654-28.778-4.04-3.55-8.184-3.504-13.344-3.352-4.985.66-7.609 3.217-10.906 6.79-3.582 5.245-4.072 9.896-4.164 16.144l-.059 2.467c-.06 2.588-.106 5.176-.152 7.763l-.117 5.28q-.142 6.453-.258 12.908c-2.786-2.786-4.174-6.182-5.875-9.687q-1.024-2.101-2.055-4.2l-.913-1.881c-1.226-2.453-1.226-2.453-3.26-5.482-2.215-3.87-2.43-7.47-2.323-11.86l.01-2.306c.014-2.445.058-4.889.103-7.334q.026-2.511.047-5.022c.117-11.09.419-22.168 1.266-33.228"/><path fill="#f9fafb" d="M172 102h54v49h-13v12h-3v-12h-21v12h-3v-13l-6 1h-8z"/><path fill="#0f3a60" d="M127 46c2.745 2.383 3.89 4.69 5.188 8.063l1.042 2.66C134 59 134 59 134 61l2.957-.07 3.856-.055 3.832-.07C148 61 148 61 151 63l-2.441 1.688c-5.726 3.798-5.726 3.798-9.102 9.41.31 2.079.87 3.913 1.543 5.902q.328 2.244.563 4.5L142 88l12 2v22H98c0-11.25 0-11.25.5-15.625l.281-2.54L99 92l2.152.035 2.785.028 2.778.035c2.25.161 2.25.161 3.285-1.098h-10c2.59-2.59 4.027-2.374 7.625-2.625l3.04-.227L113 88c.238-1.906.47-3.812.668-5.723C114 80 114 80 114.676 78.004c.7-2.366.95-3.593.324-6.004-2.665-2.717-5.47-4.898-8.559-7.117L104 63v-2l3.254.273c6.498.27 6.498.27 12.746-1.273 3.8-3.738 5.41-9.03 7-14"/><path fill="#d6e6f1" d="M103 116h47v36h-8v11h-2v-11h-21v12h-4v-12h-12z"/><path fill="#deecf6" d="M248 116h47v35h-12v13h-4v-12l-20 1-1 10h-1v-11h-9z"/><path fill="#0d468a" d="M198 19h2l6 17 19 1c-2.039 4.077-3.496 5.5-7 8.25l-2.687 2.14C213 49 213 49 211 49l.875 2.816L213 55.562l1.125 3.692c.87 3.725 1.032 6.937.875 10.746h7v1h-7v13h-6v-8h-2v10h11v1h-12V75h-14v12h-12V74h-14v-2l-2-1h19l-1-7c.777-3.746.777-3.746 1.938-7.437l1.152-3.747L186 50l-2.844-2.082-3.656-2.73-1.879-1.37c-1.596-1.201-3.115-2.505-4.621-3.818v-3l18-1z"/><path fill="#e6f0f7" d="m354 277-2 37c9.22-2.881 18.194-5.711 27.207-9.082C382 304 382 304 385 304c-1.78 4.976-4.366 9.466-6.937 14.063l-1.342 2.431-1.31 2.354-1.184 2.125C373 327 373 327 371.349 329.137c-1.543 1.745-1.543 1.745-1.337 3.828 1.401 2.886 3.382 4.505 5.8 6.598l2.645 2.316c2.458 2.106 2.458 2.106 4.867 3.773L385 347v2c-10.22 3.392-20.21 5.36-31 5-1.708-3.089-2.562-5.972-3.297-9.418l-.708-3.268-.745-3.502a1264 1264 0 0 0-6.625-29l-.796-3.291q-.911-3.762-1.829-7.521l-7-1c-.312-3.187-.312-3.187 0-7 3.506-4.18 7.483-6.722 12.188-9.312l1.904-1.088c4.63-2.6 4.63-2.6 6.908-2.6"/><path fill="#e2edf5" d="M45 277c4.823 1.608 8.591 3.343 12.813 6l1.771 1.078C63.87 286.74 63.87 286.74 65 289q-.421 3.511-1 7l-1.875.188c-2.34.615-2.34.615-3.177 3.002-.962 2.852-1.644 5.631-2.245 8.58l-.708 3.41-.745 3.632C52.5 327.966 49.369 340.994 46 354c-6.443.166-12.482-.17-18.812-1.375l-2.194-.383c-3.871-.707-7.405-1.62-10.994-3.242v-2a105 105 0 0 1 5.188-4.375l2.917-2.336L25 338l5-4c-1.74-5.126-4.65-9.5-7.5-14.062q-1.486-2.392-2.969-4.786l-1.326-2.125c-2.402-4.04-2.402-4.04-3.205-6.027l1-3 2.415.81q4.45 1.492 8.9 2.98l3.848 1.29q2.77.928 5.54 1.854l3.364 1.126c2.286.733 4.605 1.358 6.933 1.94z"/><path fill="#f5f6f8" d="M146 155h12v12h6v10H74v-21c8.496-.098 8.496-.098 11 0 1 1 1 1 1.098 3.504L86 168h12v-12h13v12h12v-12h13v11h10z"/><path fill="#f5f7f8" d="M240 155h12v12h11v-11h12l1 11 11 1v-13h13v13l12-1 1-10h11v20h-89v-9h5z"/><path fill="#f9fafb" d="M166 75h14v12h12V75h14v12h12V75h15l1 23h-69c0-15.75 0-15.75 1-23"/><path fill="#f3d42c" d="M174 242c1.192 3.575.748 4.286-.652 7.668l-1.104 2.705-1.181 2.815c-.387.94-.773 1.88-1.17 2.85Q168.459 261.523 167 265l-2.687-2.5c-2.113-1.74-3.145-2.463-5.868-3.059-3.294.753-5.031 2.288-7.57 4.497-4.613 3.975-4.613 3.975-7.875 5.062l1 6 2.5.563c4.74 1.946 7.787 4.97 11.5 8.437a3527 3527 0 0 0 7.281 6.508 200 200 0 0 1 5.813 5.547l1.59 1.546q1.537 1.495 3.03 3.033c1.574 1.588 1.574 1.588 4.286 3.366 3.282-.059 3.282-.059 6-1-1.498-3.624-3.558-5.632-6.5-8.187l-2.727-2.395L174 290a1547 1547 0 0 1-4.875-4.375l-2.453-2.207c-4.914-4.447-9.793-8.933-14.672-13.418 1.55-3.3 2.72-5.22 6-7 5.097.169 7.866 3.243 11.313 6.625q1.74 1.658 3.48 3.313l1.681 1.613c1.838 1.746 3.73 3.42 5.651 5.074l1.816 1.594a347 347 0 0 0 5.024 4.25l3.097 2.656 2.91 2.445C195 293 195 293 195.036 295.54c-1.189 2.825-2.506 4.53-4.66 6.71l-1.977 2.078c-3.268 2.278-5.415 2.728-9.398 2.672-2.403-1.63-4.032-3.006-6-5.062l-1.655-1.61c-2.46-2.396-4.867-4.842-7.273-7.29a610 610 0 0 0-5.885-5.85l-1.81-1.905c-3.19-3.223-3.19-3.223-7.394-4.476-2.062.244-3.979.656-5.983 1.193-5.193.995-10.108 1.117-15.375 1.063l-2.52-.014q-3.052-.02-6.105-.049v-2l3.45-1.578c4.943-2.475 9.072-5.716 13.362-9.172q2.4-1.899 4.801-3.793l2.307-1.826c4.264-3.344 8.672-6.481 13.08-9.631q3.587-2.589 7.172-5.181Q168.585 245.907 174 242"/><path fill="#fbd729" d="m223 241 1.47 1.117c4.753 3.589 9.58 7.045 14.468 10.446 6.755 4.73 13.337 9.647 19.858 14.694a398 398 0 0 0 16.091 11.761c1.387.971 2.753 1.973 4.113 2.982v1a1183 1183 0 0 1-9.062.125l-2.569.05c-5.193.04-9.37-.62-14.369-2.175-3.21-.414-4.375-.48-6.957 1.504l-1.856 2.058a120 120 0 0 1-9.914 9.43 136 136 0 0 0-5.234 4.89l-1.583 1.527q-1.552 1.5-3.068 3.036c-2.423 2.318-4.105 3.498-7.415 4.164-3.953-.81-5.599-2.435-8.41-5.296l-2.684-2.637C204 297 204 297 203.805 294.566c1.79-3.842 4.603-6.175 7.757-8.941l1.939-1.747A659 659 0 0 1 219 279l2.355-2.086q1.844-1.62 3.711-3.21a126 126 0 0 0 4.461-4.157l2.66-2.547 2.418-2.375C237 263 237 263 239.625 263.121c2.984 1.105 5.006 2.781 7.375 4.879-3.017 6.722-9.205 11.25-14.687 15.973-3.396 2.976-6.705 6.046-10.013 9.12A146 146 0 0 1 213 301l1 3c2.948.266 4.512.331 7.001-1.358l1.925-1.896 2.166-2.092 2.22-2.216a3238 3238 0 0 1 4.364-4.254l2.163-2.118c2.727-2.607 5.547-5.089 8.405-7.55q1.723-1.486 3.402-3.018c3.031-2.7 5.27-4.138 9.354-4.498.361-2.323.361-2.323 0-5-1.84-2.266-1.84-2.266-4.312-4.187l-2.426-2.043c-3.859-3.158-3.859-3.158-8.7-3.645-3.891.956-4.937 2.002-7.562 4.875-2.46-5.866-4.91-11.736-7.312-17.625l-.989-2.414C223 243 223 243 223 241"/><path fill="#f4f5f7" d="M235 181h83v26l-5-5c-10.676-10.462-19.98-13.292-34.629-13.317-7.06.11-12.934 1.318-19.371 4.317l-2.785 1.285c-6.36 3.212-11.633 7.29-17 11.957C237 208 237 208 235 208z"/><path fill="#f5f7f8" d="M81 181q15.816-.034 31.631-.052 7.344-.007 14.687-.023 7.08-.016 14.16-.02 2.708-.003 5.415-.01 3.78-.01 7.558-.009l2.284-.01c5.15.01 5.15.01 6.265 1.124.087 1.927.107 3.857.098 5.785l-.01 3.545-.025 3.732-.014 3.745q-.018 4.596-.049 9.193c-3.247-1.552-5.652-3.322-8.375-5.687C141.357 191.553 126.917 187.416 110 189c-12.179 2.126-20.416 8.416-29 17z"/><path fill="#123757" d="M233 167h1l1 10h70l-1 2 13 1v1h-82v27l7.188-5.625c11.531-8.796 23.423-14.746 38.187-14.687l2.422-.05c7.478-.005 13.97 2.033 20.64 5.362l1.934.938C307 195 307 195 309 198c-1.762 1.11-1.762 1.11-4 2-1.895-.61-1.895-.61-3.812-1.75-6.324-3.703-12.62-4.64-19.813-4.625l-2.382.005c-7.14.148-13.375 1.66-19.993 4.37l-2.258.91C243.584 204.87 234.24 215.89 227 228l-2 3v-2l-1.375 1.5C222 232 222 232 220 232c1.857-7.057 5.993-12.99 10-19 .938-4.267 1.168-8.437 1.281-12.797l.114-3.906.105-4.047c.22-8.454.477-16.849 1.5-25.25"/><path fill="#f3f5f7" d="M244 91h10v12h11V93h13v10h11V92h10c1.281 6.888 1 12.667 1 20h-56z"/><path fill="#f7f9fa" d="M145 91h9v21H98c0-6.988.219-13.164 1-20h10v11h12V93h12v10h12z"/><path fill="#fbfcfd" d="m104 116 15.75-.062 4.89-.028c8.176-.016 16.219.217 24.36 1.09v1l-2.863.637c-3.331 1.053-3.331 1.053-4.492 4.008l-.833 3.168C139.66 130.048 138.25 133.25 136 137c-.557 2.195-.557 2.195-.687 4.313L135 145h-1l-.113-2.922-.2-3.828-.175-3.797c-.519-3.498-1.002-5.016-3.512-7.453-2.543-.5-2.543-.5-5 0-2.846 2.846-2.456 5.804-2.625 9.625l-.117 2.14c-.094 1.745-.177 3.49-.258 5.235-4.126 1.214-8.214 2.315-12.437 3.125l-2.622.508L105 148v2h10v1h-11z"/><path fill="#fcfcfd" d="M295 116v35l-4-4c-3.484-.911-3.484-.911-7.25-1.25l-3.828-.453L277 145l-.148-3.176-.227-4.137c-.03-.69-.062-1.38-.094-2.091-.212-3.666-.45-5.475-2.531-8.596-3-.417-3-.417-6 0-2.77 2.77-2.398 4.765-2.625 8.625l-.227 3.602L265 142a242 242 0 0 1-5.062-7.937l-1.598-2.59c-2.464-4.547-2.439-8.327-2.34-13.473h-7v-1c15.356-.904 30.616-1.086 46-1"/><path fill="#f65749" d="M151 203c10.722 8.277 19.051 18.277 24 31 .164 2.863.164 2.863 0 5h-2l-1.504-3.184C163.142 218.423 153.156 206.533 135 199c-9.753-3.397-24.43-4.049-34.082-.035C94.038 202.678 89.496 206.967 86 214l-1.113 2.168c-1.266 4.043-1.216 7.87-1.2 12.082l-.048 2.45c-.01 13.015 6.388 24.864 15.154 34.234 5.702 5.338 12.371 9.35 19.207 13.066l-1 3c-8.716.634-15.794-4.975-22.312-10.312-9.622-8.944-16.355-20.925-16.926-34.079C77.464 223.497 78.978 214.063 88 204c16.681-17.323 44.626-13.183 63-1"/><path fill="#0c3960" d="M270 46c4.303 3.613 5.237 8.832 7 14l17 1c-2.148 4.296-2.772 4.562-6.687 6.75-2.484 1.797-4.105 3.023-4.632 6.134-.108 4.765.547 9.424 1.319 14.116l-3 1v10h4l-.035-2.152c-.01-.92-.018-1.839-.027-2.785l-.036-2.778C285 89 285 89 286 88a153 153 0 0 1 6.563-.062l3.628.027L299 88l-1 3h-10v12h-10V93h-13v10h-1V93h-2v6h-4c-.619-9.663-.619-9.663 1.563-14.375 2.86-3.08 5.576-5.856 9.437-7.625 4.54.681 8.373 4.298 12 7l-3-13 10-7-13-1-5-11-4 11-13 1 9 7-.937 4.125c-.805 3.611-1.5 7.217-2.063 10.875h-2c-1.598-4.953-.283-9.133 1-14l-1.898-1.39-2.477-1.86-2.46-1.828C249 65 249 65 247 61h17l1.313-4.687C266.448 52.5 267.699 49.288 270 46"/><path fill="#f8a122" d="M198 25c2 1 2 1 3.07 3.652l1.055 3.285 1.07 3.278C204 38 204 38 204 40h15c-3.273 3.273-6.146 5.547-10 8 .692 5.418 1.758 10.682 3 16-3.835-1.755-6.779-4.17-10-6.855-1.895-1.325-1.895-1.325-3.922-1.043-2.713 1.173-4.934 2.728-7.328 4.46l-2.703 1.942L186 64c-1-2-1-2-.223-4.75l1.16-3.25c1.516-3.913 1.516-3.913 2.063-8a95 95 0 0 0-5.437-3.5c-5.458-3.29-5.458-3.29-6.563-5.5l16-1z"/><path fill="#c07c32" d="M239.625 263.121c2.984 1.105 5.006 2.781 7.375 4.879-3.017 6.723-9.209 11.258-14.695 15.977-2.303 2.02-4.55 4.096-6.792 6.183-4.625 4.3-9.227 8.356-14.513 11.84-2.562-2.187-2.562-2.187-5-5 0-5.048 3.253-7.954 6.563-11.375l1.653-1.747c3.433-3.588 6.95-7.009 10.78-10.175 1.563-1.328 3.065-2.73 4.54-4.156l2.651-2.547 2.418-2.375C237 263 237 263 239.625 263.121"/><path fill="#c07a2f" d="M160.21 263.059c4.042 1.364 6.55 3.91 9.602 6.816l1.811 1.645c1.525 1.425 2.959 2.948 4.377 4.48v3l1.796.835c3.45 1.823 6.132 4.376 9.017 6.978l1.85 1.58c4.281 3.866 4.281 3.866 4.536 7.244-1.526 3.008-3.45 4.46-6.199 6.363l-2.781-2.598c-8.433-7.863-8.433-7.863-17.067-15.504-5.14-4.533-10.13-9.236-15.152-13.898 1.815-3.863 3.49-7.067 8.21-6.941"/><path fill="#1563ba" d="M160 393c7.953-.715 11.971 1.145 18.438 5.625l5.007 3.297c2.604 1.753 5.2 3.517 7.797 5.281l2.57 1.672 2.083 1.43c3.166 1.045 5.04-.111 8.105-1.305 1.967-1.089 3.9-2.24 5.8-3.441l3.21-2.018 3.303-2.103 3.36-2.116c4.91-2.836 4.91-2.836 9.327-6.322a75 75 0 0 1 4.563-.062l2.503.027L238 393c-3.588 3.81-7.36 6.827-11.75 9.688l-1.947 1.274A790 790 0 0 1 218 408c-.746.478-1.492.956-2.26 1.45a502 502 0 0 1-6.803 4.238l-2.125 1.352c-3.137 1.884-5.112 2.95-8.82 3-3.91-1.359-7.275-3.207-10.804-5.353l-2.208-1.32c-5.631-3.423-11.086-7.081-16.48-10.867l-2.23-1.564c-5.14-3.677-5.14-3.677-6.27-5.936"/><path fill="#eeb635" d="M270 51c3.282 3.282 3.754 7.583 5 12h14c-3.247 3.433-5.86 5.516-10 8l3 14-8.203-5.664c-2.635-1.64-2.635-1.64-4.93-.711L267 80l-1.852 1.29q-1.782 1.341-3.562 2.687C260 85 260 85 258 85l.691-2.266.872-2.984.878-2.953c.569-2.846.76-4.18-.441-6.797-1.838-1.733-1.838-1.733-4.062-3.187A159 159 0 0 1 252 64v-1h14l.875-4.312c.663-3.269 1.222-4.833 3.125-7.688"/><path fill="#0c375d" d="M198 19h2l6 17 19 1c-2.039 4.077-3.496 5.5-7 8.25l-2.687 2.14C213 49 213 49 211 49l.875 2.887 1.125 3.8 1.125 3.762c.752 3.052 1.065 5.44.875 8.551-5.356-.67-8.364-3.331-12.5-6.602-2.385-1.614-2.385-1.614-4.992-1.332-2.963 1.103-5.114 2.59-7.633 4.496C185.324 68 185.324 68 182 68c.584-6.304 2.04-11.987 4-18l-2.844-2.082-3.656-2.73-1.879-1.37c-1.596-1.201-3.115-2.505-4.621-3.818v-3l18-1zm0 6-5 13-16 1c4.17 4.318 4.17 4.318 8.813 7.313L189 48l-4 16c3.54-1.943 6.62-3.674 9.688-6.312C197 56 197 56 198.855 56.172c2.702 1.043 4.542 2.547 6.77 4.39 2.836 2.646 2.836 2.646 6.375 3.438l-.402-1.723C210.512 57.528 209.617 52.832 209 48l2.188-1.496L214 44.563l2.813-1.934L219 41v-1h-15l-2.148-8.203A34.6 34.6 0 0 0 199 25z"/><path fill="#f4a834" d="M127 51c3.338 3.641 3.979 7.286 5 12h14c-3.373 3.662-5.223 5.09-10 7l3 15-11-7c-3.857 2.15-7.543 4.235-11 7l-2-1 5-13-5-2c-2.186-1.522-4.017-3.201-6-5v-1l14-1 1.438-4.937c1.437-4.938 1.437-4.938 2.562-6.063"/><path fill="#153b6a" d="M299 337c2.96 1.816 5.42 3.84 7 7 .933 10.359.933 10.359-1.812 15.188-3.837 3.178-7.348 3.23-12.188 2.812-3.54-2.203-5.435-4.176-7-8-.772-4.523-1.242-9.07 1.32-13.05 3.923-3.686 7.25-5.036 12.68-3.95"/><path fill="#103765" d="M169 345c3.063 1.813 3.063 1.813 5 5 .81 4.784 1.198 9.656-1.062 14.078-1.737 2.13-3.475 3.69-5.938 4.922-7.132.702-7.132.702-10.937-2.375-3.412-4.341-3.45-7.423-3.422-12.852.556-4.294 2.19-5.906 5.359-8.773 3.536-1.768 7.255-.898 11 0"/><path fill="#113867" d="M237 345c3.346 2.527 4.68 4.04 6 8 .396 5.243-.164 8.544-3 13-2.489 2.872-4.772 3.289-8.437 3.563-2.66-.08-4.08-.201-6.223-1.805-3.656-4.285-4.684-8.12-4.633-13.688.476-3.361 2.168-5.508 4.293-8.07 3.717-1.859 7.953-1.58 12-1"/><path fill="#7abaee" d="M306.945 200.125c6.21 5.358 11.401 10.374 12.055 18.875.065 3.335.06 6.665 0 10h-1l-.445-2.309c-2.08-9.576-5.84-17.379-13.555-23.691-12.484-7.276-25.074-7.394-39-4-15.275 5.016-26.273 15.216-34 29a202 202 0 0 0-5 11l-3-1c2.443-14.66 14.52-27.85 26.25-36.25 16.747-10.585 40.917-13.73 57.695-1.625"/><path fill="#103968" d="m77 333 7 1c.917 5.385 1.111 10.542 1 16h2l.188-2c.741-2.74 1.593-4.831 2.937-7.312l1.133-2.114C93 337 93 337 96.68 336.77l3.32.23q-.428 3.782-.875 7.563l-.238 2.134c-.553 4.616-1.499 8.865-2.887 13.303h-5l2-14-6 12h-5l-2-11-3 9h-5c3.032-19.065 3.032-19.065 5-23"/><path fill="#22486b" d="M163 89h1v9h70v1l-61 1 53 1v1h-54v49l4 1-4 1 10 1v13h-1v-12l-16 1c1-5 1-5 2-6 .251-2.798.431-5.57.563-8.375l.128-2.622c.521-11.994.397-24.001.309-36.003l-7-1c-1.373-4.12-.747-6.721 0-11z"/><path fill="#122f4e" d="M151.945 199.027c6.787 5.192 6.787 5.192 7.825 8.215L160 209c-3.904 0-5.008-1.31-8.062-3.687C138.45 195.287 125.535 192.74 109 194c-8.208 1.272-14.803 5.342-21.008 10.75C86 206 86 206 83.75 205.688L82 205c17.344-22.969 48.002-21.077 69.945-5.973"/><path fill="#0a4283" d="M276.117 82.77c2.122 1.259 3.432 2.21 4.883 4.23.598 4.063.41 7.924 0 12h4l-.035-2.152c-.01-.92-.018-1.839-.027-2.785l-.036-2.778C285 89 285 89 286 88a153 153 0 0 1 6.563-.062l3.628.027L299 88l-1 3h-10v12h-10V93h-13v10h-1V93h-2v6h-4c-.624-3.832-.836-7.19 0-11 5.384-6.208 10.385-8.04 18.117-5.23"/><path fill="#042d54" d="M96 94c2.15 3.226 2.25 4.099 2.188 7.813l-.02 2.519c-.183 2.91-.689 5.792-1.168 8.668h39v2l-32 1-1 36h11v12l-3-1v-8H98l2-6c-.197-1.608-.405-3.217-.703-4.81-.7-5.154-.396-10.435-.36-15.627l.014-3.663q.018-4.45.049-8.9h-5c-.264-7.595.391-14.574 2-22"/><path fill="#12395e" d="m296 117 2 1c1.08 3.835 1.19 7.648 1.316 11.613l.127 3.78.12 3.92.13 3.978q.159 4.855.307 9.709l4 2v10h5v-6h3v11h-12v-13h-13v13h-11v-2h10l-2-2c-.278-4.012-.086-7.974 0-12h12z"/><path fill="#133c6b" d="m316.625 333.75 2.29-.078c2.659.418 3.511 1.17 5.085 3.328.266 3.73.185 6.446-1 10 1.201 2.128 1.201 2.128 2.938 4.188l1.714 2.167L329 355c-2.687.875-2.687.875-6 1-2.75-2.875-2.75-2.875-5-6l-2-1 1 9h-5c-1.533-4.353-2.667-8.674-3.625-13.187-.26-1.21-.52-2.421-.79-3.668C307 338 307 338 307 335c3.208-.828 6.325-1.142 9.625-1.25"/><path fill="#113867" d="M259 343h4c1.357 7.73 2.32 15.145 2 23-2.758.344-2.758.344-6 0-2.117-2.406-2.117-2.406-3.875-5.5l-1.805-3.094L252 355l-1 12h-4c-1.231-7.727-2.27-15.168-2-23 2.727-.375 2.727-.375 6 0 2.336 2.625 2.336 2.625 4.375 6l2.086 3.375L259 356z"/><path fill="#072f5f" d="M203 346c11 0 11 0 14.188 1 1.812 2 1.812 2 2.375 5.938-.2 2.936-.537 4.021-2.188 6.562-2.976 1.88-4.918 1.814-8.375 1.5v9h-6z"/><path fill="#0c355c" d="M235 177h70l-1 2 13 1v1q-14.265.106-28.53.155-6.626.022-13.25.071-6.4.048-12.8.059-2.434.008-4.87.032c-15.67.15-15.67.15-22.55-3.317z"/><path fill="#0b345a" d="M304 115v1h-5v7h-1l-1-5-1 34h-12l1 7h1v7l-11 1v-11h-12v11h-1v-11h-2l-1-4h20v12h4v-13h12v-35h-35v-1q7.23-.254 14.46-.482 2.453-.08 4.907-.166c16.735-.587 16.735-.587 24.633.648"/><path fill="#0d3a5e" d="m121 59 2 1v3l-13 1 10 7-2.344 7.52c-.784 2.536-.784 2.536-.656 5.48l3-2 3 1c-2.773 3.08-5.063 4.688-9 6l-1 10h5v-7h2v11h-10V91h-10c2.59-2.59 4.027-2.374 7.625-2.625l3.04-.227L113 88c.238-1.906.47-3.812.668-5.723C114 80 114 80 114.676 78.004c.7-2.366.95-3.593.324-6.004-2.665-2.717-5.47-4.898-8.559-7.117L104 63v-2l3.465-.184 4.472-.254 2.288-.119c3.694.117 3.694.117 6.775-1.443"/><path fill="#062e55" d="M75 177c18.443-.088 36.876.154 55.316.464l11.106.18q10.789.176 21.578.356v2c-18.363.917-36.679 1.125-55.062 1.063q-3.95-.008-7.897-.014-9.52-.017-19.041-.049v-3h-6z"/><path fill="#143b6a" d="M283 340c-.547 5.006-2.241 8.972-4.562 13.375l-.999 1.941A689 689 0 0 1 275 360l3-1c2.333-.04 4.667-.044 7 0v4c-5.808 1.506-10.998 2.218-17 2 .575-4.786 1.982-8.538 4.063-12.875l1.66-3.492L275 346h-8v-4c5.57-1.592 10.211-2.207 16-2"/><path fill="#f79f25" d="M286 65c-4.75 4.875-4.75 4.875-7 6l3 14-5-3.562c-4.967-3.208-4.967-3.208-10.687-3.376L263 79l3-8-4-1-1-3c8.415-1.52 16.449-2.277 25-2"/><path fill="#123a6b" d="M104 339q2.125-.04 4.25-.062l2.39-.036c2.267.094 4.189.466 6.36 1.098v4h-9l1 4 6 1v4h-8v5l8 1v5l-14-2c-.484-7.897 1.323-15.335 3-23"/><path fill="#09325a" d="M198.938 113.688C202 114 202 114 203.673 115.24c1.683 2.231 1.676 3.437 1.62 6.208l-.03 2.569c-.024.88-.05 1.762-.076 2.67l-.04 2.705c-.036 2.202-.09 4.405-.147 6.607h-11q-.08-4.937-.125-9.875c-.017-.937-.034-1.874-.05-2.84l-.02-2.715-.032-2.507c.39-3.541 1.789-4.016 5.165-4.376"/><path fill="#cc0b0b" d="M81 213c.982 3.468.749 5.469 0 9-.904 16.033 1.883 28.182 12 41 6.057 6.691 12.936 11.07 21 15l4 2c-1 1-1 1-3.695 1.254C105.65 280.589 96.792 273.218 91 267c-8.948-11.082-13.16-21.151-13.25-35.312l-.062-2.436c-.039-5.92 1.128-10.76 3.312-16.252"/><path fill="#143c6b" d="m131 341 3 2-1 4-8-1c1.625 3.079 2.798 4.859 5.688 6.875C133 355 133 355 133.5 358.563c-.5 3.437-.5 3.437-1.684 5.128-2.511 1.81-4.31 1.709-7.379 1.684l-2.94.023L119 365l-2-3 1-3 9 1 1-3-2.25-.75c-3.078-1.4-4.72-2.544-6.75-5.25-.562-3-.562-3 0-6 3.619-4.167 6.63-4.597 12-4"/><path fill="#103766" d="m193.188 345.813 2.73.082L198 346l1 5h-8c1.135 3.406 1.481 3.535 4.5 5.063 3.398 1.733 3.398 1.733 4.5 3.937.375 2.875.375 2.875 0 6-2.2 2.698-3.81 3.857-7.3 4.277-2.271.033-4.447.007-6.7-.277-1-1-1-1-1.062-3.562L185 364l8 1c-.048-1.879-.048-1.879-1-4-2.942-2.212-2.942-2.212-6-4-1-1-1-1-1.25-4.375.25-3.625.25-3.625 1.441-5.34 2.437-1.731 4.04-1.588 6.996-1.473"/><path fill="#0f365d" d="M274 126c2.031 3.047 2.247 3.601 2.195 7.012l-.02 2.295-.05 2.38-.027 2.417c-.024 1.965-.06 3.93-.098 5.896h-11q-.118-4.155-.187-8.312l-.077-2.381-.029-2.295-.048-2.11c.923-5.148 4.785-5.484 9.341-4.902"/><path fill="#06315a" d="M71 153h18l1 10h4v-9l3 2c.416 3.696.13 7.271 0 11H86l-1-10-11-1 .105 4.27q.043 2.771.082 5.542l.077 2.815.029 2.705.048 2.491C74 176 74 176 71 179z"/><path fill="#0d355a" d="M127.5 125.625c2.976.446 3.666 1.05 5.5 3.375.34 1.901.34 1.901.293 4.012l-.03 2.295c-.024.785-.05 1.571-.076 2.38l-.04 2.417A526 526 0 0 1 133 146h-11q-.118-4.155-.187-8.312l-.077-2.381-.029-2.295-.048-2.11c.622-3.473 2.47-4.771 5.841-5.277"/><path fill="#ebeff3" d="M117 340c1.607 2.678 2.007 4.18 2.125 7.375 1.256 5.205 4.48 6.892 8.875 9.625l-1 4c-6.75-.875-6.75-.875-9-2l-1 3-2-1v-2l-8-1v-5h8v-4h-6l-1-5h9z"/><path fill="#0a253a" d="M222 240c4.262-.365 6.127.402 9.45 3.043l2.542 1.986 2.696 2.159q2.834 2.216 5.671 4.425l2.87 2.245c4.005 3.096 8.093 6.069 12.208 9.017l2.204 1.582Q262.818 266.73 266 269l4.23 3.027q4.881 3.492 9.77 6.973l-1 4c-9.248-6.572-18.396-13.233-27.312-20.25-7.053-5.546-14.25-10.735-21.688-15.75-6.842-4.685-6.842-4.685-8-7"/><path fill="#0d83e7" d="M318 215c5.204 7.806 5.01 17.243 3.43 26.25-1.332 5.382-1.332 5.382-2.43 7.75l-3 1a102 102 0 0 0-2 5c-4.112 6.29-9.18 11.298-15 16l-2-1 1.723-1.766c12.401-13.167 19.512-28.337 19.34-46.609l-.028-3.773z"/><path fill="#15273b" d="M176 241c-1.408 2.815-3.386 3.615-6.062 5.25-4.879 2.983-9.397 6.288-13.938 9.75a4883 4883 0 0 1-7.106 5.355c-6.956 5.232-13.918 10.46-20.957 15.582l-1.71 1.27C122.347 281 122.347 281 119 281l-1 2-1-3c11.355-8.646 11.355-8.646 16.313-11.875 3.975-2.6 7.802-5.37 11.625-8.187l1.899-1.394q5.5-4.041 10.956-8.146l4.832-3.585 2.297-1.749 2.18-1.607c.632-.475 1.264-.95 1.916-1.438 2.454-1.262 4.26-1.204 6.982-1.019"/><path fill="#0e3356" d="M114 152h1v12h4v-12h21v3l-2 1c-.658 3.03-.658 3.03-1 6h-1v-6h-13v12h-12v-5l2-1c.468-2.356.468-2.356.625-5.062l.227-2.786z"/><path fill="#0b4384" d="M131 82c3.544 1.476 6.419 3.132 9 6 .768 3.78.548 7.2 0 11h-2c-1-2-1-2-1-10h-20v10h-4c-.482-3.448-.689-6.572 0-10 2.32-2.416 4.986-3.611 8-5l2.688-1.875c2.975-1.448 4.155-.98 7.312-.125"/><path fill="#053057" d="m256 84 1 2 3-1-1 3a166 166 0 0 0-.562 5.688l-.254 3.011L258 99h4v-6h2v10h-10V91h-10v18h-1l-1-11h-1V88h14z"/><path fill="#ef2920" d="M82 224h1l.113 2.746C83.97 242.626 89.165 255.92 101 267c5.328 4.224 11.034 7.758 17 11-2.572.976-3.74 1.09-6.375.172-13.52-7.324-24.327-17.632-29.777-32.266-1.288-4.413-1.98-8.3-1.848-12.906h1z"/><path fill="#f6d629" d="M174 242c1.192 3.575.748 4.286-.652 7.668l-1.104 2.705-1.181 2.815c-.387.94-.773 1.88-1.17 2.85Q168.459 261.523 167 265l-1.426-1.277-1.887-1.66-1.863-1.653c-1.876-1.61-1.876-1.61-4.824-2.41.102-1.68.102-1.68 1-4a84 84 0 0 1 6.375-5.125l1.79-1.34A182 182 0 0 1 174 242"/><path fill="#0d3565" d="m136 343 16 1v4h-6l.035 2.633.028 3.492.035 3.445c-.093 3.243-.484 6.25-1.098 9.43h-5c-.185-13.633-.185-13.633 1-20h-5z"/><path fill="#f7d125" d="m223 241 1.363 1.031 1.95 1.469 2.175 1.645a239 239 0 0 0 5.492 3.93l3.02 2.113 2.875 1.98L242 255v3l-2.75 1.25c-3.072 1.654-4.878 3.254-7.25 5.75-2.46-5.866-4.91-11.736-7.312-17.625l-.989-2.414C223 243 223 243 223 241"/><path fill="#06325a" d="m288.941 87.902 3.622.035 3.628.028L299 88l-1 3h-10v12h-10l-1-10-2.52-.113-3.293-.2-3.269-.175C265 92 265 92 262 89h19v10h4l-.035-2.152c-.01-.92-.018-1.839-.027-2.785l-.036-2.778c.149-3.467.515-3.266 4.04-3.383"/><path fill="#d3c095" d="M149 277c4.974 2.598 8.677 6.277 12.688 10.125l4.285 4.04a432 432 0 0 1 7.086 6.858l2.566 2.477 2.164 2.156c2.216 1.624 2.216 1.624 5.27 1.235 2.88-.872 4.29-1.535 6.379-3.641l1.558-1.484c1.185-1.763 1.185-1.763 1.066-4.079-1.568-3.968-4.329-6.17-7.5-8.937l-1.814-1.64c-3.15-2.87-3.15-2.87-6.748-5.11v-2c3.007 1.34 4.998 2.798 7.25 5.188 3.721 3.842 7.686 7.339 11.75 10.812-.513 4.194-1.666 6.257-4.625 9.25l-1.977 2.078c-3.268 2.278-5.415 2.728-9.398 2.672-2.403-1.63-4.033-3.005-6-5.062l-3.363-3.305-1.772-1.78c-3.279-3.257-6.672-6.391-10.053-9.54l-1.962-1.854-1.83-1.72-1.622-1.53c-1.405-1.315-1.405-1.315-3.398-2.209z"/><path fill="#204264" d="M164 167h3l-1 19h-1l-1 23-2-1v-26l-24-1v-1h25v-2H99v-1h65z"/><path fill="#f1d86b" d="M198 25h1c-.416 6.195-1.603 11.267-4 17l-9 1v2c2.652 1.075 5.284 2.095 8 3-.565 3.958-1.809 6.666-4 10l6-2c-3.382 3.68-6.425 5.979-11 8l.621-2.23.816-2.958.81-2.917A117 117 0 0 0 189 48l-2.371-1.46-3.066-1.915-3.06-1.898C178 41 178 41 177 39l16-1z"/><path fill="#1e4575" d="m77 333 7 1c-.558 7.015-1.184 14.01-2 21h-1l-1-8-3 9h-5c3.032-19.065 3.032-19.065 5-23"/><path fill="#0d3666" d="M165.875 344.5c3.125.5 3.125.5 6 2.25 3.228 4.938 3.06 9.52 2.125 15.25-1.25 3.234-2.05 3.832-5 6-3.07.462-5.924.362-9 0l1-3 2.438-.937c2.607-.835 2.607-.835 3.875-2.75.952-3.205.933-5.993.687-9.313-2.463-2.463-4.707-2.998-8-4 1.839-2.452 2.803-2.966 5.875-3.5"/><path fill="#0e3766" d="M227 345c8.963-.783 8.963-.783 13.063 2.313 3.07 4.258 3.287 7.523 2.937 12.687-1.358 3.272-2.499 5.499-5 8h-4c.875-4.75.875-4.75 2-7 .12-1.496.175-2.999.188-4.5l.042-2.406c-.033-2.314-.033-2.314-2.23-4.094-3.083-.167-3.083-.167-6 0z"/><path fill="#e8b940" d="M127 51c3.338 3.641 3.979 7.286 5 12h14l-1 2c-2.444.29-4.797.468-7.25.563-4.328.195-8.516.444-12.75 1.437v-1h-10l5 5c-4.596-1.487-7.47-3.798-11-7v-1l14-1 1.438-4.937c1.437-4.938 1.437-4.938 2.562-6.063"/><path fill="#8ec8f7" d="M282 194c10.878-.757 19.093 1.12 27.438 8.375 6.156 5.971 9.44 10.378 9.613 19.227q.015 3.699-.051 7.398h-1l-.445-2.309c-2.08-9.576-5.84-17.379-13.555-23.691-6.911-4.267-14.101-6.33-22-8z"/><path fill="#ddc99c" d="M254 276v2h-3v2l-1.984 1.145c-4.284 2.635-7.653 6.065-11.266 9.543l-4.566 4.324a712 712 0 0 0-7.086 6.82L223.812 304l-1.855 1.813c-2.876 1.745-4.65 1.7-7.957 1.187-2.809-2.012-2.809-2.012-5.437-4.687l-2.684-2.637C204 297 204 297 204.086 294.313c1.115-2.821 2.645-4.337 4.914-6.313l2 1-2.062 1.688c-2.166 2.114-2.166 2.114-2.063 4.687 1.551 3.62 3.79 6.478 7.125 8.625 2.988.347 4.481.352 7.001-1.358l1.925-1.896 2.166-2.092 2.22-2.216a3238 3238 0 0 1 4.364-4.254l2.163-2.118c2.725-2.605 5.543-5.085 8.399-7.545a164 164 0 0 0 3.444-3.058c3.125-2.79 3.942-3.463 8.318-3.463"/><path fill="#153454" d="M126 188v1l-17 2v3l-1.871.445c-7.47 1.979-13.313 5.229-19.137 10.305C86 206 86 206 83.75 205.688L82 205c6.334-8.388 14.572-14.122 24.875-16.578 6.35-.857 12.734-.638 19.125-.422"/><path fill="#105ba7" d="M314.855 286.09 318 287c-10.48 16.793-10.48 16.793-16.29 18.785-2.21.277-2.21.277-5.71.215 3-4.559 6.07-9.048 9.313-13.437.447-.65.895-1.299 1.357-1.967 3.46-4.616 3.46-4.616 8.185-4.506"/><path fill="#143b6a" d="M301 338.688c2.38 1.561 3.51 2.88 5 5.312.826 5.41.918 10.385-1.812 15.188-3.886 3.22-7.319 2.904-12.188 2.812v-1h6v-3l-3-1 5-2c.278-5.476.274-8.416-3-13l-1-3c3-1 3-1 5-.312"/><path fill="#eef2f5" d="M231.438 348.688c2.562.312 2.562.312 4.199 1.554 2.147 2.77 1.767 5.206 1.668 8.594-.385 2.732-1.321 4.263-3.305 6.164-2.375-.312-2.375-.312-5-1-2.167-3.25-2.272-4.292-2.25-8.062l-.016-2.66c.388-3.323 1.422-4.17 4.703-4.59"/><path fill="#ecf0f4" d="M163.5 348.563c2.5.437 2.5.437 4.313 1.5 1.868 3.049 1.549 5.438 1.187 8.937-1.187 2.938-1.187 2.938-3 5-2.5.563-2.5.563-5 0-2.749-2.37-2.987-3.874-3.375-7.5.48-4.489 1.148-7.11 5.875-7.937"/><path fill="#325879" d="m298 89 4 1q.508 3.061 1 6.125l.563 3.445c.407 3.191.515 6.218.437 9.43l-2 1-1 3h-45v-1h44l-1-20h-10v11h-1V91h10z"/><path fill="#f3f5f7" d="m29 335 3 1c-1.152 2.468-2.048 4.048-4 6-.243 2.21-.243 2.21-.125 4.625l.055 2.477L28 351c-9.41.369-9.41.369-14-2v-2a107 107 0 0 1 5.25-4.437c.975-.783 1.95-1.565 2.953-2.372L25 338l2.172-1.848z"/><path fill="#165c9c" d="M65 288c6.664 3.399 12.628 6.748 18 12v2c-7.907-.645-15.391-2.87-23-5l4-1-.062-3.437C64 289 64 289 65 288"/><path fill="#df6333" d="M242 255c6.137 3.848 11.807 8.156 17.462 12.665C265.8 272.69 272.377 277.36 279 282c-2.41.879-3.518 1.224-5.891.12l-1.93-1.393-2.12-1.5-2.184-1.602q-2.16-1.544-4.32-3.086l-1.923-1.4c-1.64-1.204-1.64-1.204-3.632-2.139l-1 3-.5-2.062c-3.401-6.661-9.624-10.503-16.5-12.938l3-1z"/><path fill="#103c6a" d="m323 153 5 1v25l-3 1v6c-2.145-3.47-2.174-6.048-1.977-10.078l.157-3.516.195-3.656.172-3.703q.212-4.524.453-9.047h-11v-1c.957-.09.957-.09 1.934-.184l2.503-.254c.824-.08 1.648-.162 2.497-.246 2.053-.105 2.053-.105 3.066-1.316"/><path fill="#0b3261" d="M316 334c3.5.313 3.5.313 7 1 1.495 2.99 1.116 5.7 1 9l-1 3c1.201 2.128 1.201 2.128 2.938 4.188l1.714 2.167L329 355c-2.562 1-2.562 1-6 1-2.714-2.379-4.858-5.104-7-8l1.063-2.187c1.061-3.186.936-4.648-.063-7.813l-2-3z"/><path fill="#f5f7f9" d="M293 342c2.985.153 4.538.602 6.813 2.563 1.783 3.66 1.514 6.38 1.187 10.437-2 2-2 2-5.125 2.125L293 357c-1.723-2.994-2.273-5.177-2.25-8.625l-.016-2.352C291 344 291 344 293 342"/><path fill="#053057" d="M215 71h20l-3 1v2h-14v12h-11V76h2v8h6z"/><path fill="#012e55" d="M301 102h1l1 7h1v6l-56 1v-1h8v-2h45z"/><path fill="#f65446" d="m95 198 4 2-1.574 1.031C88.985 206.898 85.043 213.973 83 224c-.486 3.996-.8 7.98-1 12-3.875-5.812-2.327-13.45-1.062-20.062C83.04 208.148 88.373 202.418 95 198"/><path fill="#355979" d="M304 115v1h-5v7h-1l-1-5-1 34h-12v12h-1v-13h12v-35h-35v-1q7.23-.254 14.46-.482 2.453-.08 4.907-.166c16.735-.587 16.735-.587 24.633.648"/><path fill="#ee4f42" d="M152 206c5.874.9 9.33 5.675 13 10 10.48 14.59 10.48 14.59 10 23h-2l-1.504-3.184c-5.33-11.094-10.739-20.05-20.496-27.816z"/><path fill="#335473" d="M209 151h1v12h3v-11h5v1l7 1v1h-8v12h-11v-12h1l1 7z"/><path fill="#133c64" d="M117 89h20v6l-2 2a90 90 0 0 0-1 6h-1V93h-12v10h-1V92h-2v7h-1z"/><path fill="#062f55" d="M113 88v11h5v-7h2v11h-10V91h-10c3.61-3.61 8.118-3.114 13-3"/><path fill="#2369a5" d="M333 288c1.642 3.283.519 6.425 0 10q-3.12 1.048-6.25 2.063l-3.516 1.16c-3.035.73-4.391.896-7.234-.223 2.99-4.225 6.33-6.753 10.75-9.312l1.824-1.088c1.47-.876 2.948-1.739 4.426-2.6"/><path fill="#02284d" d="M233 167h1l1 11 2.875-.187L241 178l2 3h-8l-.06 2.447c-.095 3.643-.205 7.285-.315 10.928-.03 1.271-.062 2.542-.094 3.852l-.117 3.671-.095 3.396C234 208 234 208 232 210q-.037-6.775-.055-13.55-.008-2.298-.02-4.596c-.047-8.346.028-16.558 1.075-24.854"/><path fill="#f5bb33" d="M199 26c2.01 3.015 2.726 5.215 3.625 8.688.26.993.52 1.987.79 3.011.192.76.386 1.519.585 2.301h10v1c-8.076 1.438-15.794 2.296-24 2v-1h5z"/><path fill="#0d365d" d="M255 153h1l1 9 1-9 3 1-1 2h2v11h-9c-.054-1.77-.093-3.541-.125-5.312l-.07-2.989C253 156 253 156 255 153"/><path fill="#3a5b82" d="M203 346h11c.195 6.836.195 6.836 0 9l-2 2h-4c-.125-3.375-.125-3.375 0-7l2-2-6-1v22h4v-8h1v9h-6z"/><path fill="#0b2f60" d="M83 339c2 2 2 2 2.195 4.164l-.07 2.461-.055 2.477L85 350c1.965-.345 1.965-.345 4-1 1.284-1.984 1.284-1.984 2-4-.497 4.973-1.553 8.638-4 13h-5c-.095-6.433-.153-12.658 1-19"/><path fill="#053159" d="M189 71h16l1 3h-14v12h-11v-1l7-1z"/><path fill="#01254c" d="M180.75 150.938 185 151v13l4 1c-3 2-3 2-7 2v-13h-13c4.04-2.693 6.955-3.133 11.75-3.062"/><path fill="#51acf5" d="m234 216 3 3-1.137 1.582c-4.069 5.853-7.092 11.859-9.863 18.418l-3-1c1.367-8.35 5.951-15.364 11-22"/><path fill="#042b52" d="m301 156 2 1v6h6v-6h3v10h-11z"/><path fill="#de592d" d="m156 255 1 3 3 1-3 1.063c-4.145 1.739-7.066 4.442-10.3 7.511C145 269 145 269 143 269v5h-1l-2-7a7664 7664 0 0 1 6.313-4.875l1.802-1.395c2.585-1.992 5.168-3.919 7.885-5.73"/><path fill="#05325a" d="M164 71h19c.195 8.398.195 8.398 0 11l-2 2-1-9-14-1v-2z"/><path fill="#0e2838" d="M222 240c4.119-.327 5.987.287 9.207 2.844l2.275 1.777 2.33 1.879 2.39 1.879q2.91 2.295 5.798 4.621l-1 2c-4.557-1.493-7.942-4.09-11.625-7.062-4.331-3.564-4.331-3.564-9.375-5.938z"/><path fill="#e3d678" d="m127 51 2 4h-2l-2 10-10 1 5 5c-4.596-1.487-7.47-3.798-11-7v-1l14-1 1.438-4.937c1.437-4.938 1.437-4.938 2.562-6.063"/><path fill="#ebd670" d="M270 51c1.547 4.717.18 8.28-1 13l-11 2 2 3c-4.324-1.402-5.073-2.097-8-6h14l.875-4.312c.663-3.269 1.222-4.833 3.125-7.688"/><path fill="#113b6d" d="M76 341h2c1.186 5.693.663 9.426-1 15h-5a709 709 0 0 1 .875-5.812l.492-3.27C74 344 74 344 76 341"/><path fill="#ef9618" d="m139 268 3 1c-3.69 3.942-7.517 6.916-12.062 9.813l-1.854 1.232c-3.395 2.184-4.94 2.955-9.084 2.955v-2l3.25-1.437c5.231-2.565 9.6-6.198 14.113-9.833z"/><path fill="#d41513" d="M81 213c.983 3.47.742 5.467 0 9-.119 2.597-.19 5.154-.187 7.75l-.002 2.139c.053 5.328.73 10.004 2.189 15.111-4.8-4.581-4.8-4.581-5.275-7.942a456 456 0 0 1-.037-7.183l-.05-2.477C77.635 223.437 78.8 218.53 81 213"/><path fill="#063057" d="M323 153h4v23l-2 1-1-20-11-1v-1c.957-.09.957-.09 1.934-.184l2.503-.254c.824-.08 1.648-.162 2.497-.246 2.053-.105 2.053-.105 3.066-1.316"/><path fill="#325677" d="M99 142h1l1 9-2 1zm-4 10 4 1-1 2h13v1H98v12H86v-1h11l-1-8h-1z"/><path fill="#e66a61" d="m115.063 192.813 3.097-.043c2.82.228 4.446.777 6.84 2.23l-2.71.113c-6.752.367-12.82.989-19.204 3.266C101 199 101 199 97 199v-2c6.165-2.78 11.225-4.144 18.063-4.187"/><path fill="#d6d390" d="m260 69 6 2-2 7 5-1c-5.645 5.802-5.645 5.802-9 8h-2l.691-2.23.872-2.957.878-2.918c.584-3.023.37-4.954-.441-7.895"/><path fill="#456785" d="M259 152c6.055-.195 6.055-.195 8 0l2 2c2.323.4 4.657.74 7 1v12h-1v-11h-12v11h-1v-11h-2z"/><path fill="#244a6d" d="M209 71v5h-2v10h11v1h-12V75h-14v-1l5-1v-1c4.085-.545 7.873-1 12-1"/><path fill="#3c5a78" d="M180 150h6v13h3v-12h1l1 12 1-8h1v12h-7l2-2-3-1v-13h-5z"/><path fill="#375b7c" d="M107 88v1l-5 1 8 1v12h-1V92H99v10h-1c-2.532-8.787-2.532-8.787-1-13 3.215-1.607 6.436-1.057 10-1"/><path fill="#1f4568" d="m232 72 4 1c.081 2.25.14 4.5.188 6.75l.105 3.797C236 87 236 87 233 91V75h-15v-1h14z"/><path fill="#e1891a" d="M258 269c3.286.487 5.44 1.802 8.11 3.723l2.285 1.63 2.355 1.71 2.402 1.72q2.93 2.1 5.848 4.217c-2.403.873-3.52 1.22-5.891.135l-1.93-1.373-2.12-1.487-2.184-1.587-2.207-1.553c-2.73-1.935-5.298-3.765-7.668-6.135z"/><path fill="#0f3356" d="M296 191c5.71.418 8.61 2.575 13 6l-3 3-9-4v-2l-3-1h2z"/><path fill="#89c5f3" d="M312 207c3 1 3 1 4.625 3.188 2.935 6.002 2.491 12.278 2.375 18.812h-1l-.516-2.344c-1.169-5.026-2.302-9.704-4.734-14.281L311 209z"/><path fill="#254b6d" d="M309 153h14l-1 2 2 2h-11v10h-1v-10h-3z"/><path fill="#04315a" d="m204 36 21 1c-2 4-2 4-5 6v-4h-16z"/><path fill="#096fdd" d="m296 269 2 1-1 3c-3.062 1.188-3.062 1.188-6 2v2l-10 3-1-2 3.246-1.715 4.192-2.223 2.142-1.13c3.425-1.657 3.425-1.657 6.42-3.932"/><path fill="#132334" d="M243 254c4.152.593 6.88 2.85 10.188 5.313l1.654 1.185c2.358 1.762 3.969 2.999 5.021 5.795L260 268c-3.996-1.74-7.318-4.36-10.75-7l-1.824-1.367c-1.515-1.161-2.976-2.392-4.426-3.633z"/><path fill="#d4d093" d="M120 71h3c-.523 2.763-1.109 5.326-2 8l4-1c-3.176 3.448-5.607 5.42-10 7q.966-2.938 1.938-5.875l1.09-3.305C119 73 119 73 120 71"/><path fill="#294759" d="M204 39h16c-1 5-1 5-2.559 6.582l-1.879 1.23-1.87 1.27C212 49 212 49 210 49l-2 3c0-2.125 0-2.125 1-5 2.525-2.28 5.178-4.074 8-6l-13-1z"/><path fill="#042b4f" d="M278 189v1l8 1v1q-3.312.507-6.625 1l-3.727.563c-3.265.391-6.365.518-9.648.437.813-1.937.813-1.937 2-4 3.473-1.158 6.36-1.069 10-1"/><path fill="#022a4e" d="M215 155c2.6 3.9 2.15 7.474 2 12h-10l1-3h6l-.062-3.937A59 59 0 0 1 214 156z"/><path fill="#96bcda" d="m338 285 2 1-1 1c-1.116 5.144-1.116 5.144 0 10h-6c-.312-3.187-.312-3.187 0-7 2.5-2.937 2.5-2.937 5-5"/><path fill="#1d3e5d" d="M126 188v1l-17 2v3l-6 1-1-5c7.906-2.635 15.769-2.18 24-2"/><path fill="#f64940" d="m82 212 1 3h2l-.937 3.75C82.78 224.452 82.374 230.179 82 236c-3.816-5.723-2.297-13.186-1-19.687.322-1.44.652-2.88 1-4.313"/><path fill="#08294d" d="M309.813 198.563c2.121 1.394 3.243 2.605 4.812 4.562L317 206h2v2h-3l-1 2q-1.69-1.904-3.375-3.812l-1.898-2.145C308 202 308 202 306 199c2-1 2-1 3.813-.437"/><path fill="#fafcfd" d="M116 151h3v13h-4a535 535 0 0 1-.062-4.25l-.036-2.39c.094-2.267.466-4.189 1.098-6.36"/><path fill="#dfd485" d="M189 50h2v8l5-2c-3.382 3.68-6.425 5.979-11 8q.718-2.657 1.438-5.312l.808-2.989A121 121 0 0 1 189 50"/><path fill="#d1c97d" d="M198 25h1q-.176 2.063-.375 4.125c-.07.766-.14 1.531-.21 2.32C198 34 198 34 196 40l-18 1-1-2 16-1z"/><path fill="#264a6c" d="M121 152h19v3l-2 1c-.658 3.03-.658 3.03-1 6h-1v-6h-13v-1l11-1-13-1z"/><path fill="#254c6f" d="M261 90h11v1l5 1v1h-12v10h-1V93h-2v6h-1z"/><path fill="#2d5172" d="M122 90h14v7h-1l-1 6h-1V93h-12z"/><path fill="#7da9cd" d="m65 288 5 3-1 6h-9l4-1-.062-3.437C64 289 64 289 65 288"/><path fill="#efe9b0" d="M223 241c4.294 2.437 5.56 4.917 6.875 9.5.956 3.664 1.157 5.888.125 9.5q-1.755-4.185-3.5-8.375l-1.012-2.406-.957-2.305-.888-2.126C223 243 223 243 223 241"/><path fill="#f0372f" d="M82 224h1l.184 2.71c.492 7.111 1.049 14.204 1.816 21.29-3.291-2.976-4.028-5.663-5-10-.125-2.937-.125-2.937 0-5h1z"/><path fill="#284c6c" d="m136 113 5 1v2h-37v-1h32z"/><path fill="#203245" d="M176 241c-1.448 2.896-3.64 3.806-6.375 5.5l-2.96 1.844L164 250l-3 2v-4c2.012-1.922 2.012-1.922 4.688-3.75l2.636-1.86c2.861-1.486 4.505-1.687 7.676-1.39"/><path fill="#284d6e" d="M114 152h1v12h4v-12h1l1 14h-10l1-4h1z"/><path fill="#073061" d="M259 343h4c.167 4.921.248 8.503-2 13-2-2-2-2-2.195-4.602l.07-3.023.055-3.04z"/><path fill="#1f466b" d="M248 152h9v10h-1l-1-5h-1l-1 10h-1v-13l-4-1z"/><path fill="#032d5f" d="M249 353h1c.953 4.763 1.083 9.167 1 14h-4a337 337 0 0 1-.125-4.75l-.07-2.672c.204-2.692.83-4.277 2.195-6.578"/><path fill="#6bb6f7" d="m244 206 3 3q-1.904 1.69-3.812 3.375l-2.145 1.898C239 216 239 216 236 218c0-4 0-4 1.75-6.14l2.25-2.11 2.25-2.14z"/><path fill="#154262" d="m127 46 3 3-2 4-1-1-3 10-2-2c.252-5.296 2.513-9.442 5-14"/><path fill="#8bc7f7" d="M270 195v2q-2.654 1.008-5.312 2l-2.989 1.125C259 201 259 201 256 201c1-3 1-3 2.672-3.95 3.891-1.382 7.13-2.444 11.328-2.05"/><path fill="#c4daec" d="m60 285 5 3-1 8-4-1z"/><path fill="#e5594e" d="M121 193q2.625.174 5.25.375c.975.07 1.95.14 2.953.21 2.693.4 4.467 1.05 6.797 2.415l-7-1v2l-18-1v-1l10-1z"/><path fill="#0d69d2" d="M316 250h2c-1.416 6.136-5.066 10.267-9 15l-2-2 1.715-2.336 2.223-3.039 2.214-3.023c1.826-2.43 1.826-2.43 2.848-4.602"/><path fill="#0b2e4c" d="M249.813 199.25 252 200c-2.808 2.964-5.183 5.445-9 7l-1-4c4.308-4.062 4.308-4.062 7.813-3.75"/><path fill="#d1c37a" d="M208 52c1.903 2.855 2.462 4.42 3.125 7.688l.508 2.449L212 64c-3.283-1.49-5.93-3.386-8.75-5.625l-2.422-1.914L199 55c3.396 0 4.066.522 6.688 2.5l1.886 1.406L209 60z"/><path fill="#154364" d="m186 46 4 2q-.676 2.94-1.375 5.875l-.773 3.305C187 60 187 60 185 62a98.4 98.4 0 0 1 1-16"/><path fill="#d9e0e8" d="m208 350 5 1c.625 1.875.625 1.875 1 4l-2 2h-4z"/><path fill="#d5c174" d="M254 276v2h-3v2a157 157 0 0 1-5 3 207 207 0 0 0-5 4c0-3 0-3 1.828-5.043l2.422-2.144 2.39-2.168C250 276 250 276 254 276"/><path fill="#2b87bc" d="M318 215c4.818 7.227 4.228 14.582 4 23h-1v-9h-2z"/><path fill="#00264d" d="m259 153 2 1-1 2h2v11h-9v-1h8l-2-3c-.195-2.48-.195-2.48-.125-5.187l.055-2.731z"/><path fill="#d2bc89" d="m174 299 2.563 2.5c2.762 2.34 3.437 2.5 7.312 2.813L187 304c-1.642 2.074-2.658 2.914-5.25 3.563-4.214-.862-6.72-3.63-9.75-6.563z"/><path fill="#d1b583" d="M225 298h3c-1.432 4.295-4.226 6.583-8 9-3.437.375-3.437.375-6 0 1-2 1-2 3.25-2.812 2.965-1.08 2.965-1.08 5.375-3.813z"/><path fill="#03325d" d="m265 58 1 4h-15l1 4c-1.937-.812-1.937-.812-4-2l-1-3h17z"/><path fill="#d6dee6" d="M313 338h5c.625 2.375.625 2.375 1 5l-2 2h-3z"/><path fill="#4f8cbc" d="M333 288c1.642 3.283.519 6.425 0 10h-4c-.25-3.312-.25-3.312 0-7 2-1.937 2-1.937 4-3"/><path fill="#f4e05b" d="M262 280c4.824-.193 8.496.243 13 2v1h-15l2-1z"/><path fill="#efe9aa" d="M174 242c1.236 3.708.568 4.675-.937 8.188l-1.153 2.73L171 255h-1a176 176 0 0 1-.25-4.812l-.14-2.708c.39-2.48.39-2.48 2.406-4.304z"/><path fill="#0f3a5d" d="M200 24h2c2.243 5.203 3.556 8.343 2 14-3.265-3.265-3.932-7.41-4.125-11.937z"/><path fill="#32a8ea" d="m228 225 1 4h-2l.063 3.875c.062 3.875.062 3.875-1.063 6.125l-3-1c.607-4.86 2.728-8.74 5-13"/><path fill="#f56153" d="M129 195c1.418.115 2.834.243 4.25.375.789.07 1.578.14 2.39.21 2.446.43 4.208 1.201 6.36 2.415v2c-4.571-.549-8.674-1.417-13-3z"/><path fill="#204363" d="m271 190-4 2v3c-2.375.625-2.375.625-5 1l-2-2 1-3c3.653-1.623 6.194-2.464 10-1"/><path fill="#365879" d="M163 72h3v2h14v1h-14v9h-1v-9h-2z"/><path fill="#16313d" d="M222 240c3.603-.412 4.784-.154 7.813 2l2.187 2-1 4a729 729 0 0 1-3.937-2.875l-2.215-1.617C223 242 223 242 222 240"/><path fill="#f1675b" d="M109 193c1.916-.054 3.833-.093 5.75-.125l3.234-.07C121 193 121 193 125 195l-17 1z"/><path fill="#012b50" d="M139 113h13l-2 1v2h-9v-2z"/><path fill="#1b416f" d="m92 352 2 3 3-1-1 6h-5z"/><path fill="#1c4575" d="m107 332 10 1-4 5c-3.785-1.514-4.007-2.014-6-6"/><path fill="#e7cc89" d="M162 290c3.875.55 5.596 2.276 8.25 5.063l2.14 2.222L174 299l-3 1a1766 1766 0 0 1-4.5-4.437l-2.531-2.497C162 291 162 291 162 290"/><path fill="#fceb6b" d="M135 279v4h-12c3.256-3.256 7.477-4 12-4"/><path fill="#073468" d="m325 259 2 1c-.37 2.741-.686 4.586-2.375 6.813C323 268 323 268 320 268c1.498-3.112 3.2-6.053 5-9"/><path fill="#f06153" d="m95 198 4 2c-2.008 1.65-3.513 2.882-6.062 3.5-2.38.614-3.35 1.673-4.938 3.5l-2-1z"/><path fill="#063666" d="m142 84-1 16h-4l1-3v2h2a485 485 0 0 0-.375-5.437c-.07-1.01-.14-2.02-.21-3.06-.138-.825-.274-1.652-.415-2.503l-2-1v-2c3-1 3-1 5-1"/><path fill="#fcba2f" d="M114 65h10l-3 6a698 698 0 0 1-3.5-2.437l-1.969-1.372L114 66z"/><path fill="#274c78" d="M108 359h7v5l-9-1z"/><path fill="#183c69" d="m73 347 2 3h2v6h-5z"/><path fill="#022951" d="M213 151c5.778-.236 10.513.132 16 2v1c-1.916.081-3.833.14-5.75.188l-3.234.105c-3.316-.322-4.606-1.064-7.016-3.293"/><path fill="#e8d778" d="m260 69 6 2-2 9h-2l-.184-1.898-.253-2.477-.247-2.46c-.207-2.208-.207-2.208-1.316-4.165"/><path fill="#fdcc23" d="m138 272 2 1c-1.375 1.5-1.375 1.5-3 3h-2v2c-2.25 1.688-2.25 1.688-5 3-2.172-.418-2.172-.418-4-1l2.371-1.496 3.066-1.942 3.06-1.933c2.349-1.405 2.349-1.405 3.503-2.629"/><path fill="#1fb0f5" d="M318 229h3v9l-3 1z"/><path fill="#032f57" d="M285 153c10.558-.185 10.558-.185 15 1v1h-13l-1 2z"/><path fill="#fefefe" d="M280 152h2l1 11h-3z"/><path fill="#0e385b" d="M102 140h1v12h2v2h-7l1.457-1.672c1.783-2.69 2.02-4.386 2.23-7.578l.2-2.703z"/><path fill="#ddd385" d="M252 63h11c-3 2-3 2-5 3l2 3c-4.324-1.402-5.073-2.097-8-6"/><path fill="#e4a51a" d="M131 278a288 288 0 0 1-3.75 2.5l-2.11 1.406C123 283 123 283 119 283v-2a205 205 0 0 1 3.75-2.062l2.11-1.16c2.501-.91 3.673-.661 6.14.222"/><path fill="#032f62" d="M94 346c2.624 3.061 3 3.732 3 8l-4 2c-.125-6.625-.125-6.625 1-10"/><path fill="#274d79" d="M166 344c-3.883 2.589-7.793 4.974-12 7 2.48-5.993 5.631-7.434 12-7"/><path fill="#4a86b6" d="m70 291 3 1-1 6h-7l4-1-.062-2.437C69 292 69 292 70 291"/><path fill="#192537" d="m160 249 1 3c-2.25 2.063-2.25 2.063-5 4l-4-1z"/><path fill="#f0991d" d="M219 40c-2.834 3.254-4.686 4.52-9 5 .313-1.937.313-1.937 1-4 2.928-.976 4.956-1.082 8-1"/><path fill="#e1d48b" d="M269 76c5.442.34 8.937 3.703 13 7l-1 2a1863 1863 0 0 1-6-3.937l-1.734-1.131A176 176 0 0 1 269 77z"/><path fill="#033563" d="m121 59 2 1v2l-19 1v-2l3.465-.184 4.472-.254 2.288-.119c3.694.117 3.694.117 6.775-1.443"/><path fill="#0f4069" d="m116 69 4 2-2 7-2-1c-1.275-5.45-1.275-5.45 0-8"/><path fill="#1b3d59" d="m286 65 2 1c-2.043 3.065-3.664 4.493-7 6l-2 2v-4c1.531-1.484 1.531-1.484 3.5-2.75l1.969-1.297z"/><path fill="#18416f" d="m195 346 4 1v4l-7-1 2-1z"/><path fill="#c70b0e" d="M80 242c1.523 2.937 2.801 5.917 4 9l-2 2c-3.077-5.292-3.077-5.292-2.687-8.875z"/><path fill="#65bdf4" d="M317 213h1c1.129 5.361 1.097 10.553 1 16h-1c-2.48-10.374-2.48-10.374-1-16"/><path fill="#03325c" d="M184 58h1l-1 7h2l-1 3h-3c.875-7.75.875-7.75 2-10"/><path fill="#f78919" d="M258 269c2.962.613 4.38 1.254 7 3l-1 3-7-4z"/><path fill="#e5d041" d="M231 259h6l-4 6-2-1z"/><path fill="#143d64" d="m298 89 4 1-2 9h-1z"/><path fill="#bfcad9" d="M93 344h1c-.352 5.461-.352 5.461-1 8-2.062 1.5-2.062 1.5-4 2 1.11-3.487 2.263-6.775 4-10"/><path fill="#ebdd51" d="M169 253h1c-.508 4.318-1.197 8.033-3 12l-2-1 1-5h2z"/><path fill="#c46a35" d="m156 255 1 3 3 1-6 2-2-3z"/><path fill="#0a3468" d="M115 349v4c-2.437-.375-2.437-.375-5-1l-1-2c2-1 2-1 6-1"/><path fill="#2f5480" d="M267 342c3.344.557 6.033 1.352 9 3l-1 2-8-1z"/><path fill="#5db1f9" d="m239 211 2 3-5 4c0-4 0-4 1.5-5.75z"/><path fill="#fce171" d="M120 71h3c-.61 3.558-1.578 6.683-3 10-1.238-3.576-.75-6.337 0-10"/><path fill="#09325e" d="M109 65c4.677 1.477 4.677 1.477 6.313 4.125L116 71c-4.677-1.477-4.677-1.477-6.312-4.125z"/><path fill="#e6af39" d="M271 53c1.945 2.918 2.453 4.625 3 8h-4c-.125-5.75-.125-5.75 1-8"/><path fill="#d8d58e" d="m127 51 2 4h-2l-1 5h-2z"/><path fill="#0a3665" d="m272 50 2 1c.73 2.314 1.401 4.648 2 7l-3 1z"/><path fill="#184363" d="m270 46 3 3-2 4-3-3z"/><path fill="#2f71aa" d="m73 293 2 1-1 5h-6l4-1z"/><path fill="#accae2" d="m61 286 4 2-1 7c-2.762-2.762-2.579-5.207-3-9"/><path fill="#102947" d="m156 204 4 2-1 4-4-4z"/><path fill="#ebdc84" d="M189 50h2c.125 2.875.125 2.875 0 6l-2 2c-.8-3.287-1.097-4.71 0-8"/><path fill="#012858" d="M167 365v3h-7l1-3c2.575-.997 3.49-1.255 6 0"/><path fill="#032b5e" d="M78 345v6h-4v-4c3-2 3-2 4-2"/><path fill="#bd6028" d="m254 267 6 1-2 2a89 89 0 0 0-2 4z"/><path fill="#0d56b9" d="m307 264 2 2-6 5c0-3 0-3 2-5.187z"/><path fill="#082847" d="M232 245c2.468 1.152 4.048 2.048 6 4-1.875.625-1.875.625-4 1l-2-2z"/></svg>