<svg xmlns="http://www.w3.org/2000/svg" width="400" height="473"><path fill="#0a294b" d="M0 0h400v473H0z"/><path fill="#fbfafc" d="M0 0h400v473H0zm186.188 7.625a302 302 0 0 1-27.211 10.685c-2.669.932-5.297 1.957-7.93 2.982-8.499 3.299-17.108 5.83-25.92 8.146-1.957.517-3.91 1.05-5.861 1.585-16.909 4.615-33.862 8.5-51.178 11.235-2.721.43-5.44.876-8.158 1.322-9.644 1.562-19.27 2.884-28.999 3.79-3.142.297-5.924.628-8.931 1.63-.898 49.614-.898 49.614 3 99l.264 1.972C28.65 175.195 32.575 200.922 41 225q.726 2.26 1.445 4.523C47.03 243.624 53.372 256.76 60 270l1.025 2.056Q62.011 274.029 63 276l-1.665-.794a8607 8607 0 0 0-7.523-3.581l-2.619-1.25c-1.261-.6-1.261-.6-2.548-1.21l-2.333-1.112c-2.41-1.097-4.847-2.088-7.312-3.053-.17 5.531.483 10.622 1.438 16.063A201 201 0 0 1 43 305c-12.796-3.461-24.364-7.635-36-14l-2-1c.572 5.575 2.602 10.016 5 15l1.193 2.522c2.932 6.051 6.262 11.688 10.239 17.113 1.111 1.58 1.111 1.58 2.568 4.365-.783 4.295-5.02 6.848-8.25 9.5l-1.7 1.434c-2.732 2.278-5.466 4.378-8.472 6.285L3 348v2c14.084 5.307 26.915 8.075 42 9v4c3.705 1.365 7.36 2.317 11.227 3.07l2.713.532L61 367c-.095 1.048-.19 2.095-.29 3.174-2.086 19-2.086 19 3.129 36.662 5.26 4.73 11.748 7.108 18.287 9.595 4.252 1.658 8.247 3.729 12.272 5.87l2.18 1.158q2.215 1.177 4.428 2.357c3.75 1.978 7.533 3.888 11.318 5.797l6.607 3.338c3.12 1.581 6.228 3.181 9.339 4.78 12.685 6.48 25.51 12.524 38.542 18.269l2.13.94a977 977 0 0 0 12.077 5.213c2.033.87 4.056 1.76 6.08 2.652l3.975 1.695 3.53 1.531c6.134 1.75 10.983-.028 16.658-2.515l3.595-1.564 3.83-1.702 4.029-1.77C262.736 444.844 302.053 425.755 340 404c.114-12.715.017-25.32-1-38l2.195-.148c5.22-.404 9.903-.865 14.805-2.852v-4l3.398.105c4.878-.005 9.461-.811 14.227-1.793l2.628-.53c7.535-1.594 14.609-3.898 21.747-6.782-1.32-3.96-3.886-5.438-7.125-7.812a1768 1768 0 0 1-3.55-2.668l-1.734-1.303c-2.978-2.278-5.782-4.735-8.591-7.217 2.29-4.867 4.837-9.351 7.75-13.875 3.392-5.427 6.16-10.962 8.75-16.812.35-.791.7-1.582 1.062-2.396 1.793-3.818 1.793-3.818 2.438-7.917-1.982.978-3.944 1.969-5.875 3.043-5.932 3.195-12.093 5.487-18.437 7.707l-2.643.927c-4.006 1.376-7.872 2.553-12.045 3.323 1.89-22.77 1.89-22.77 3.633-31.562.427-2.838.425-5.573.367-8.438-5.338 1.992-10.323 4.65-15.38 7.254C341.211 275 341.211 275 339 275l1.8-3.207c14.588-26.513 23.441-54.415 30.012-83.855l.555-2.478c3.32-15.697 5.271-31.75 6.82-47.71l.265-2.693C381.15 106.486 380.362 77.662 380 49c-10.927-1.395-10.927-1.395-21.871-2.64-22.871-2.468-46.03-5.96-68.048-12.761-2.49-.716-4.999-1.307-7.519-1.908-7.881-1.949-15.555-4.493-23.25-7.066l-2.334-.777c-37.603-12.55-37.603-12.55-52.214-19.986-6.368-3.112-12.78 1.082-18.577 3.763"/><path fill="#0b4da5" d="M202.76 10.784a198 198 0 0 1 9.092 3.677l3.332 1.43q3.407 1.47 6.812 2.945c6.39 2.738 12.777 5.198 19.404 7.304 2.444.808 4.794 1.729 7.163 2.735C287.686 44.759 330.393 50.848 372 56c.772 45.575.713 91.388-10 136l-.577 2.462c-1.32 5.56-2.83 11.051-4.423 16.538l-.887 3.096C352.309 227.27 348.299 239.806 342 252a715 715 0 0 0-1.863 3.895c-7.49 15.648-16.634 29.343-27.875 42.55-1.455 1.744-1.455 1.744-3.262 4.555-2.383.512-2.383.512-5.125.687l-2.758.2L299 304c5.442-7.303 5.442-7.303 8.238-10.793 14.82-18.65 25.247-39.416 33.742-61.57q1.102-2.845 2.245-5.675c3.044-7.648 5.389-15.281 7.338-23.275l.9-3.648c2.601-10.797 4.54-21.649 6.176-32.629.295-1.973.614-3.942.94-5.91 3.146-19.084 4.926-38.177 5.421-57.5l.132-5.003c.315-11.999.6-23.998.868-35.997l-1.846.075c-8.496.185-16.718-.923-25.091-2.2l-2.245-.336c-44.274-6.673-87.684-19.505-128.65-37.6-2.37-1.026-4.77-1.98-7.168-2.939v32h21c-1.796 4.49-2.652 6.025-5.937 9.187l-2.09 2.043c-4.277 3.837-5.728 3.878-11.973 4.77l-1 59 11 1c1.934 3.868 2.233 5.15 2.125 9.25l-.055 2.703L213 141l2.438.312c2.923.565 5.352 1.298 8.125 2.313 4.724 1.618 4.724 1.618 9.437.375 1.89-1.894 3.393-3.842 5-6 4.619.54 7.524 2.44 11.313 5.062l3.238 2.223L255 147c-1.2 8.905-5.394 13.97-12.328 19.457-1.94 1.54-1.94 1.54-2.672 4.543-1.312 1.75-1.312 1.75-3 3-3.892-.484-7.143-2.564-10.562-4.375-10.806-5.498-21.23-8.063-33.438-6.625-2.874 1.197-2.874 1.197-5 3l-1 3c-1.785.773-1.785.773-4.062 1.375-4.29 1.281-7.629 3.116-11.31 5.637C170 177 170 177 168 177l1.277 2.105c5.346 9.925 5.634 18.965 5.613 30.06-.093 1.854-.093 1.854 1.11 2.835.307 5.121-.553 9.117-2 14-.365 2.505-.365 2.505 0 5 1.375 1.8 1.375 1.8 3.375 3.25.727.59 1.454 1.18 2.203 1.79.8.646 1.599 1.293 2.422 1.96a643 643 0 0 1 5.125 4.625c2.75 2.495 5.51 4.905 8.438 7.187 3.244 2.913 3.244 2.913 3.437 6.188l.375 3.25c-.436 4.364-1.797 6.42-4.379 9.855-1.27 2.415-.754 3.358.004 5.895l1.68.06c2.524.096 5.047.205 7.57.315.873.03 1.745.062 2.645.094l2.558.117 2.349.095c2.42.351 4.032 1.216 6.198 2.319 4.533.439 6.926.537 11-1.5 3.177-2.648 6.049-5.463 8.93-8.426 2.57-2.574 5.29-4.919 8.074-7.258 2.074-1.813 2.074-1.813 3.96-4.101 1.922-2.218 3.6-4.073 6.036-5.715 3.334-.13 5.944.74 9 2l3 1-.437 1.687L267 258l-.875 2.375c-.149 3.12.372 3.614 2.313 5.937L271 269c-1.589 3.79-3.974 6.372-6.812 9.312l-2.583 2.739C259 283 259 283 256.363 282.918 254 282 254 282 251 280c-5.486 0-9.368 2.85-13.828 5.723C235 287 235 287 233 287l1 11c-6.9 3.056-12.468 4.57-20 5l-3-9-19 1-4 8c-6.69-.54-12.635-1.887-19-4-1.005-4.311-.771-7.628 0-12l-1.937-.688c-2.707-1.16-4.994-2.476-7.5-4-3.11-1.759-4.276-2.317-7.938-2.25-2.804.882-2.804.882-5.625 2.938-3.765-.056-5.737-2.423-8.262-4.998l-1.488-1.565-1.535-1.576A610 610 0 0 1 131 271c1.79-4.813 1.79-4.813 3.688-6.5L136 263c-.264-3.434-1.44-5.977-3-9 4.397-2.051 8.12-3.225 13-3 4.712 2.747 8.168 7.28 11.642 11.405 5.014 5.888 9.903 8.668 17.358 10.595l-2.336-2.336L162 260h2c-2.414-4.557-5.503-7.847-9.187-11.375l-1.635-1.691c-3.117-3.005-3.117-3.005-7.177-4.095-2.057.248-3.994.648-6.001 1.161-5.034.955-9.772 1.119-14.875 1.062l-2.375-.013q-2.875-.02-5.75-.049l-1-2-2-1c5.643-5.269 11.275-10.493 17.313-15.313 6.03-4.85 11.606-10.145 17.234-15.449 2.59-2.44 5.208-4.836 7.89-7.176l1.778-1.554c1.323-1.117 2.674-2.201 4.039-3.266l2.246-1.805 2.031-1.566c2.133-2.717 1.871-4.495 1.469-7.871-5.61-14.87-19.24-26.75-33-34a161 161 0 0 0-5-2l3-4c-14.512-3.92-29.017-5.72-42.875 1.098C85.103 152.155 80.998 155.706 77 160l-1.77 1.863c-9.06 10.712-10.548 24.15-9.534 37.612.863 7.169 2.588 15.91 6.98 21.755 1.928 2.577 1.225 4.858 1.113 7.946.683 9.138 5.239 18.674 9.211 26.824l1.676 3.54c6.559 13.65 14.206 26.318 23.833 38.033 2.035 2.484 3.465 4.348 4.491 7.427-3.025.1-5.978.096-9 0l-2.695-.023c-6.193-.512-9.208-2.313-13.242-7.04a170 170 0 0 1-3.748-5.096c-1.343-1.88-2.74-3.707-4.15-5.536C66.7 269.48 57.144 249.085 50 228l-.732-2.149c-1.54-4.585-2.942-9.2-4.268-13.851l-.612-2.127c-6.986-24.585-10.569-49.3-12.981-74.68-.33-3.458-.705-6.91-1.098-10.361-1.596-15.079-1.489-30.185-1.496-45.332l-.004-3.487q.002-4.928.023-9.857l.004-3.058.019-2.791.011-2.457C29 56 29 56 30 55a95 95 0 0 1 4.863-.648l3.094-.353 3.356-.374c28.424-3.328 152.002-45.524 161.446-42.841"/><path fill="#053d86" d="M200 19c11.198 3.36 11.198 3.36 15.617 5.277l3.032 1.289 3.226 1.372C245.829 36.89 270.708 45.207 296 51l2.739.642c12.93 2.993 25.95 5.177 39.074 7.108l2.199.324c8.31 1.216 16.61 2.29 24.988 2.926.128 27.463.181 54.616-2.875 81.938l-.246 2.217c-1.167 10.387-2.84 20.596-4.879 30.845l-.595 3.117c-3.501 18.305-7.48 37.075-15.182 54.137-1.426 3.201-2.619 6.465-3.848 9.746-7.28 18.64-18.46 36.481-31.426 51.688-1.914 2.2-1.914 2.2-3.304 4.25-2.928 4.156-5.767 5.001-10.56 5.835C290 306 290 306 287 306c1.38-3.061 2.998-5.284 5.27-7.746 16.134-18.078 27.29-41.38 34.73-64.254l1.086-3.293c1.07-3.404 1.914-6.125 1.914-9.707l-1.031 1.871C319.847 238.81 306.478 249.34 289 255a322 322 0 0 1-4.75.563c-3.323.608-4.09 1.221-6.145 4.003A97 97 0 0 0 274 268l-2.312-2c-2.53-2.299-2.53-2.299-5.688-2-.687-1.625-.687-1.625-1-4 1.438-3.25 1.438-3.25 3-6-4.15-1.81-7.48-2.579-12-2-4.915 3.162-8.659 7.913-12.467 12.284-2.888 3.232-6.206 5.954-9.533 8.716l-1.742 1.488c-4.36 3.703-6.408 4.622-12.188 4.742-2.07-.23-2.07-.23-3.926-1.22-2.34-1.102-3.945-1.302-6.515-1.389l-2.49-.103-2.577-.08c-10.254-.368-10.254-.368-14.562-1.438v-1h5v-2l-2-1 1.094-1.504c3.176-4.65 4.672-7.693 3.906-13.496-1.358-5.387-5.016-7.979-9.125-11.375l-2.043-1.747c-2.825-2.41-5.657-4.748-8.637-6.964-2.045-1.55-3.715-2.818-5.195-4.914-.534-4.329.642-7.927 2-12 .167-3.583.167-3.583 0-7l-1-1a71 71 0 0 1-.14-4.34c.035-13.048.035-13.048-4.801-24.918C168 180 168 180 168 177c5.7-4.287 11.774-7.836 19-8l.188-1.812c1.176-3.169 2.805-3.73 5.812-5.188 13.81-2.019 27.597 2.096 39.082 9.766 2 1.399 2 1.399 4.918 2.234l1-3h2l.23-1.766c1.03-2.987 2.621-4.034 5.083-5.984 5.473-4.664 8.088-9.301 9.687-16.25l-2.215-.8c-3.594-1.548-6.469-3.737-9.601-6.055-2.085-1.334-2.085-1.334-4.29-1.012-2.195 1.005-3.183 2.022-4.644 3.93L232 146c-4.189-.76-8.225-1.878-12.312-3.062l-3.801-1.098L213 141c-.09-1.065-.09-1.065-.184-2.152l-.254-2.786c-.08-.916-.162-1.833-.246-2.777-.076-2.247-.076-2.247-1.316-3.285a74 74 0 0 0-4.473-.316l-2.724-.127-2.865-.12-2.877-.13q-3.53-.16-7.061-.307l-1-3h10l-.007-2.233q-.03-10.396-.045-20.793-.007-5.345-.023-10.691c-.013-4.093-.018-8.186-.023-12.28l-.015-3.894v-3.58l-.007-3.169C200 67 200 67 201 66h2.938c5.944-.738 10.184-5.796 14.062-10l3-5h-21z"/><path fill="#f7f8f9" d="M66 304c7.274.546 14.337 1.517 21.5 2.875 10.933 1.992 21.887 3.276 32.938 4.414 4.626.478 9.222 1.074 13.828 1.727 8.147 1.1 16.28 1.687 24.484 2.109l2.401.125c35.646 1.799 71.36 1.724 106.849-2.25l2.052-.227c16.562-1.846 33.01-4.318 49.42-7.198l3.567-.622 3.131-.557c2.656-.372 5.153-.471 7.83-.396 3.088 8.51 5.038 17.257 7.063 26.063q.793 3.423 1.59 6.847l.978 4.23a345 345 0 0 0 2.484 10.104C347 355 347 355 347 359c-8.08 2.448-16.076 3.896-24.437 5l-7.52 1.027-3.674.5c-2.822.396-5.632.824-8.443 1.29-14.59 2.41-29.3 3.616-44.033 4.786-3.573.284-7.142.599-10.712.923-15.503 1.36-30.9 1.786-46.459 1.735-3.851-.011-7.702 0-11.554.012-14.644.009-29.083-.586-43.655-2.03-3.492-.338-6.988-.61-10.486-.884-14.87-1.248-29.59-3.03-44.34-5.296l-2.415-.368C77.42 363.877 65.712 361.568 54 359c.357-7.75 1.565-14.76 3.68-22.223 1.84-6.532 3.434-13.129 5.07-19.714l.963-3.868Q64.86 308.598 66 304"/><path fill="#041a34" d="M240.25 134.625c5.268 1.932 9.32 4.985 13.75 8.375l3.125 2.125C259 147 259 147 259.117 149.617L259 152l2.09-.988 2.848-1.325 2.777-1.3c7.51-3.17 13.9-4.925 22.098-4.824l2.65.022c12.844.326 22.858 4.973 32.224 13.665 10.364 10.917 13.752 24.272 13.583 38.977-1.234 17.267-10.344 34.297-23.301 45.535-8.46 6.663-18.918 12.604-29.719 13.8-3.323.609-4.09 1.222-6.145 4.004A97 97 0 0 0 274 268l-2.312-2c-2.53-2.299-2.53-2.299-5.688-2-.687-1.625-.687-1.625-1-4 1.438-3.25 1.438-3.25 3-6-4.15-1.81-7.48-2.579-12-2-4.915 3.162-8.659 7.913-12.467 12.284-2.888 3.232-6.206 5.954-9.533 8.716l-1.742 1.488c-4.36 3.703-6.408 4.622-12.188 4.742-2.07-.23-2.07-.23-3.926-1.22-2.34-1.102-3.945-1.302-6.515-1.389l-2.49-.103-2.577-.08c-10.254-.368-10.254-.368-14.562-1.438v-1h5v-2l-2-1 1.094-1.504c3.176-4.65 4.672-7.693 3.906-13.496-1.358-5.387-5.016-7.979-9.125-11.375l-2.043-1.747c-2.825-2.41-5.657-4.748-8.637-6.964-2.045-1.55-3.715-2.818-5.195-4.914-.534-4.329.642-7.927 2-12 .167-3.583.167-3.583 0-7l-1-1a71 71 0 0 1-.14-4.34c.035-13.048.035-13.048-4.801-24.918C168 180 168 180 168 177c5.7-4.287 11.774-7.836 19-8l.188-1.812c1.176-3.169 2.805-3.73 5.812-5.188 13.81-2.019 27.597 2.096 39.082 9.766 2 1.399 2 1.399 4.918 2.234l1-3h2l.23-1.766c1.03-2.987 2.621-4.034 5.083-5.984 5.473-4.664 8.088-9.301 9.687-16.25l-2.215-.8c-3.594-1.548-6.469-3.737-9.601-6.055-2.085-1.334-2.085-1.334-4.29-1.012-2.195 1.005-3.183 2.022-4.644 3.93L232 146c-3.344-.557-6.033-1.352-9-3v-1l3.625.438c2.228.115 2.228.115 4.375-.438 1.687-1.573 1.687-1.573 3.063-3.562 2.58-3.397 2.58-3.397 6.187-3.813"/><path fill="#012a5f" d="m109.75 143.625 2.363.02c7.164.164 14.408 1.115 20.887 4.355v4l1.652.848C149.507 160.745 162.345 172.31 169 188c.648 2.988.648 2.988 0 6-2.046 2.646-4.473 4.759-7 6.938l-2.094 1.875A576 576 0 0 1 154 208l-2.426 2.148a391 391 0 0 1-3.699 3.223c-2.263 1.966-4.472 3.986-6.687 6.004-4.357 3.936-8.862 7.648-13.426 11.34-4.38 3.623-8.575 7.443-12.762 11.285h2v3c8.888-.388 17.34-.835 26-3 2.992-.304 4.464-.344 7.02 1.298l1.933 1.807 2.125 1.983 2.172 2.1 2.219 2.04c3.818 3.624 5.612 5.52 6.531 10.772 2.206 2.69 2.206 2.69 4.938 5.188l2.714 2.605L175 272l2 2c-8.615-1.026-13.595-5.118-19.625-10.937l-1.984-1.881-1.93-1.834-1.844-1.75C150 256 150 256 147.898 253.511c-1.858-1.81-1.858-1.81-4.695-1.465l-2.953.703-2.984.672L135 254c-.277 3.185-.277 3.185 2 6-.257 3.854-2.556 6.162-5 9 1.53 3.56 3.636 6.028 6.313 8.813l2.3 2.457c2.248 2.006 2.248 2.006 4.992 1.617 2.604-.86 2.604-.86 5.395-2.887 6.803.476 12.995 3.416 18 8 1.024 3.852.759 7.114 0 11 2.038.677 4.08 1.341 6.125 2l3.445 1.125c3.309.844 6.035 1.04 9.43.875l1.438-3.437C191 295 191 295 192 294a63 63 0 0 1 4.254-.098l2.588.01 2.72.026 2.733.013q3.353.02 6.705.049l3 8c6.813-.412 12.596-1.624 19-4v-11a536 536 0 0 1 6.688-4.062l1.896-1.182c2.855-1.689 4.826-2.783 8.186-2.627C252 280 252 280 255 282c3.585-.09 4.924-.935 7.676-3.285l2.637-2.777 2.675-2.786L270 271l-2-7c3 0 3 0 6 2 .26-.675.518-1.35.785-2.047 2.175-4.601 3.765-7.363 8.602-9.332a255 255 0 0 1 7.851-1.773c8.442-1.903 15.125-6.475 21.762-11.848l3.125-2.375C322.228 233.053 326.197 226.27 330 219h1c-1.835 14.895-7.498 28.593-14 42-.345.717-.69 1.434-1.047 2.172-5.227 10.706-11.444 20.406-18.595 29.926-1.544 2.097-1.544 2.097-3.315 5.308-3.035 4.857-5.849 7.54-11.45 8.856-6.157 1.06-12.363 1.37-18.593 1.738q-3.857.297-7.715.602c-33.978 2.517-68.274 2.147-102.285.523l-2.565-.119c-8.136-.389-16.102-.922-24.102-2.56-3.508-.67-6.954-.875-10.52-1.071l-3.918-.227L110 306l3-1-1.066-1.354C104.679 294.397 97.873 285.199 92 275l-2.121-3.633c-5.454-9.405-10.163-18.488-13.629-28.805l-.957-2.697c-1.742-5.163-2.622-9.5-2.236-14.956-.082-2.736-1.464-4.557-2.9-6.815-6.384-11.559-7.436-27.453-4.274-40.168C68.3 170.522 71.725 164.696 77 159l1.688-1.926c8.103-8.76 19.184-13.666 31.062-13.449"/><path fill="#1155a9" d="M69 379h4l1 4 2-2c1.785-.047 1.785-.047 4.063.25l2.718.332L86 382l5.917.689c4.452.516 8.902 1.05 13.352 1.582l8.811 1.047c4.738.56 9.478 1.042 14.233 1.436C130 387 130 387 131 388c2.074.147 4.152.228 6.23.281l3.874.114 4.083.105q3.96.103 7.918.219l3.568.092c3.181.18 6.188.662 9.327 1.189q2.938.143 5.879.176l3.29.072q3.399.064 6.798.094c8.285.211 8.285.211 12.248 2.576 3.337 3.893 3.091 7.386 3.406 12.355.276 3.055.276 3.055 2.379 6.727l1-21c5 0 5 0 8 2l1-2h7l1 2h2v-2c1.895-.082 3.791-.14 5.688-.187l3.199-.106c3.776.355 6.414 1.594 9.113 4.293-.38 4.098-.693 6.54-3 10l5 7 1-22h6c2.117 2.188 2.117 2.188 3.875 5l1.805 2.813L254 400l1-11c2-.043 4-.04 6 0l1 1h6l1 1 2-3c2.398-.247 2.398-.247 5.375-.105 6.327.155 12.357-.395 18.625-1.207l3.247-.404a735 735 0 0 0 23.56-3.37c3.46-.545 6.679-.914 10.193-.914v18c-9.723 5.583-19.545 10.905-29.5 16.063l-3.302 1.71C290.504 422.262 281.763 426.65 273 431l-1.952.969q-6.825 3.382-13.673 6.719l-2.11 1.027c-13.906 6.76-28 13.046-42.277 18.982-2.946 1.237-2.946 1.237-5.508 2.653-5.257 2.782-5.257 2.782-8.556 2.425-2.413-.753-4.627-1.718-6.924-2.775l-2.972-1.224a564 564 0 0 1-10.465-4.464l-1.938-.841c-22.082-9.612-44.008-19.7-65.19-31.171-3.936-2.101-7.911-4.125-11.882-6.159a839 839 0 0 1-9.658-5.082c-3.558-1.886-7.101-3.61-10.82-5.149-4.221-1.87-7.068-3.316-10.075-6.91-1.7-6.879-.927-14.05 0-21"/><path fill="#0a1c32" d="M191.247 126.773c.91.01 1.822.02 2.76.032l2.99.02 3.128.05 3.152.027q3.862.036 7.723.098c1.778 3.31 2.224 5.47 2.125 9.25l-.055 2.703L213 141l2.438.312c2.923.565 5.352 1.298 8.125 2.313 4.724 1.618 4.724 1.618 9.437.375 1.89-1.894 3.393-3.842 5-6 4.619.54 7.524 2.44 11.313 5.062l3.238 2.223L255 147c-1.2 8.905-5.394 13.97-12.328 19.457-1.94 1.54-1.94 1.54-2.672 4.543-1.312 1.75-1.312 1.75-3 3-3.892-.484-7.143-2.564-10.562-4.375-10.806-5.498-21.23-8.063-33.438-6.625-2.874 1.197-2.874 1.197-5 3l-1 3c-1.785.773-1.785.773-4.062 1.375-4.29 1.281-7.629 3.116-11.31 5.637C170 177 170 177 168 177l1.277 2.105c5.346 9.925 5.634 18.965 5.613 30.06-.093 1.854-.093 1.854 1.11 2.835.307 5.121-.553 9.117-2 14-.365 2.505-.365 2.505 0 5 1.375 1.8 1.375 1.8 3.375 3.25.727.59 1.454 1.18 2.203 1.79.8.646 1.599 1.293 2.422 1.96a643 643 0 0 1 5.125 4.625c2.75 2.495 5.51 4.905 8.438 7.187 3.244 2.913 3.244 2.913 3.437 6.188l.375 3.25c-.436 4.364-1.797 6.42-4.379 9.855-1.27 2.415-.754 3.358.004 5.895l1.68.06c2.524.096 5.047.205 7.57.315.873.03 1.745.062 2.645.094l2.558.117 2.349.095c2.42.351 4.032 1.216 6.198 2.319 4.533.439 6.926.537 11-1.5 3.177-2.648 6.049-5.463 8.93-8.426 2.57-2.574 5.29-4.919 8.074-7.258 2.074-1.813 2.074-1.813 3.96-4.101 1.922-2.218 3.6-4.073 6.036-5.715 3.334-.13 5.944.74 9 2l3 1-.437 1.687L267 258l-.875 2.375c-.149 3.12.372 3.614 2.313 5.937L271 269c-1.589 3.79-3.974 6.372-6.812 9.312l-2.583 2.739C259 283 259 283 256.363 282.918 254 282 254 282 251 280c-5.486 0-9.368 2.85-13.828 5.723C235 287 235 287 233 287l1 11c-6.9 3.056-12.468 4.57-20 5l-3-9-19 1-4 8c-6.69-.54-12.635-1.887-19-4-1.005-4.311-.771-7.628 0-12l-1.937-.688c-2.707-1.16-4.994-2.476-7.5-4-3.11-1.759-4.276-2.317-7.938-2.25-2.804.882-2.804.882-5.625 2.938-3.765-.056-5.737-2.423-8.262-4.998l-1.488-1.565-1.535-1.576A610 610 0 0 1 131 271c1.79-4.813 1.79-4.813 3.688-6.5L136 263c-.264-3.434-1.44-5.977-3-9 4.397-2.051 8.12-3.225 13-3 4.712 2.747 8.168 7.28 11.642 11.405 5.014 5.888 9.903 8.668 17.358 10.595l-2.336-2.336L162 260h2c-2.414-4.557-5.503-7.847-9.187-11.375l-1.635-1.691c-3.117-3.005-3.117-3.005-7.177-4.095-2.057.248-3.994.648-6.001 1.161-5.034.955-9.772 1.119-14.875 1.062l-2.375-.013q-2.875-.02-5.75-.049l-1-2-2-1c5.643-5.269 11.275-10.493 17.313-15.313 6.03-4.85 11.606-10.145 17.234-15.449 2.59-2.44 5.208-4.836 7.89-7.176l1.778-1.554c1.323-1.117 2.674-2.201 4.039-3.266l2.246-1.805 2.031-1.566c2.133-2.717 1.871-4.495 1.469-7.871-5.61-14.87-19.24-26.75-33-34a161 161 0 0 0-5-2c1.188-1.563 1.188-1.563 3-3 3.595.284 6.704 1.587 10 3l-.355-2.21c.355-2.79.355-2.79 2.804-5.142l3.239-2.273 3.199-2.29c7.326-4.908 7.326-4.908 10.613-5.648 3.972.894 5.197 3.273 7.5 6.563v2l2.45-.621 3.238-.817 3.199-.808A170 170 0 0 1 187 139l-.07-2.117-.055-2.758-.07-2.742c.267-3.264 1.16-4.278 4.442-4.61"/><path fill="#b9c1ca" d="M202.76 10.784a198 198 0 0 1 9.092 3.677l3.332 1.43q3.407 1.47 6.812 2.945c6.39 2.738 12.777 5.198 19.404 7.304 2.444.808 4.794 1.729 7.163 2.735C287.686 44.759 330.393 50.848 372 56c.772 45.575.713 91.388-10 136l-.577 2.462c-1.32 5.56-2.83 11.051-4.423 16.538l-.887 3.096C352.309 227.27 348.299 239.806 342 252a715 715 0 0 0-1.863 3.895c-7.49 15.648-16.634 29.343-27.875 42.55-1.455 1.744-1.455 1.744-3.262 4.555-2.383.512-2.383.512-5.125.687l-2.758.2L299 304c5.442-7.303 5.442-7.303 8.238-10.793 14.82-18.65 25.247-39.416 33.742-61.57q1.102-2.845 2.245-5.675c3.044-7.648 5.389-15.281 7.338-23.275l.9-3.648c2.601-10.797 4.54-21.649 6.176-32.629.295-1.973.614-3.942.94-5.91 3.146-19.084 4.926-38.177 5.421-57.5l.132-5.003c.315-11.999.6-23.998.868-35.997l-1.846.075c-8.496.185-16.718-.923-25.091-2.2l-2.245-.336c-42.328-6.38-84.436-18.122-123.601-35.556l-2.62-1.155-2.202-1.003c-6.345-2.186-10.798-1.817-16.875.78l-2.104.85a655 655 0 0 0-6.603 2.732 2782 2782 0 0 1-8.668 3.543l-2.127.871C165.095 33.007 159.093 35.068 153 37q-2.385.785-4.77 1.578l-2.178.725c-1.946.661-3.88 1.358-5.814 2.056-25.517 9.146-53.184 14.266-79.925 18.391l-2.245.35C51.078 61.12 44.046 61.55 37 62c.517 39.814 2.325 78.906 9.318 118.16.549 3.09 1.068 6.18 1.573 9.277C51.859 212.174 60.686 235.433 71 256l1.1 2.229c7.4 14.894 16.409 28.216 26.845 41.138C101 302 101 302 101 303c-3.339.742-4.792.977-8 0-3.379-3-5.995-6.486-8.636-10.127-1.373-1.885-2.788-3.73-4.212-5.576C66.705 269.463 57.146 249.084 50 228l-.732-2.149c-1.54-4.585-2.942-9.2-4.268-13.851l-.612-2.127c-6.986-24.585-10.569-49.3-12.981-74.68-.33-3.458-.705-6.91-1.098-10.361-1.596-15.079-1.489-30.185-1.496-45.332l-.004-3.487q.002-4.928.023-9.857l.004-3.058.019-2.791.011-2.457C29 56 29 56 30 55a95 95 0 0 1 4.863-.648l3.094-.353 3.356-.374c28.424-3.328 152.002-45.524 161.446-42.841"/><path fill="#d9100d" d="m111.188 147.75 2.462-.062c13.932-.09 27.115 7.269 37.35 16.312l2.496 2.176c7.116 6.618 14.044 15.094 16.152 24.812-1.01 4.697-4.102 6.891-7.648 9.95l-2.094 1.875A576 576 0 0 1 154 208l-2.426 2.148a391 391 0 0 1-3.699 3.223c-2.263 1.966-4.472 3.986-6.687 6.004-4.34 3.92-8.82 7.62-13.387 11.27a92 92 0 0 0-5.696 5.18l-2.855 2.8-2.547 2.602C114 243 114 243 110.56 242.98c-13.064-3.599-24.93-14.803-32.059-26.042-6.944-12.72-9.902-26.41-5.875-40.563 3.986-11.679 9.582-19.512 20.563-25.187 6.127-2.982 11.27-3.396 18-3.438"/><path fill="#0759cd" d="M315.25 154.688c7.447 6.104 12.901 13.78 14.75 23.312 1.377 15.989-.812 32.22-11.281 45.066-6.248 7.03-12.275 12.659-20.719 16.934l-2.281 1.313c-2.435 1.165-4.013 1.733-6.719 1.687-3.896-2.064-6.846-4.952-10-8a1732 1732 0 0 0-5.125-4.562l-2.516-2.293a344 344 0 0 0-6.234-5.52c-3.428-2.984-6.781-6.047-10.125-9.125-3.387-3.117-6.784-6.22-10.25-9.25l-1.86-1.637a124 124 0 0 0-4.156-3.383l-2.234-1.792-2.031-1.567c-2.134-2.719-1.876-4.494-1.469-7.871 6.593-16.882 21.159-29.145 37.086-36.879 14.64-5.632 32-5.401 45.164 3.566"/><path fill="#05397d" d="M329 382v14c-35.528 19.75-72.045 37.19-109.562 52.813l-2.268.95q-3.176 1.326-6.361 2.632l-3.694 1.526C204 455 204 455 200 455q-.185-7.58-.275-15.161a488 488 0 0 0-.102-5.156c-.06-2.473-.09-4.944-.111-7.417l-.078-2.324c-.002-2.183-.002-2.183.566-5.942 2.486-2.178 2.486-2.178 5-4 .77-2.585.77-2.585.707-5.422l.088-3.105.018-3.223.076-3.27q.088-3.99.111-7.98l3 1 1-2h7l1 2h2v-2c1.895-.082 3.791-.14 5.688-.187l3.199-.106c3.776.355 6.414 1.594 9.113 4.293-.38 4.098-.693 6.54-3 10l5 7 1-22h6c2.117 2.188 2.117 2.188 3.875 5l1.805 2.813L254 400l1-11c2-.043 4-.04 6 0l1 1h6l1 1 2-3c2.398-.247 2.398-.247 5.375-.105 6.327.155 12.357-.395 18.625-1.207l3.24-.404c8.743-1.107 17.46-2.376 26.166-3.733C328 382 328 382 329 382"/><path fill="#022a5e" d="m200 166 2 4 1.766-.14c6.453-.285 11.525.942 17.57 3.167 2.55 1.001 2.55 1.001 4.844 1.442 3.04.887 4.723 3.26 6.82 5.531l-.875 1.703c-4.214 9.54-3.485 19.094-3.125 29.297l-27 12-1 50h-6l-2-2 1.094-1.504c3.176-4.65 4.672-7.693 3.906-13.496-1.358-5.387-5.016-7.979-9.125-11.375l-2.043-1.747c-2.825-2.41-5.657-4.748-8.637-6.964-2.045-1.55-3.715-2.818-5.195-4.914-.534-4.329.642-7.927 2-12 .167-3.583.167-3.583 0-7l-1-1a71 71 0 0 1-.14-4.34c.035-13.048.035-13.048-4.801-24.918C168 180 168 180 168 177c8.63-7.044 20.912-11 32-11"/><path fill="#03387d" d="m74 225 1.754 2.203C86.594 240.703 98.879 250.937 116 255c3.48.346 6.91.49 10.402.59 2.598.41 2.598.41 4.29 1.789 1.12 1.683 1.12 1.683 2.308 4.621l-2 2.063c-2.527 3.71-2.517 5.512-2 9.937 2.025 2.869 2.025 2.869 4.813 5.25l2.707 2.516L139 284l1.61 1.773c1.515 1.575 1.515 1.575 4.827 1.602 3.53-.051 3.53-.051 5.625-2L153 284c4.84.968 8.813 3.488 13 6v12c7.149 3.836 13.692 5.275 21.688 5.563 8.323.338 8.323.338 12.312 1.437v2c-14.78.29-29.49-.185-44.25-.875l-2.706-.12c-8.7-.387-17.225-.775-25.772-2.56-3.485-.683-6.914-.875-10.46-1.07l-3.917-.227L110 306l3-1-1.066-1.354C104.679 294.397 97.873 285.199 92 275l-2.121-3.633c-5.477-9.445-10.195-18.574-13.692-28.93l-.982-2.748C73.378 234.295 72.634 230.565 74 225"/><path fill="#7f8d9a" d="M148 253a147 147 0 0 1 5.25 5.188A198 198 0 0 0 167 271l1.977 1.723c4.985 4.408 4.985 4.408 11.398 5.464l2.336.043c2.293-.077 2.293-.077 4.075-1.228 2.774-1.256 4.892-1.26 7.933-1.268l3.324-.007 3.457.023 3.457-.023 3.324.007 3.033.007c2.76.266 4.275.971 6.686 2.259 4.533.439 6.926.537 11-1.5 3.177-2.648 6.049-5.463 8.93-8.426 2.57-2.574 5.29-4.919 8.074-7.258 2.074-1.813 2.074-1.813 3.96-4.101 1.922-2.218 3.6-4.073 6.036-5.715 3.334-.13 5.944.74 9 2l3 1-.437 1.688L267 258l-.875 2.375c-.149 3.12.372 3.614 2.313 5.938L271 269c-1.589 3.79-3.974 6.372-6.812 9.313l-2.583 2.738C259 283 259 283 256.363 282.918 254 282 254 282 251 280c-5.486 0-9.368 2.85-13.828 5.723C235 287 235 287 233 287l1 11c-6.9 3.056-12.468 4.57-20 5l-3-9-19 1-4 8c-6.69-.54-12.635-1.887-19-4-1.005-4.311-.771-7.628 0-12l-1.937-.687c-2.707-1.16-4.994-2.477-7.5-4-3.11-1.76-4.276-2.318-7.938-2.25-2.804.881-2.804.881-5.625 2.937-3.765-.056-5.737-2.423-8.262-4.998l-1.488-1.565-1.535-1.576A610 610 0 0 1 131 271c1.79-4.812 1.79-4.812 3.688-6.5L136 263c-.264-3.434-1.44-5.977-3-9 1.744-.56 3.496-1.097 5.25-1.625l2.953-.914c3.281-.54 4.127-.373 6.797 1.539"/><path fill="#051932" d="m109.75 143.625 2.363.02c7.164.164 14.408 1.115 20.887 4.355l-1 3-1.738-.437c-14.031-3.066-29.124-3.659-41.711 3.91C78.805 161.287 74.368 171.604 72 183c-.676 6.952-.206 13.383 2 20l.777 2.582c4.85 14.885 15.68 26.636 29.305 34.145 4.094 1.786 7.47 2.199 11.918 2.273l1 3c8.888-.388 17.34-.835 26-3 2.992-.304 4.464-.344 7.02 1.298l1.933 1.807 2.125 1.983 2.172 2.1 2.219 2.04c3.818 3.624 5.612 5.52 6.531 10.772 2.206 2.69 2.206 2.69 4.938 5.188l2.714 2.605L175 272l2 2c-8.615-1.026-13.595-5.118-19.625-10.937l-1.984-1.881-1.93-1.834-1.844-1.75C150 256 150 256 147.898 253.511c-1.858-1.81-1.858-1.81-4.695-1.465l-2.953.703-2.984.672L135 254c-.277 3.185-.277 3.185 2 6-.257 3.854-2.556 6.162-5 9 1.53 3.56 3.636 6.028 6.313 8.813l2.3 2.457c2.248 2.006 2.248 2.006 4.992 1.617 2.604-.86 2.604-.86 5.395-2.887 6.803.476 12.995 3.416 18 8 1.024 3.852.759 7.114 0 11 2.038.677 4.08 1.341 6.125 2l3.445 1.125c3.309.844 6.035 1.04 9.43.875l1.438-3.437C191 295 191 295 192 294a63 63 0 0 1 4.254-.098l2.588.01 2.72.026 2.733.013q3.353.02 6.705.049l3 8c6.813-.412 12.596-1.624 19-4v-11a536 536 0 0 1 6.688-4.062l1.896-1.182c2.855-1.689 4.826-2.783 8.186-2.627C252 280 252 280 255 282c3.585-.09 4.924-.935 7.676-3.285l2.637-2.777 2.675-2.786L270 271l-2-7c3 0 3 0 4.75 1.563 1.838 3.584 1.244 5.559.25 9.437-1.8 2.624-3.952 4.748-6.25 6.938l-1.738 1.783c-4.23 4.147-4.23 4.147-7.809 4.752-2.674-.574-4.033-1.846-6.203-3.473-3.51-.78-6.09.238-9.25 1.75-2.937 1.893-3.642 2.81-4.484 6.254A85 85 0 0 0 237 302c-7.56 3.465-15.546 6.395-24 5-3.242-2.736-3.13-4.652-4-9h-16l-1 6c-1.062 1.875-1.062 1.875-3 3-7.826 1.054-15.58-1.67-23-4-1-1-1-1-1.133-2.96l.008-2.415-.008-2.398C165 293 165 293 166 290l-2.125-.812C161 288 161 288 158 286.25c-2.924-1.576-2.924-1.576-5.812-.5-2.096 1.07-2.096 1.07-3.188 2.25-3.25.375-3.25.375-7 0-2.375-1.937-2.375-1.937-3.535-3.316-1.53-1.826-1.53-1.826-3.774-3.774-6.474-5.909-6.474-5.909-7.504-10.66.913-3.652 2.21-5.566 4.813-8.25-1.095-2.58-1.095-2.58-3-5-2.647-.603-2.647-.603-5.687-.437-16.576-.737-31.071-9.622-42.25-21.5A168 168 0 0 1 77 230l-1.926-2.477C65.696 214.23 63.023 197.955 65 182c1.716-9.019 5.814-16.32 12-23l1.688-1.926c8.103-8.76 19.184-13.666 31.062-13.449"/><path fill="#f8f9fa" d="m239.97 51.297 3.343.203 3.4.11c2.764.093 5.526.237 8.287.39v16l-4.89-.105q-3.18-.043-6.36-.082l-3.223-.077-3.105-.029-2.857-.048c-2.988.397-4.342 1.358-6.565 3.341l1 5c3.286.97 6.55 1.897 9.89 2.66 14.105 3.243 14.105 3.243 19.048 9.778 3.117 5.561 2.987 11.385 2.062 17.562-1.911 5.828-4.54 10.897-10 14-6.585 2.81-12.637 3.512-19.75 3.438l-2.907-.01c-7.838-.153-14-1.562-21.343-4.428v-16l3.77.875c14.211 3.778 14.211 3.778 28.468 2.328 2.2-1.203 2.2-1.203 2.512-4.828L241 98c-4.47-2.496-8.33-3.548-13.375-4.312C221.273 92.56 216.333 90.973 212 86c-2.788-4.792-3.337-8.5-3-14l1.941-.848c6.37-2.952 12.972-6.403 15.936-13.148 3.082-6.451 6.17-6.874 13.094-6.707"/><path fill="#ccd3da" d="m200.438 128.813 2.97-.038 2.838-.005 2.615-.013C211 129 211 129 213 131c.195 2.383.195 2.383.125 5.125l-.055 2.758L213 141l2.438.313c2.923.564 5.352 1.297 8.125 2.312 4.724 1.618 4.724 1.618 9.437.375 1.89-1.894 3.393-3.842 5-6 4.619.54 7.524 2.44 11.313 5.063l3.238 2.222L255 147c-1.135 8.5-5.042 13.676-11.645 18.969L242 167c-3.938-1.458-7.427-3.343-11.062-5.437-14.196-7.572-31.646-9.316-47.438-5.684-7.184 2.23-13.144 5.418-19.133 9.96C162 167 162 167 159.422 166.43c-5.187-3.061-10.036-8.912-12.422-14.429.124-3.72.848-4.851 3.547-7.492l3.203-2.383 3.172-2.43C160 138 160 138 162.715 138.051c3.632 1.509 4.96 3.828 7.285 6.949l3.875-.875c5.027-1.119 10.072-2.133 15.125-3.125l-.035-2.371-.028-3.066-.035-3.06c.224-5.73 7.08-3.688 11.536-3.69"/><path fill="#fafbfc" d="M146 51h75c-1.796 4.49-2.652 6.025-5.937 9.188l-2.09 2.042C205.326 69.09 204.515 66 190 66v56h-17V66h-27z"/><path fill="#3486d6" d="M69 379h4l-.344 3.184C72.4 386.602 72.38 390.826 74 395c3.996 3.747 8.437 5.679 13.427 7.841 3.795 1.71 7.438 3.683 11.11 5.642C108.592 413.842 118.762 418.995 129 424l2.708 1.327c15.595 7.62 31.326 14.862 47.292 21.673l2.957 1.27a846 846 0 0 0 8.293 3.48l2.472 1.054 2.294.93 1.977.82c4.528 1.007 8.686-1.112 12.82-2.82l3.463-1.427L217 448.75l1.926-.802C241.948 438.357 264.614 427.992 287 417l1.775-.871q5.614-2.755 11.212-5.536 2.637-1.307 5.275-2.61a269 269 0 0 0 19.381-10.687C327 396 327 396 329 396v-14h3v18c-9.723 5.583-19.545 10.905-29.5 16.063l-3.302 1.71C290.504 422.262 281.763 426.65 273 431l-1.952.969q-6.825 3.382-13.673 6.719l-2.11 1.027c-13.906 6.76-28 13.046-42.277 18.982-2.946 1.237-2.946 1.237-5.508 2.653-5.257 2.782-5.257 2.782-8.556 2.425-2.413-.753-4.627-1.718-6.924-2.775l-2.972-1.224a564 564 0 0 1-10.465-4.464l-1.938-.841c-22.082-9.612-44.008-19.7-65.19-31.171-3.936-2.101-7.911-4.125-11.882-6.159a839 839 0 0 1-9.658-5.082c-3.558-1.886-7.101-3.61-10.82-5.149-4.221-1.87-7.068-3.316-10.075-6.91-1.7-6.879-.927-14.05 0-21"/><path fill="#03316b" d="M332 369v13c-44.359 7.702-44.359 7.702-58.75 6.68-2.443.102-2.443.102-4.062 2.328L268 393v-3l-7 1v-2h-6v12c-5.802-5.645-5.802-5.645-8-9v-2h-6v23c-5.625-5.625-5.625-5.625-7-9l1.5-1.687c1.8-2.776 2.165-4.071 1.5-7.313-3.719-2.8-6.716-3.435-11.312-3.687-1.603-.1-1.603-.1-3.239-.2L220 391v2l-3 1v-3h-7v23l-3-1-1-23h-5v-9l3.921-.152q7.345-.288 14.689-.593 3.15-.128 6.303-.25c12.685-.49 25.252-1.265 37.861-2.747 2.95-.342 5.902-.65 8.855-.959 3.645-.381 7.29-.777 10.933-1.174l2.317-.252c11.503-1.263 22.931-2.778 34.354-4.654l2.954-.485 2.543-.43C328 369 328 369 332 369"/><path fill="#e7e9ed" d="M47 276c9.181 1.836 21.288 5.645 27.125 13.375C75.421 291.501 76 292.513 76 295l-14-1-.758 4.023c-1.453 7.262-3.3 14.425-5.117 21.602l-1.027 4.082-2.05 8.134C51.354 338.558 49.678 345.279 48 352c-22.712.644-22.712.644-32-4v-2a111 111 0 0 1 5.25-4.375A443 443 0 0 0 27 337l2.422-1.977c1.86-1.904 1.86-1.904 1.345-4.34-.82-2.87-1.934-5.06-3.454-7.624l-1.618-2.768L24 317.438q-1.664-2.81-3.312-5.63c-.492-.826-.983-1.653-1.489-2.506-1.108-2.128-1.741-3.958-2.199-6.302l2.316.734C29.43 306.9 39.601 309.92 50 312z"/><path fill="#e9ebef" d="M353 276c.417 12.072-.843 23.998-2 36 9.132-1.573 17.43-3.632 26.074-7.012C380 304 380 304 384 304c-1.495 5.155-3.784 9.503-6.437 14.125l-1.198 2.129c-1.61 2.836-3.134 5.465-5.213 7.988-1.37 1.678-1.37 1.678-.922 3.666.913 2.48 1.974 3.564 3.93 5.326l1.904 1.739 1.998 1.777 2.01 1.824A734 734 0 0 0 385 347c-8.377 6.768-20.729 6.158-31 6-2.248-6.5-4.2-13.05-6-19.687l-.796-2.928c-1.71-6.362-3.236-12.721-4.548-19.178-1.11-5.427-2.393-10.814-3.656-16.207l-6-1v-9c18-9 18-9 20-9"/><path fill="#0c4387" d="M70 369c5.647.588 11.272 1.293 16.898 2.05 37.607 5.045 75.19 8.378 113.102 9.95.852 7.069 1.127 14.009 1.063 21.125l-.014 2.898q-.018 3.489-.049 6.977l-4 1 2-1-2-3c-.26-3.003-.314-5.979-.363-8.992-.907-4.285-1.974-5.557-5.637-8.008-4.144-.727-8.238-.745-12.437-.75q-3.342-.05-6.684-.11l-2.982-.014C166 391 166 391 163.063 390.509c-3.348-.556-6.565-.703-9.958-.79l-3.892-.114q-3.038-.08-6.077-.157a1931 1931 0 0 1-5.906-.167l-3.55-.092C131 389 131 389 130 388c-2.676-.35-5.338-.644-8.023-.902-.816-.083-1.632-.166-2.473-.25-3.497-.355-6.996-.698-10.494-1.043-18.023-1.786-18.023-1.786-25.805-3.44-2.435-.403-4.742-.426-7.205-.365l-2 5h-1v-8l-4-1z"/><path fill="#b5bfc8" d="M148 253a147 147 0 0 1 5.25 5.188A198 198 0 0 0 167 271l1.977 1.723c4.985 4.408 4.985 4.408 11.398 5.464l2.336.043c2.31-.09 2.31-.09 4.219-1.234 4.018-1.933 8.71-1.1 13.07-.996v18l-8 1c-1.773 1.755-1.773 1.755-2.5 4.063-.3.733-.598 1.466-.906 2.222L188 303c-6.69-.54-12.635-1.887-19-4-1.005-4.311-.771-7.628 0-12l-1.937-.687c-2.707-1.16-4.994-2.477-7.5-4-3.11-1.76-4.276-2.318-7.938-2.25-2.804.881-2.804.881-5.625 2.937-3.765-.056-5.737-2.423-8.262-4.998l-1.488-1.565-1.535-1.576A610 610 0 0 1 131 271c1.79-4.812 1.79-4.812 3.688-6.5L136 263c-.264-3.434-1.44-5.977-3-9 1.744-.56 3.496-1.097 5.25-1.625l2.953-.914c3.281-.54 4.127-.373 6.797 1.539"/><path fill="#f0c943" d="M232 197c2 0 2 0 4.188 2.063Q237.6 200.525 239 202a125 125 0 0 0 12.438 11.438c4.16 3.348 7.959 6.846 11.68 10.671 2.44 2.452 5.03 4.694 7.652 6.95 4.48 3.9 8.844 7.934 13.23 11.941-2.659 2.659-4.663 2.261-8.281 2.273l-2.469-.023-2.422.023c-4.742-.015-8.31-.75-12.828-2.273-3.922.397-5.927 1.416-8.742 4.133l-2.043 1.945-2.09 2.047-2.066 1.977c-3.908 3.75-7.75 7.565-11.57 11.406-5.253 5.263-5.253 5.263-9.864 6.117-4.909-.846-7.252-3.104-10.625-6.625l-1.937-2c-1.613-3.035-1.73-4.601-1.063-8 3.934-5.4 9.865-9.382 15.023-13.531 4.196-3.48 8.168-7.173 12.153-10.89 2.874-2.625 5.817-5.11 8.824-7.579 3.21 1.382 5.05 2.924 7.25 5.625l1.578 1.914L254 231c-5.474 5.588-11.047 10.928-17 16l-3.437 2.96q-1.875 1.615-3.75 3.227l-1.802 1.55A319 319 0 0 1 218 263l1 4c2.599.462 4.339.459 6.548-1.074 1.748-1.572 3.418-3.199 5.077-4.863q1.862-1.802 3.73-3.594l1.861-1.793c3.306-3.106 6.838-5.908 10.382-8.738 2.152-1.736 4.217-3.533 6.277-5.375 2.545-2.215 4.882-3.514 8.125-4.563 1.968-1.968 1.662-5.348 2-8l-1.723-.246c-3.805-1.26-6.157-4.265-8.96-7.04-2.729-2.019-3.998-2.2-7.317-1.714a249 249 0 0 0-4 3c-3-1-3-1-4.098-3.004-2.908-7.711-5.249-14.67-4.902-22.996"/><path fill="#e5b237" d="M169 198c.64 9.038-.93 16.861-5 25-2.581-.46-3.934-.947-6-2.625-1.846-1.575-1.846-1.575-3.809-1.246-4.022 1.599-6.776 4.973-9.851 7.937C142 229 142 229 139 229c-.432 4.088-.432 4.088 1.29 7.598 1.88 1.663 1.88 1.663 5.273 3.027 5.687 2.724 9.89 7.09 14.437 11.375 2.635 2.371 5.314 4.687 8 7l2.766 2.469 2.922 2.531 2.699 2.375c2.504 1.92 2.504 1.92 5.445 1.375L184 266c.34-3.075.34-3.075-1.8-4.945l-2.512-2.18-2.79-2.434a449 449 0 0 0-8.085-6.628C161.525 243.928 154.79 237.443 148 231a324 324 0 0 1 2.75-3.375l1.547-1.898c1.785-1.81 3.382-2.728 5.703-3.727l1.8 1.652c4.37 3.975 8.772 7.849 13.387 11.536a389 389 0 0 1 14 12l2.038 1.764c4.606 4.204 4.606 4.204 5.408 8.208-.725 3.254-1.662 4.688-3.946 7.09l-1.863 2.016c-2.648 2.517-4.445 3.668-8.074 4.296-4.648-.697-5.887-2.179-8.934-5.566-1.828-2.01-3.747-3.738-5.816-5.496a124 124 0 0 1-7.562-7.062l-1.727-1.723a185 185 0 0 1-3.422-3.524c-3.149-3.165-3.149-3.165-7.297-4.375-2.064.248-3.976.675-5.992 1.184-5.01 1.032-9.788 1.119-14.875 1.063l-2.375-.014q-2.875-.02-5.75-.049v-2c1.441-1.234 1.441-1.234 3.563-2.75 4.542-3.427 8.678-7.164 12.812-11.062l1.958-1.845 3.854-3.639a640 640 0 0 1 18.891-17.032 539 539 0 0 0 4.156-3.656l2.203-1.953 1.997-1.778C168 198 168 198 169 198"/><path fill="#0848a2" d="M200 169v54c-6.198-2.066-11.12-3.912-16.562-7.187l-1.9-1.116A644 644 0 0 1 177 212l.07-2.71c.16-10.758-.323-19.094-6.07-28.29v-2c8.869-5.459 18.287-10 29-10"/><path fill="#ea281d" d="m111.188 147.75 2.462-.062c16.672-.107 30.925 10.066 42.537 21.125 4.36 4.468 8.612 9.261 10.813 15.187-.355 2.793-.355 2.793-1 5-2.488-2.317-4.301-4.802-6.187-7.625-9.03-12.978-20.92-24.111-36.813-27.687-11.551-1.845-24.545-.76-34.562 5.875-6.225 5.313-10.003 13.49-10.711 21.546-.4 14.354 2.969 26.63 12.273 37.891l1.902 2.523c6.546 7.728 16.052 12.31 25.098 16.477-.687 1.938-.687 1.938-2 4-3.072 1.216-4.616 1.125-7.762.102C99.756 238.325 93.876 233.966 88 228l-2.223-2.227c-10.249-10.843-15.22-24.66-15.054-39.488.915-10.843 5.452-22.111 13.527-29.597 8.384-6.573 16.536-8.874 26.938-8.938"/><path fill="#1e77e4" d="M315.25 154.688c7.447 6.104 12.901 13.78 14.75 23.312 1.377 15.989-.812 32.22-11.281 45.066-8.16 9.181-17.211 17.535-29.719 19.934l-2-1c-.625-2.562-.625-2.562-1-5 .895-.4 1.79-.802 2.71-1.215 8.31-3.855 14.843-8.147 21.29-14.785l1.734-1.672c9.52-9.911 12.776-23.805 12.512-37.117-.755-9.85-4.622-16.709-11.621-23.524-10.61-6.82-23.234-7.018-35.312-4.562-15.782 4.137-28.022 15.263-36.563 28.875-2.31 3.956-3.779 7.533-4.75 12l-3-1c-.554-9.473 5.68-17.421 11.547-24.453 17.99-18.678 47.056-30.969 70.703-14.86"/><path fill="#94a1ab" d="M212 131h1v10l2.438.313c2.923.564 5.352 1.297 8.125 2.312 4.724 1.618 4.724 1.618 9.437.375 1.89-1.894 3.393-3.842 5-6 4.619.54 7.524 2.44 11.313 5.063l3.238 2.222L255 147c-1.135 8.5-5.042 13.676-11.645 18.969L242 167c-3.938-1.458-7.427-3.343-11.062-5.437-11.654-6.277-22.974-7.118-35.938-7.563v-1h5v-21h10l1 8z"/><path fill="#02306e" d="m200 166-1 4-2.895.445c-7.898 1.37-14.1 3.09-21.03 7.348C173 179 173 179 171 179l1.277 2.379c5.517 10.58 5.87 18.817 5.723 30.621l3.29 1.645L200 223v32l-5-5a140 140 0 0 0-3.27-2.867c-.575-.49-1.15-.98-1.743-1.483l-1.8-1.525-1.86-1.605c-2.634-2.27-5.258-4.469-8.054-6.54-2.078-1.567-3.763-2.86-5.273-4.98-.54-4.326.643-7.93 2-12 .167-3.583.167-3.583 0-7l-1-1a71 71 0 0 1-.14-4.34c.035-13.048.035-13.048-4.801-24.918C168 180 168 180 168 177c8.63-7.044 20.912-11 32-11"/><path fill="#c08522" d="M156 222c3.31 1.655 5.5 3.07 8.25 5.438l2.14 1.808C168 231 168 231 168 234l1.781.805c2.277 1.226 3.851 2.53 5.715 4.312l1.943 1.84 1.999 1.918q1.964 1.875 3.933 3.742l1.877 1.782c1.5 1.37 3.086 2.643 4.686 3.894C192 254 192 254 192.625 256.437c-.875 3.588-2.897 5.176-5.625 7.563-2.734-1.27-4.923-2.624-7.18-4.617l-1.795-1.572-1.9-1.686-4.02-3.531-2.06-1.813a428 428 0 0 0-5.932-5.062l-1.873-1.579a613 613 0 0 0-3.495-2.917c-4.04-3.413-7.378-7.142-10.745-11.223zM244 222c3.21 1.382 5.05 2.924 7.25 5.625l1.578 1.914L254 231c-5.474 5.588-11.047 10.928-17 16l-3.437 2.96q-1.875 1.615-3.75 3.227l-1.802 1.55a294 294 0 0 1-7.812 6.501c-2.235 1.725-2.235 1.725-4.199 3.762a137 137 0 0 1-3-2.687l-1.687-1.512C210 259 210 259 209.5 256.598c.723-3.758 2.616-5.02 5.5-7.473l1.525-1.32A497 497 0 0 1 221 244a1277 1277 0 0 0 4.063-3.562l1.898-1.653c8.782-7.616 8.782-7.616 17.039-15.785z"/><path fill="#0f3668" d="M174 332c3.91 1.99 5.577 3.365 8 7 .716 5.304.622 9.733-1.75 14.563-2.7 2.925-4.662 4.212-8.617 4.773-5.742.09-9.132-.397-13.633-4.336-3.113-4.67-2.728-9.536-2-15 3.874-7.69 10.24-7.81 18-7"/><path fill="#0c3262" d="M257.313 332.813 260 335l1.64 1.273c2.498 3.173 1.813 6.893 1.72 10.766-.503 4.138-1.513 5.952-4.36 8.961-4.914 1.638-9.877 1.616-15 1-3.836-2.686-5.841-5.47-7-10-.526-4.735-.766-7.58 2.25-11.375 5.49-5.24 11.224-6.554 18.063-2.812"/><path fill="#0c1c2d" d="M155.043 218.137c3.152 1.39 5.997 3.098 8.957 4.863-1.75 1.125-1.75 1.125-4 2l-4-2-7 7c7.057 8.728 15.54 15.68 24.238 22.715 4.38 3.623 8.575 7.443 12.762 11.285l-3 4c-6.257-.23-9.005-3.305-13.187-7.5q-1.986-1.922-3.977-3.836l-1.966-1.897c-6.62-6.255-13.783-11.761-21.62-16.392C140 237 140 237 138 235c.063-2.937.063-2.937 1-6a160 160 0 0 1 5-3c2.334-2.094 4.574-4.262 6.816-6.453C153 218 153 218 155.043 218.137"/><path fill="#3089e1" d="M315.25 154.688c5.188 4.225 9.706 9.238 11.875 15.625-.15 3.22-1.134 4.243-3.125 6.687l-.629-1.906c-2.796-7.767-6.665-14.033-13.808-18.469-12.264-5.594-25.917-4.84-38.563-.625-14.518 6.088-25.872 18.142-33 32-.877 2.348-1.466 4.544-2 7l-3-1c-.554-9.473 5.68-17.421 11.547-24.453 17.99-18.678 47.056-30.969 70.703-14.86"/><path fill="#9ca7b3" d="M236.445 166.508 238 168c0 4 0 4-1 6-3.913-.711-7.07-2.525-10.562-4.375-14.485-7.37-28.46-8.883-44.2-3.91-4.026 1.598-7.565 3.598-11.152 6.015-2.096 1.276-3.647 2.008-6.086 2.27l-2-2c.102-1.937.102-1.937 1-4 20.969-17.258 50.461-14.594 72.445-1.492"/><path fill="#133a6b" d="M186 333c8 0 8 0 9.826 1.377l1.143 1.904 1.289 2.051 1.242 2.168 1.336 2.168A260 260 0 0 1 204 348l1-15h6v26c-7 0-7 0-9.363-2.23l-1.95-2.957-1.988-2.918A45.7 45.7 0 0 1 194 343h-2v16h-6z"/><path fill="#f1f4f8" d="M191 391c2.934 1.796 4.472 2.944 6 6 .423 4.597.539 8.707-1.25 13-2.329 2.661-4.429 3.797-7.934 4.336-4.06.07-6.26 0-9.816-2.149-3.51-3.84-3.33-7.775-3.293-12.738.41-3.435 1.772-5.15 4.293-7.449 3.697-1.849 7.965-1.476 12-1"/><path fill="#113462" d="M283.063 330.438C285 332 285 332 286 333c.247 4.357.122 7.201-2 11l1.531 1.68 1.969 2.195 1.969 2.18C291 352 291 352 291 354c-5.192.616-5.192.616-8 0-1.682-1.665-2.741-3.31-3.895-5.371-1.09-1.961-1.09-1.961-4.105-2.629l.254 1.934.308 2.503.317 2.497L276 355c-1 1-1 1-4.062 1.063L269 356a2610 2610 0 0 1-1.5-9.625l-.434-2.738c-.703-4.591-1.252-8.975-1.066-13.637 5.651-1.618 11.683-2.088 17.063.438"/><path fill="#ed412a" d="m111.625 147.563 2.386-.032c17.69.264 32.825 11.697 44.677 23.844 3.353 3.807 6.533 7.834 8.312 12.625-.355 2.793-.355 2.793-1 5-2.488-2.317-4.301-4.802-6.187-7.625-9.03-12.978-20.92-24.111-36.813-27.687-10.88-1.738-22.983-1.015-32.598 4.914-2.068 1.585-2.068 1.585-3.789 3.226C85 163 85 163 81 163c.545-3.765 1.918-5.185 4.875-7.5 8.245-5.99 15.685-7.837 25.75-7.937"/><path fill="#143a6a" d="M135 330c6.5-.353 11.226-.128 17 3 2 2 2 2 2.313 5.375-.323 3.74-.656 5.066-3.313 7.625-2.75.917-4.36 1.109-7.187 1.063L140 347l.063 3.938A59 59 0 0 1 140 355c-1 1-1 1-4.062 1.063L133 356c-.332-8.863.679-17.258 2-26"/><path fill="#e8ecf1" d="M220 391c12.242-.404 12.242-.404 17 3l1 1c-.38 4.098-.693 6.54-3 10l1.094 1.46 1.406 1.915 1.406 1.898C240 412 240 412 240 414h-7c-4-6.75-4-6.75-4-9h-3v9h-6z"/><path fill="#ebf0f7" d="M155 390c13.323 0 13.323 0 17 3 1.063 3.5 1.063 3.5 1 7-1.437 1.938-1.437 1.938-3 3l.938 2.75c.79 2.416 1.491 4.778 2.062 7.25h-6l-2.93-5.371c-.984-1.795-.984-1.795-3.07-2.629v8h-6z"/><path fill="#123866" d="M215 333h19c-1.123 7.863-1.123 7.863-4.5 12.313-2.459 3.215-2.459 3.215-4.5 6.687l11 1v5c-1 1-1 1-2.95 1.114l-2.523-.016-2.724-.01-2.865-.026-2.877-.013q-3.53-.018-7.061-.049c-.736-5.984 1.515-8.863 5-13.375l1.445-1.941A443 443 0 0 1 225 339l-10-1z"/><path fill="#ecf0f4" d="M241 390h6c2.082 2.082 2.082 2.082 3.813 4.813l1.769 2.707C254 400 254 400 255 403l1-13h4c1.25 7.65 1.09 15.274 1 23-2.23.344-2.23.344-5 0-2.238-2.406-2.238-2.406-4.312-5.5l-2.114-3.094L248 402l-1 12h-6z"/><path fill="#eaeef3" d="M274.063 387.938 277 388c1.51 3.267 3.006 6.539 4.5 9.813.43.928.859 1.857 1.3 2.814l1.231 2.705 1.143 2.491C286 408 286 408 286 411h-6l-1-3-9-1-1 5h-5c.619-5.36 1.847-10.246 3.5-15.375l.684-2.191c2.034-6.418 2.034-6.418 5.878-6.497"/><path fill="#092f61" d="m127 328 3 2-2 4h-8c.661 3.07.661 3.07 2.848 4.105.73.358 1.461.715 2.215 1.082 3.72 2.209 3.72 2.209 4.64 4.774.193 3.703-.333 5.546-2.578 8.539-4.358 2.092-8.364 2.166-13.125 1.5-2.309-1.023-2.309-1.023-4-2l1-5 1.563.5c3.17.65 6.21.562 9.437.5v-3l-2.812-1.312c-4.812-2.548-4.812-2.548-6.188-4.688-.483-3.792-.519-6.08 1.375-9.437 3.995-2.379 8.081-2.215 12.625-1.563"/><path fill="#f1d55e" d="M232 197c2 0 2 0 4.188 2.063q1.41 1.464 2.812 2.937a187 187 0 0 0 14 13c-2.45 3.676-3.905 3.69-8 5l-2.187 1.688L241 223c-3-1-3-1-4.098-3.004-2.908-7.711-5.249-14.67-4.902-22.996"/><path fill="#f1d65a" d="M169 198c.64 9.038-.93 16.861-5 25-2.448-.437-3.804-.826-5.687-2.5-3.508-2.275-7.21-2.246-11.313-2.5 3.879-4.97 8.206-8.926 13-13q3.22-2.853 6.434-5.715C168 198 168 198 169 198"/><path fill="#ecf2f8" d="m126.563 387.813 2.378.019C131 388 131 388 133 389v5l-8-1-1 3 2.813.813c4.667 1.738 4.667 1.738 6.187 4.187.65 6.06.65 6.06-1.176 8.703-2.53 1.798-4.314 1.629-7.387 1.547-.97-.015-1.94-.03-2.94-.047C119 411 119 411 117 410l1-5 9 1c-.704-3.282-.704-3.282-3.937-4.5L120 400c-2-3-2-3-1.812-6.562 1.206-5.104 3.54-5.713 8.374-5.625"/><path fill="#3893e9" d="M281 148c13.49-.503 25.145-.728 36.145 8.23 4.324 4.125 8.043 8.38 9.98 14.083-.15 3.22-1.134 4.243-3.125 6.687l-.629-1.906c-2.796-7.767-6.665-14.033-13.808-18.469-7.104-3.24-13.862-3.966-21.563-4.25l-2.637-.117q-3.18-.138-6.363-.258z"/><path fill="#0e213c" d="m239 165 2 3-2 3-1.66-1.812c-9.729-9.096-25.04-12.876-37.992-12.446-13.489 1.039-24.71 5.505-36.348 12.258l-3-2c24.836-16.878 53.374-18.254 79-2"/><path fill="#131a2b" d="M170 197v9h-1l-1-7-2.781 2.598c-11.479 10.702-11.479 10.702-17.317 15.75-5.181 4.5-10.258 9.12-15.289 13.789l-1.753 1.626a1407 1407 0 0 0-3.394 3.164c-7.54 7.01-7.54 7.01-11.216 7.26L114 243c4.17-5.297 8.732-9.342 13.996-13.54 3.168-2.594 6.189-5.302 9.192-8.085l1.537-1.424c.494-.458.988-.917 1.498-1.388a373 373 0 0 1 8.77-7.805c3.276-2.87 6.49-5.81 9.71-8.742 6.2-5.44 6.2-5.44 11.297-5.016"/><path fill="#c8cfd6" d="M200 157v5l-2.238.297c-10.51 1.549-19.302 4.077-27.79 10.629C168 174 168 174 165.747 173.668L164 173l-1-4c11.887-8.43 22.303-12.434 37-12"/><path fill="#d60908" d="M71 183h1v11h2l.664 2.457c4.651 16.242 12.679 29.293 27.508 38.106 4.46 2.266 9.057 3.951 13.828 5.437l-2 3c-13.378-1.259-23.576-11.234-32-21-8.89-11.931-11.212-24.463-11-39"/><path fill="#11202f" d="M236 197c5.008 3.105 9.126 6.745 13.375 10.813q2 1.89 4.004 3.78l1.91 1.805c2.555 2.392 5.183 4.692 7.836 6.973 2.263 1.966 4.472 3.986 6.688 6.004 5.242 4.737 10.681 9.197 16.187 13.625l-1 5-3-1v-2a95 95 0 0 0-4.687-4.375l-2.637-2.336a128 128 0 0 0-5.508-4.453L267 229v-2l-1.777-.777c-2.426-1.335-3.898-2.768-5.786-4.786-3.163-3.257-6.457-6.158-10-9A126 126 0 0 1 237 201a801 801 0 0 0-3-3z"/><path fill="#012450" d="M251 284c2.063 1.375 2.063 1.375 4 3 1.323.687 2.655 1.357 4 2q-4.651 2.975-9.312 5.938c-.882.563-1.763 1.127-2.67 1.708l-2.569 1.631-2.364 1.508C240 301 240 301 237 302c-.54-4.124-.773-7.897 0-12 3.757-4.383 8.217-6.563 14-6"/><path fill="#e7c868" d="M168 232c3.74 1.581 6.296 3.932 9.25 6.688 3.978 3.68 7.99 7.3 12.094 10.84 4.559 4.053 4.559 4.053 5.281 7.16-.938 4.972-4.024 7.888-7.625 11.312-3.822 2.548-5.466 2.68-10 2-1.97-1.503-3.527-3.162-5.184-5.004-1.828-2.01-3.747-3.738-5.816-5.496a124 124 0 0 1-7.562-7.062c-4.165-4.232-8.493-8.142-13.438-11.438 4.499.495 6.57 2.034 9.813 5.125l2.648 2.477L160 251c2.634 2.372 5.314 4.687 8 7l2.766 2.469 2.922 2.531 2.699 2.375c2.467 1.863 2.467 1.863 5.207 1.578 2.668-1.057 4.196-2.176 6.219-4.203l1.832-1.766c1.498-1.932 1.498-1.932 1.898-4.382-.792-3.793-3.198-5.583-6.043-7.977l-1.652-1.447a401 401 0 0 0-3.305-2.856c-2.061-1.766-4.08-3.578-6.106-5.385A58.6 58.6 0 0 0 168 234z"/><path fill="#f2f6fa" d="M135 389q3.093-.04 6.188-.062l3.48-.036c2.925.086 5.495.42 8.332 1.098v4h-6l.035 2.414c.09 10.524.09 10.524-1.035 15.586h-5v-19h-6z"/><path fill="#eaae38" d="M256 217c2.078 1.82 2.078 1.82 4.25 4.125a155 155 0 0 0 10.555 9.969c4.473 3.884 8.822 7.91 13.195 11.906l-2 2h-3a248 248 0 0 1-3.395-4.266c-3.008-3.25-6.854-5.43-10.605-7.734l-2 2v-6l-1.719-.254c-2.962-.969-4.526-2.548-6.781-4.684-2.716-2.562-5.061-4.57-8.5-6.062 6.339-2.45 6.339-2.45 10-1"/><path fill="#f0f2f5" d="M253 336c3.113 2.776 3.927 4.405 4.438 8.563-.662 5.198-.662 5.198-3.438 7.437-3.5.563-3.5.563-7 0-2.695-2.782-3.216-5.373-3.437-9.125C244 339 244 339 245.688 337c2.801-1.212 4.299-1.603 7.312-1"/><path fill="#f7f9fa" d="M172 337c2.13 1.595 2.903 2.483 3.398 5.121-.035 3.501-.102 6.205-1.523 9.442C172 353 172 353 169 353.438c-3.338-.487-4.032-.808-6-3.438-.398-2.375-.398-2.375-.375-5l-.023-2.625c.915-5.46 4.39-6 9.398-5.375"/><path fill="#768594" d="M148 253a137 137 0 0 1 5.5 5.375l1.434 1.46q2.036 2.08 4.066 4.165 1.996 2.005 4 4c-2.776-1.094-5.493-2.23-8.2-3.492-4.953-2.135-10.161-2.625-15.472-3.371C136 260 136 260 134.047 256.895L133 254c1.744-.56 3.496-1.097 5.25-1.625l2.953-.914c3.29-.542 4.119-.38 6.797 1.539"/><path fill="#4d6174" d="m258.45 250.816 2.238.746 2.261.692L265 253l3 1c-.573 2.867-.861 3.861-3 6a60 60 0 0 1-4.125.063c-6.398.44-11.171 3.598-16.516 6.875-1.758 1.07-3.556 2.072-5.359 3.062l-2-1 2.633-2.414 3.492-3.211 1.727-1.582 1.718-1.582 1.734-1.589a70 70 0 0 0 3.3-3.38c3.841-4.2 3.841-4.2 6.845-4.426"/><path fill="#0f5cd8" d="M328 198h1c-.943 13.835-8.984 24.554-18.578 33.89-6.343 5.525-13.355 8.889-21.422 11.11l-2-2 3.14-1.645 4.11-2.167 2.066-1.08c3.46-1.83 6.555-3.747 9.684-6.108h2v-2a64 64 0 0 1 3.563-3c8.664-7.44 12.806-16.326 16.437-27"/><path fill="#28548c" d="M255 389h6l1 1c2 .04 4 .043 6 0 1.45 5.502.36 9.185-1.437 14.375l-.737 2.23A526 526 0 0 1 264 412l3 1-6-1-1-22h-4v14l-2-1z"/><path fill="#f1cc4c" d="m138 233 1.875 2.375c2.271 2.806 3.732 3.588 7.125 4.625-6.403 6.125-16.039 5.192-24.254 5.07L120 245l2.18-1.734a394 394 0 0 0 5.39-4.407l2.555-2.109 2.57-2.14C135 233 135 233 138 233"/><path fill="#f8f9fa" d="M201 391h5c.087 3.937.14 7.874.188 11.813l.076 3.392.029 3.252.048 3C206 415 206 415 204.68 416.834c-2.51 1.74-4.714 1.363-7.681 1.165v-4h3z"/><path fill="#e5eaf0" d="M210 391h6v23h-6z"/><path fill="#0d3362" d="M152 333c2 2 2 2 2.313 5.375C154 342 154 342 153.063 344.438c-3.344 2.533-7.016 1.867-11.063 1.562l-1-4 5-1c.25-2.416.25-2.416 0-5l-3-2v-2c3.802-1.267 5.351-.475 9 1"/><path fill="#a8b1bb" d="M62 282c6.723 2.24 10.159 5.137 14 11v2l-14-1-1 3z"/><path fill="#1352a1" d="M186 395.75c3 .25 3 .25 5 2.25.3 2.059.3 2.059.313 4.438l.05 2.37c-.446 2.692-1.182 3.593-3.363 5.192-3.342-.245-4.605-.605-7-3-.266-2.094-.266-2.094-.25-4.5l-.016-2.406c.456-3.595 1.807-4.056 5.266-4.344"/><path fill="#0e233e" d="M240.25 134.625c6.985 2.561 12.628 7.04 17.75 12.375l-3 3v-3l-2.215-.8c-3.594-1.548-6.469-3.737-9.601-6.055-2.085-1.334-2.085-1.334-4.29-1.012-2.195 1.005-3.183 2.022-4.644 3.93L232 146c-3.344-.557-6.033-1.352-9-3v-1l3.625.438c2.228.115 2.228.115 4.375-.438 1.687-1.573 1.687-1.573 3.063-3.562 2.58-3.397 2.58-3.397 6.187-3.813"/><path fill="#e2bf60" d="m243 223 2 1c-10.462 9.558-10.462 9.558-14.937 13.438-4.062 3.522-8.006 7.168-11.94 10.831-2.299 2.127-4.51 3.989-7.123 5.731-.626 2.379-.626 2.379 0 5 1.945 2.55 1.945 2.55 4.5 4.813l2.531 2.394L220 268l-3 1c-4.466-3.256-8.384-6.229-9.625-11.812 1.465-7.473 10.021-12.194 15.645-16.715 4.231-3.511 8.236-7.24 12.253-10.993 2.501-2.274 5.062-4.402 7.727-6.48"/><path fill="#022d61" d="M193 298h7v11c-3.314-.088-6.625-.195-9.937-.312l-2.807-.069c-6.68-.258-14.298-.66-19.256-5.619q2.688.464 5.375.938l3.023.527C179 305 179 305 181 306c4.032.323 4.032.323 8 0 2.575-2.325 3.397-4.624 4-8"/><path fill="#1a5aa6" d="M169 391h12l-2.5 2.375c-3.01 3.6-3.101 6.711-2.867 11.285.647 4.126 2.488 6.461 5.367 9.34l-2.937-.562L175 413l-1 1q-3.5.062-7 0v-1h6l-.945-1.61-1.18-2.14-1.195-2.11c-.68-2.14-.68-2.14.14-4.343C171 401 171 401 172 400c-.285-5.025-.285-5.025-3-9"/><path fill="#f2f3f7" d="M190 129q5.219-.04 10.438-.062l3.01-.026 2.86-.01 2.65-.016C211 129 211 129 212 130c.072 1.853.084 3.708.063 5.563l-.028 3.066L212 141l-2-1v-8h-17l-1 7-2 2z"/><path fill="#001e47" d="M200 223h1v50h-6l-2-2 1.094-1.434c3.726-5.309 4.575-9.14 3.906-15.566h1z"/><path fill="#c9ced4" d="m340 282 .148 1.828.227 2.422c.07.789.14 1.578.21 2.39.29 2.376.29 2.376 1.478 4.329 1.224 2.654.94 4.406.562 7.281l-.336 2.703L342 305h-1l-2-10-6-1c-.288-3.05-.447-5.96 0-9 2.422-2.104 3.782-3 7-3"/><path fill="#142644" d="m196 157-2.02.297c-11.456 1.859-20.97 5.895-30.98 11.703l-3-2c24.097-16.376 24.097-16.376 36-10"/><path fill="#03387e" d="M171 181c7.49 9.273 7.154 18.588 7 30h-4l-.06-1.848c-.096-2.78-.205-5.56-.315-8.34-.03-.96-.062-1.919-.094-2.908l-.117-2.822-.095-2.587c-.353-2.759-1.289-4.922-2.319-7.495z"/><path fill="#bac3cc" d="m184 162-1 2 3 1-1.652.445c-5.551 1.651-9.705 3.927-14.305 7.446C168 174 168 174 165.738 173.67c-.573-.22-1.147-.443-1.738-.671v-3h2v-2c14.738-7.631 14.738-7.631 18-6"/><path fill="#f2f4f7" d="M162.89 138.242 165 139l1 5-2.437-.312c-4.959.434-8.395 2.718-12.563 5.312v7c-2.062-1.687-2.062-1.687-4-4 .02-2.34.02-2.34 1-5 2.547-2.492 2.547-2.492 5.75-4.875l3.172-2.43C160 138 160 138 162.89 138.242"/><path fill="#b87a18" d="M145 241c4.499.495 6.57 2.034 9.813 5.125l2.648 2.477L160 251c4.48 4.033 9.068 7.94 13.688 11.813l2.699 2.269c2.496 1.832 4.696 2.925 7.613 3.918v1c-3.062.438-3.062.438-7 0-1.984-1.495-3.523-3.158-5.184-5.004-1.828-2.01-3.747-3.738-5.816-5.496a124 124 0 0 1-7.562-7.062c-4.165-4.232-8.493-8.142-13.438-11.438"/><path fill="#c28218" d="m253 241 3 1-1.879 1.441c-6.78 5.36-12.876 11.146-18.904 17.329-8.947 9.147-8.947 9.147-14.03 9.48L218 270c2-2 2-2 4.242-2.777 3.61-1.6 6.091-4.07 8.883-6.786a231 231 0 0 1 15.535-13.5c2.255-1.867 4.306-3.833 6.34-5.937"/><path fill="#022049" d="M173 205h1c2.966 9.084 1.744 15.969-1 25l-5-4 .586-1.8c1.991-6.34 3.355-12.644 4.414-19.2"/><path fill="#021e3f" d="M254 247q3.126.465 6.25.938l3.516.527c2.465.408 4.828.874 7.234 1.535l-2 6-1-2c-4.472-1.44-9.708-3.064-14.129-1.012-1.827 1.492-1.827 1.492-3.871 4.012 0-4.246 1.818-6.385 4-10"/><path fill="#eb8042" d="M256 217c2.176 1.707 2.176 1.707 4.313 3.813l2.175 2.082C264 225 264 225 263.73 227.262L263 229c-3.844-.568-5.72-2.305-8.5-4.937-2.716-2.563-5.061-4.57-8.5-6.063 6.29-2.43 6.29-2.43 10-1"/><path fill="#95a0ab" d="M225 163c5.015 1.54 9.615 3.03 14 6l-2 5c-3.656-.688-6.519-2.254-9.75-4.062l-2.984-1.66L222 167z"/><path fill="#0a325c" d="m234 270 2 1q-1.935 1.722-3.875 3.438l-2.18 1.933c-3.722 3.117-7.253 3.024-11.945 2.629-2.062-.937-2.062-.937-4-2-2.325-.387-4.659-.73-7-1v-1l3.621-.078c8.735-.28 15.54-.722 23.379-4.922"/><path fill="#99a4b1" d="M231 287h2l1 11c-6.808 3.015-12.561 4.683-20 5l-1-4 2.145.59c3.311.476 5.36-.05 8.542-1.027C228.866 297 228.866 297 231 297z"/><path fill="#1d4269" d="M167 271c2.468.592 4.88 1.266 7.313 2 4.565 1.238 8.953 2 13.687 2h7v1l-3.312.938A170 170 0 0 0 185 279c-4.724.549-8.101.466-12.375-1.75-2.293-1.965-4-3.72-5.625-6.25"/><path fill="#161c2f" d="M170 197v9h-1l-1-7-1.19 1.177a704 704 0 0 1-5.435 5.26l-1.871 1.854c-3.703 3.527-6.157 5.52-11.504 5.709 3.431-4.718 7.574-8.264 12-12l2.688-2.437c2.681-1.812 4.14-1.926 7.312-1.563"/><path fill="#012049" d="M274.047 255.668c1.987.018 3.972.167 5.953.332-1.83 4.667-3.65 8.188-7 12l-5-7c2.892-4.82 2.892-4.82 6.047-5.332"/><path fill="#d8dde4" d="M238 138c4.619.54 7.524 2.44 11.313 5.063l3.238 2.222L255 147c-.92 6.59-.92 6.59-4 9l.688-3.062c-.266-4.02-.266-4.02-3.067-5.926-3.46-2.18-6.964-4.183-10.621-6.012z"/><path fill="#0b1f36" d="m194.066 293.902 2.496.036 2.504.027L201 294l-2 3-2.437.25L194 298c-1.746 3.407-1.746 3.407-3 7-2 2-2 2-3.945 2.195L181 307c2.297-1.743 4.599-3.4 7-5a161 161 0 0 0 3-7c1-1 1-1 3.066-1.098"/><path fill="#012048" d="M200 166c9.122.86 17.692 3.123 26 7v2q-2.657-.718-5.312-1.437l-2.989-.81A121 121 0 0 1 212 171a119 119 0 0 0-5.687-.062l-3.012.027L201 171z"/><path fill="#1158b3" d="M154 66h19v46h-1l-.076-3.824q-.142-7.005-.296-14.01a3580 3580 0 0 1-.125-6.07q-.088-4.358-.187-8.713l-.05-2.753-.06-2.547-.048-2.248c-.053-1.932-.053-1.932-1.158-3.835-2.714-.312-5.34-.513-8.062-.625l-2.3-.117c-1.878-.095-3.758-.177-5.638-.258z"/><path fill="#f07c3d" d="M153 218q-1.746 1.749-3.5 3.488a154 154 0 0 0-3.062 3.18c-1.424 1.499-2.928 2.92-4.438 4.332h-3c-.437-2.125-.437-2.125 0-5 3.94-5.007 7.546-6.79 14-6"/><path fill="#abb7c2" d="M263 261h2c1.508 1.75 1.508 1.75 3.125 4l1.633 2.25L271 269c-1.587 3.903-4.134 6.335-7.125 9.25l-2.758 2.703L259 283l-3-1h2l.625-1.625c1.354-2.339 2.564-3.488 4.563-5.25 1.62-1.474 1.62-1.474 2.812-3.125.185-3.229.185-3.229-1-6l-2-2z"/><path fill="#1058d0" d="m303 232 2 1c-.105 1.79-.105 1.79-1 4-2.8 1.773-2.8 1.773-6.312 3.375l-3.489 1.648c-3.199.977-3.199.977-5.617.141L287 241l3.246-1.715 4.192-2.222 2.142-1.131c3.425-1.657 3.425-1.657 6.42-3.932"/><path fill="#c40d0e" d="M71 183h1v11h2q.974 3.06 1.938 6.125l1.09 3.445c.891 3.144 1.506 6.199 1.972 9.43l-2 1q-1.228-3.059-2.437-6.125l-1.372-3.445c-1.855-5.34-2.316-10.176-2.254-15.805l.028-3.21z"/><path fill="#102743" d="M159 138v2a94 94 0 0 1-5.375 4.125l-3.023 2.195C148 148 148 148 146 148v3l-3 1c-.36-2.2-.36-2.2 0-5 1.908-1.887 3.582-3.298 5.75-4.812l1.633-1.233c3.234-2.347 4.493-2.955 8.617-2.955"/><path fill="#cdd3d9" d="m191 158-1 2c-2.165.7-4.359 1.31-6.562 1.875-5.61 1.521-10.341 3.38-15.438 6.125h-2v2l-3 1c.686-2.35 1.556-3.705 3.6-5.064a143 143 0 0 1 6.275-3.124l2.184-1.076c5.543-2.69 9.698-3.878 15.941-3.736"/><path fill="#072850" d="m145 248 1 3c-4.555 2.204-9.03 2.588-14 3l-1-4c4.842-1.336 8.934-2.253 14-2"/><path fill="#021833" d="M191.247 126.773c.91.01 1.822.02 2.76.032l2.99.02 3.128.05 3.152.027q3.862.036 7.723.098v1l-1.82.076q-4.06.175-8.117.361l-2.866.12-2.724.127-2.524.11c-1.952 0-1.952 0-2.949 1.206a123 123 0 0 0-.562 5.562l-.254 3.067L189 141h-5l3-1-.07-2.336-.055-3.039-.07-3.023c.253-3.378 1.006-4.482 4.442-4.83"/><path fill="#657381" d="M332 285h1v9h6v1h-14c2.2-3.666 4.245-6.786 7-10"/><path fill="#657383" d="M68 285c3.303 1.101 3.785 1.69 5.688 4.438l1.324 1.87C76 293 76 293 76 295c-5.75.125-5.75.125-8-1z"/><path fill="#f3b93e" d="m138 225 2 1c-1.084 6.261-1.084 6.261-3.55 8.25-1.791.981-3.61 1.865-5.45 2.75a96 96 0 0 0-4 3c2.674-5.76 6.872-10.244 11-15"/><path fill="#031d3d" d="M212 127c3 2 3 2 3.512 4.164l.175 2.461.2 2.477L216 138l7 2-1 2-9-1z"/><path fill="#002454" d="m198 254 2 1v17h-7l1.094-1.652c3.568-5.8 4.444-9.564 3.906-16.348"/><path fill="#d7b866" d="m243 223 2 1c-17.289 15.795-17.289 15.795-23 20v-3c2.14-2.057 4.27-3.939 6.563-5.812l1.845-1.542a950 950 0 0 1 3.702-3.074c2.993-2.49 5.942-5.03 8.89-7.572"/><path fill="#e7d997" d="M232 197h2c2.491 3.737 2.207 5.745 2.125 10.188l-.055 3.855L236 214c-3.2-3.2-3.86-7.662-4.125-12.082 0-1.64.057-3.28.125-4.918"/><path fill="#f9e88b" d="M169 198c.369 11.522.369 11.522-2 17h-1v-12l-2-1c3.875-4 3.875-4 5-4"/><path fill="#112742" d="m192 164-1.937.813c-2.394 1.074-2.394 1.074-3.063 4.187l-8 1-2-3q2.618-1.048 5.25-2.062l2.953-1.16c2.837-.79 4.091-.802 6.797.222"/><path fill="#9da5af" d="m334 284 3 1 1 9h-5q-.04-2.22-.062-4.437l-.036-2.497C333 285 333 285 334 284"/><path fill="#dde2ea" d="M273 334c2.375-.125 2.375-.125 5 0l2 2c-.375 2.125-.375 2.125-1 4a88 88 0 0 1-5 1c-1-1-1-1-1.062-4.062z"/><path fill="#deb855" d="m192 255 2 2c-.502 4.678-3.634 7.94-7 11-2.875.938-2.875.938-5 1q1.404-1.659 2.813-3.312l1.582-1.864C188 262 188 262 189.656 260.406c1.64-1.716 1.946-3.098 2.344-5.406"/><path fill="#eceff3" d="M141 335a100 100 0 0 1 5 0c1 1 1 1 1.125 3.5C147 341 147 341 146 342c-1.666.04-3.334.043-5 0z"/><path fill="#eaac22" d="M273 235c2.992 1.364 5.29 2.95 7.75 5.125l1.86 1.633L284 243l-2 2c-3 0-3 0-4.605-1.426l-1.582-1.887-1.606-1.863C273 238 273 238 273 235"/><path fill="#374a64" d="m196 157-2.23.402-2.958.536-2.917.527A463 463 0 0 0 180 160v-2l-2-1q2.37-.797 4.75-1.562l2.672-.88c4.21-.911 6.878.46 10.578 2.442"/><path fill="#00142f" d="M63 295q3.156-.04 6.313-.062l3.55-.036C76 295 76 295 79 296l-1 3a762 762 0 0 1-6.375-.875l-3.586-.492C65 297 65 297 63 295"/><path fill="#16263d" d="M228 161c5.71.418 8.61 2.575 13 6l-2 4-1.562-1.75c-2.946-2.72-5.912-4.352-9.438-6.25z"/><path fill="#2e4f7c" d="M135 330h10l1 2h-9c-.844 3.98-1.447 7.97-2 12h-1c-.083-4.833.047-9.237 1-14"/><path fill="#aa771b" d="m253 241 3 1-2.16 1.723c-5.584 4.502-10.919 9.054-15.84 14.277l-2-2 1.345-1.162 6.03-5.213 2.117-1.828 2.031-1.758 1.873-1.619A82 82 0 0 0 253 241"/><path fill="#eceef0" d="m154 142 2 1c-2.75 4.875-2.75 4.875-5 6v7c-2.062-1.687-2.062-1.687-4-4-.125-2.437-.125-2.437 1-5 1.886-1.901 3.84-3.39 6-5"/><path fill="#8d9aa7" d="m227 299 1 2c-9.41 2.296-9.41 2.296-14 2l-1-4 2.125.625c4.593.6 7.417-2.11 11.875-.625"/><path fill="#d1d7e0" d="M212 130v11l-2-1v-8h-9c3.45-2.3 7.05-3.975 11-2"/><path fill="#014191" d="M199 392h1v21l-3-1h2l-2-3c-.043-1.901-.043-1.901.242-4.012l.293-2.295.34-2.38.316-2.417c.26-1.966.533-3.931.809-5.896"/><path fill="#d39222" d="M169 261c4.34.5 6.752 3.283 10 6 2.712 1.305 2.712 1.305 5 2v1c-2.784.464-4.31.679-7 0-3.029-2.354-5.58-5.027-8-8z"/><path fill="#163c6f" d="M111 347c3.438.813 3.438.813 7 2l1 3-8 1c-1.125-3.75-1.125-3.75 0-6"/><path fill="#afb9c3" d="m237 139 1 3c-1.5 2.625-1.5 2.625-4 5-6.07 1.465-6.07 1.465-9 0v-2l3.188.375c3.668.004 3.668.004 5.39-1.71 1.22-1.494 2.33-3.076 3.422-4.665"/><path fill="#0b3d7d" d="M251.563 390.938 254 391v7h-3l-3-6c1-1 1-1 3.563-1.062"/><path fill="#e5c874" d="m220 243 2 1a1200 1200 0 0 1-3.75 3.813l-2.11 2.144C214 252 214 252 211.86 253.574c-2.12 1.467-2.12 1.467-3.86 4.426.3-4.28 1.817-6.187 4.998-8.994l1.565-1.319 1.576-1.376A383 383 0 0 1 220 243"/><path fill="#1f4675" d="M117 328q2.406-.079 4.813-.125l2.707-.07C127 328 127 328 130 330l-2 4-7-1 4-1v-2l-8-1z"/><path fill="#3169ae" d="M174 407h2a132 132 0 0 1 3 5l2 2-2.937-.562L175 413l-1 1q-3.5.062-7 0v-1h6z"/><path fill="#021732" d="m333.813 294.938 2.957.027L339 295l-1 2c-2.714.312-5.34.513-8.062.625l-2.3.117c-1.878.095-3.758.177-5.638.258l1-2c3.621-1.023 7.067-1.108 10.813-1.062"/><path fill="#0c4ea2" d="M173 401c1.125 1.625 1.125 1.625 2 4-.875 3.25-.875 3.25-2 6-1.562-1.75-1.562-1.75-3-4 .265-3.004.833-3.833 3-6"/><path fill="#174078" d="M226 396h5c.563 1.938.563 1.938 1 4-1 1-1 1-3.562 1.063L226 401z"/><path fill="#1e5aa7" d="M161 395h5c.563 1.938.563 1.938 1 4-1 1-1 1-3.562 1.063L161 400z"/><path fill="#3c96e9" d="M273 153c-2.834 3.254-4.686 4.52-9 5v-2h2l1-3c2.49-1.245 3.41-.777 6 0"/><path fill="#c2c9d0" d="M62 282c2 2 2 2 2.195 4.164l-.07 2.461-.055 2.477L64 293h-2l-1 4z"/><path fill="#09264a" d="M264 250h7l-2 6-1-2c-2.527-.656-2.527-.656-5-1z"/><path fill="#0a1b2e" d="M270 230c4.314.48 6.166 1.746 9 5l-3 2z"/><path fill="#1269e1" d="M328 198h1c-.508 5.966-2.386 10.638-5 16h-2l.867-2.137a310 310 0 0 0 3.258-8.675l1.07-2.958z"/><path fill="#464f46" d="M165 197c2.625-.187 2.625-.187 5 0v9h-1l-1-7-5 4c0-3 0-3 2-6"/><path fill="#828e9b" d="M153 260c3.941 1.668 6.79 4.227 10 7l-2 1c-2.164-.777-2.164-.777-4.625-1.937l-2.477-1.153L152 264z"/><path fill="#d8dde2" d="m191 158-1 2c-4.296 1.268-7.51 2-12 2v-2c4.537-1.452 8.18-2.235 13-2"/><path fill="#051c3a" d="M237 135c6.4.492 6.4.492 9.438 3.063L248 140l-7-1v-2l-4-1z"/><path fill="#1855a0" d="M194 393h5l-1 12h-1l-.402-2.117-.536-2.758-.527-2.742C195.1 395 195.1 395 194 393"/><path fill="#d5b055" d="M168 232c3.239 1.444 5.62 3.258 8.25 5.625l2.14 1.914L180 241l-3 1-1.46-1.496c-.633-.64-1.264-1.281-1.915-1.941l-1.898-1.934c-1.644-1.708-1.644-1.708-3.727-2.629z"/><path fill="#d9dee3" d="m166 141 1.688 1.938c2.533 2.259 3.995 2.693 7.312 3.062-2 2-2 2-4.437 2.375C168 148 168 148 166.125 146.188L165 144z"/><path fill="#0f4e9a" d="m196 407 3 1v4l-2 1c-.656 2.527-.656 2.527-1 5h-1c-1.23-6.4-1.23-6.4-.062-9.437z"/><path fill="#243033" d="M153 218c4.194.671 7.403 2.856 11 5-1.75 1.125-1.75 1.125-4 2-2.187-.625-2.187-.625-4-2-.625-2.062-.625-2.062-1-4z"/><path fill="#0b182a" d="M255 215c2.915 1.074 4.778 1.778 7 4v3c-2.867-1.285-4.976-2.571-7-5z"/><path fill="#e6b658" d="m152 212 3 6h-8z"/><path fill="#e22616" d="M167 186c2 2 2 2 2.125 5.125L169 194l-3-1c-1.187-2.562-1.187-2.562-2-5h2z"/><path fill="#2d4f81" d="M273 395h2l2 7h-5z"/><path fill="#dbe2eb" d="M216.688 383.75 219 384l-4 5-4-1c2.338-3.938 2.338-3.938 5.688-4.25"/><path fill="#184678" d="M167 271c3.356.6 5.378 1.846 8 4l-1 3a858 858 0 0 1-3.5-2.937l-1.969-1.653L167 272z"/><path fill="#d58d17" d="m226 265 3 1c-1.562 2-1.562 2-4 4-3.75.25-3.75.25-7 0 2.23-2.23 4.091-2.881 7-4z"/><path fill="#1e2e46" d="M222 157c5.75 1.75 5.75 1.75 8 4-4.054 1.158-6.218.837-10-1z"/><path fill="#071d3c" d="m165 138 4 1 .375 2.438L170 144l2 1c-2.798-.386-3.82-.801-5.75-2.937C165 140 165 140 165 138"/><path fill="#002151" d="M272 330h9l-3 1 1 3-6-1z"/><path fill="#243036" d="M245 219c0 3 0 3-1.312 4.387L239 227l-1-5 2.375-.375c2.766-.416 2.766-.416 4.625-2.625"/><path fill="#1c304c" d="m166 163 2 1c-1 3-1 3-3.062 4.188L163 169l-3-2z"/><path fill="#16407b" d="M247 401c2.964 2.808 5.445 5.183 7 9-3.399-1.133-4.734-2.265-7-5z"/><path fill="#012b61" d="m173 354-2 4h-4v-4c3-1 3-1 6 0"/><path fill="#032145" d="M145 145h2l-1 6-3 1c-.125-2.375-.125-2.375 0-5z"/><path fill="#022755" d="M193 298h6c-4.75 4.875-4.75 4.875-7 6z"/><path fill="#cba330" d="m256 239 4 1v2l3 1-2 1a101 101 0 0 1-6-3z"/><path fill="#1a232f" d="m126 233 3 1-7 6c.96-3.837 1.236-4.597 4-7"/><path fill="#0d1a36" d="m228 161 6 1 1 3c-4.75-.875-4.75-.875-7-2z"/><path fill="#031b38" d="m75 295 4 1-1 3-9-1v-1h6z"/><path fill="#8c651c" d="M145 241c4.833.414 6.827 2.464 10 6-3 0-3 0-5-1.875L148 243z"/><path fill="#e4bb31" d="m141 238 6 2c-3.75 3-3.75 3-6 3z"/><path fill="#1f242b" d="m262 220 4 3-1 4-4-5z"/></svg>