<svg xmlns="http://www.w3.org/2000/svg" width="400" height="468"><path fill="#0b2850" d="M0 0h400v468H0z"/><path fill="#fbfbfc" d="M0 0h400v468H0zm226 118c-7.239 7.816-7.239 7.816-11 17l7 1-.988 2.121c-1.115 3.173-1.246 5.59-1.2 8.941l.02 3.098c.144 2.44.47 4.508 1.168 6.84l-1.875.75c-2.585 1.52-3.037 2.486-4.125 5.25-.781 6.623-.355 12.216 3 18 2.416 2.919 2.416 2.919 5 5h2l-.152 2.637c.41 9.068 6.569 16.57 12.968 22.515 4.545 4.176 4.545 4.176 10.184 5.848v2l-2.238.078c-12.374.692-20.416 3.815-29.348 12.3-3.867 3.589-3.867 3.589-6.668 3.759C208 234 208 234 207.051 231.613c-1.353-3.363-2.643-3.865-5.863-5.425-5.638-2.86-10.91-6.073-16.243-9.454-5.209-3.067-9.2-4.02-15.257-4.359l-3.801-.227L163 212l1.355-1.363c6.015-6.4 10.62-13.542 11.083-22.512.212-3.717.212-3.717 1.875-5.652 1.525-1.207 3.105-2.343 4.687-3.473 3.51-5.147 2.672-12.086 2-18-1.307-3.061-2.284-3.887-5-6-2.671-.955-2.671-.955-5-1l1-9 2 1c12.755.978 12.755.978 24.434-3.516 1.766-1.674 2.619-3.257 3.566-5.484l-2.262-.555c-3.76-1.985-4.835-4.869-6.55-8.57-4.974-9.887-10.34-16.033-20.961-20.04-6.65-1.722-13.317-1.514-19.977.04-4.411.17-6.144-1.66-9.64-4.172-12.642-8.251-28.405-8.697-42.86-5.703-16.447 5.018-30.517 14.192-39.348 29.219C60.752 132.474 58 138.039 58 144l-2-1c-10.736-.954-18.618 1.167-26.926 8.04-6.747 6.377-11.274 13.506-11.693 22.886l-.069 2.449-.103 2.52c-.082 2.034-.147 4.07-.209 6.105l-4 2 1 3c6.674 2.764 16.712 1.96 23.508-.023C44.6 186.759 48.503 182.889 52 176l1.242-2.355A193 193 0 0 0 56 168l.77 2.45 1.042 3.238 1.02 3.199c1.052 3.137 1.052 3.137 2.867 5.758C63 185 63 185 62.754 187.047L62 189l-.535 2.14L60 197l-2.45-.84-3.237-1.097-3.2-1.09c-9.713-3.035-21.115-3.514-30.39 1.18-7.867 4.854-14.974 11.792-18.102 20.648C.574 226.345.425 239.136 5 249l1.184 2.684C12.158 263.886 21.606 271.688 34 277c10.743 2.999 23.068 1.805 33-3l1 6a438 438 0 0 1-13 2c1.704 6.04 4.788 10.971 8.074 16.254l1.223 2.066 1.136 1.852C66 304 66 304 65.293 306.167 64 308 64 308 61 309l-.837-2.196c-1.11-2.674-2.361-5.138-3.765-7.667l-1.484-2.686-1.539-2.764c-.516-.93-1.031-1.862-1.562-2.822A3507 3507 0 0 0 48 284h-7c.648 4.947 2.734 9.057 4.875 13.5l1.066 2.262c1.844 3.871 3.767 7.606 6.059 11.238l-1.922-.219c-10.024-.997-20.015-.87-30.078-.781 2.643 8.422 6.1 16.408 9.68 24.469l1.336 3.11 1.227 2.793c1.434 4.98-.692 9.073-2.528 13.733l-1.358 3.479-1.42 3.603q-1.396 3.552-2.785 7.106l-1.25 3.173c-1.014 2.4-1.014 2.4-.902 4.534 14.276 2.557 28.51 3.227 43 3l-.125 2.813c-.146 3.345-.146 3.345 2.125 6.187 2.17.984 2.17.984 4.688 1.625l2.511.727c2.897.738 2.897.738 6.317.96 4.161.822 5.582 2.084 8.546 5.063 27.281 26.131 61.37 45.326 94.5 62.938l3.265 1.763 3.052 1.6 2.705 1.435c3.831 1.41 5.79.174 9.393-1.466a456 456 0 0 0 3.648-1.832l2.061-1.042C226.611 450.633 244.238 441.149 261 430l2.082-1.377c13.848-9.201 27.213-19.148 39.721-30.11 5.962-5.184 11.117-7.268 18.845-8.447 2.27-.404 2.27-.404 5.352-2.066 1.516-2.896 2.328-5.81 3-9l2.133-.06c13.39-.396 26.617-.878 39.867-2.94-.64-3.717-1.681-7.022-3.066-10.527l-1.221-3.15q-1.275-3.258-2.563-6.509l-1.216-3.154-1.124-2.855c-1.664-5.76-.72-9.762 1.596-15.192l1.504-3.592 1.59-3.709a1679 1679 0 0 0 3.094-7.324l1.396-3.264c1.184-2.709 1.184-2.709 1.01-5.724l-30-1c6-12.437 6-12.437 7.898-16.365l1.477-3.069 1.523-3.158c1.171-2.118 1.171-2.118 1.102-3.408l-3.812-.25-2.145-.14c-2.654.27-2.654.27-5.043 4.39l-4-12 6 2c8.835.9 16.147.154 24-4l2.52-1.25c10.274-5.556 17.095-14.027 21.48-24.75l.776-1.729c3.923-9.319 4.392-21.962.9-31.505-3.963-8.967-9.637-15.726-18.488-19.942-10.58-3.986-21.652-4.344-32.333-.48C343 195 343 195 341 195l1-2c.097-1.936.13-3.875.125-5.812l.008-3.145c.009-2.974.009-2.974-.914-5.398-.36-4.34 2.024-7.471 4.156-11.145 5.797-10.171 7.343-20.452 5.129-32.113-1.881-5.473-5.064-10.194-10.317-12.762L338 122l1-2c.66-5.163.77-9.6-2.25-14-2.148-2.757-3.375-3.312-6.75-5v9h-2l-.742-2.277C324.099 100.886 315.724 96.808 309 94l-2.43-1.129c-6.74-2.74-13.009-3.233-20.195-3.246l-2.637-.005C260.952 90.007 241.16 101.45 226 118"/><path fill="#0e1827" d="m147.297 104.547 1.766 1.39c2.767 2.399 2.767 2.399 6.062 1.876L159 107c10.31-.927 18.683.54 27.246 6.586 5.109 4.561 8.035 10.174 10.878 16.31 1.53 3.177 2.446 4.877 5.614 6.55L205 137c-1.8 4.231-3.947 5.887-7.945 8.023-6.008 1.921-16.326 2.842-22.055-.023l-1 9 2.75.688c3.866 1.561 5.04 2.805 7.25 6.312.39 3.55.39 3.55.25 7.313l-.11 3.8L184 175h-2l-1-2-2 2-.148-2.773-.227-3.602-.21-3.586c-.117-3.145-.117-3.145-2.415-5.039-2.57-.648-2.57-.648-5-1l-1 3-2-1 .438 1.992c2.083 10.68 4.434 25.154-1.11 35.13A76 76 0 0 1 159 208l-1.586 1.656c-10.323 9.87-23.832 10.828-37.316 10.614-11.83-.443-20.084-4.874-29.098-12.27l-2.812-2.25L86 204l-1 3c-3.177 1.589-6.54 1.41-10 1-2.5-1.5-2.5-1.5-4-3l-2 1v2a70 70 0 0 0 3.438 2.75c3.97 3.36 6.71 7.038 9.5 11.375l1.179 1.812c2.071 3.318 3.42 6.165 3.883 10.063l-1.496 1.172-1.942 1.578-1.933 1.547c-1.771 1.553-1.771 1.553-2.035 3.605-.923 3.259-3.14 4.712-5.656 6.91l-1.516 1.336A792 792 0 0 1 68 254l-2.086 1.855A441 441 0 0 1 60 261l-1.476 1.269a1062 1062 0 0 1-4.899 4.168l-1.59 1.364C48.23 271 48.23 271 46 271v2c10.57-1.655 10.57-1.655 21-4l1-2c2.215 2.774 3.744 5.452 5.188 8.688 2.72 5.617 6.484 9.866 10.812 14.312l-2 1-3-1v20h-5v-14l-5-1-1-1c.225-3.473.587-6.925.941-10.387.06-3.701-.564-6.205-1.941-9.613l-1.809.875c-9.589 4.104-21.02 4.998-31.129 2-2.027-.844-2.027-.844-4.062-1.875l-2.441-1.219C14.746 266.74 6.415 255.62 2.3 241.621.884 229.275.247 216.63 7.988 206.363c7.625-9.02 14.795-13.423 26.5-14.617 8.4-.386 17.963 1.48 25.512 5.254l.938-3.75C62 189 62 189 62.676 186.93c.484-2.883-1.064-4.478-2.551-6.848-2.044-3.783-3.026-7.944-4.125-12.082l-1.434 3.07C50.676 179.066 47.461 185.187 39 189l-2.27 1.121c-3.588 1.155-7.003 1.17-10.73 1.129l-2.117.023c-4.07-.015-7.224-.472-10.883-2.273v-2l4-2 .043-3.621c.404-16.442.404-16.442 5.957-23.379l1.535-2.098C29.682 149.392 36.623 144.142 45 143q2.842-.134 5.688-.125l2.886-.008C56 143 56 143 58 144l.227-1.8c2.191-13.816 10.653-24.855 21.507-33.337 19.605-13.06 46.941-18.204 67.563-4.316"/><path fill="#f9fafa" d="M63 317h270c-4.597 26.433-4.597 26.433-6.14 34.652l-.522 2.794q-.792 4.245-1.588 8.491l-1.102 5.9A24916 24916 0 0 1 321 383c-21.905 4.662-43.693 8.755-66 11l-2.229.225c-33.953 3.371-67.78 4.15-101.771.775l-3.538-.34C122.808 392.256 98.037 389.19 74 383l-.509-2.939a1699 1699 0 0 0-4.534-24.916l-.53-2.804c-.722-3.818-1.443-7.635-2.174-11.45q-.81-4.248-1.608-8.496l-.502-2.595-.456-2.441-.403-2.12C62.938 322.514 63 319.75 63 317"/><path fill="#0c1929" d="M322.898 102.07c2.024 1.859 3.617 3.62 5.102 5.93v2h2v-9c4.19 2.514 7.19 4.375 9 9 .729 8.543.729 8.543-1 12l2.125.5c4.99 2.604 7.896 7.15 10.031 12.277 3.32 12.678.342 23.91-5.906 34.973l-1.922 3.234c-1.516 3.443-1.333 4.494-.328 8.016q.134 3.061.125 6.125l.008 3.133C342 193 342 193 341 196l3.188-1.437c9.078-4.095 20.68-3.817 30.125-1.125 10.236 3.976 16.944 11.54 21.46 21.417 3.778 11.01 2.646 24.836-2.16 35.286-7.47 13.24-16.92 22.568-31.543 27.511-2.992.503-5.912.52-8.945.536l-3.617.042C346 278 343.264 277.263 340 276l1 2c.468 4.022.23 5.652-2.035 9.086-2.72 4.571-2.208 8.707-1.715 13.851.066.875.131 1.75.2 2.65.163 2.14.354 4.277.55 6.413h-5l-5-25 1 11c-2.686-2.686-3.06-5.376-4-9a56.5 56.5 0 0 0-7 4h-4v-2c.749-.425 1.498-.85 2.27-1.29 3.19-1.998 4.468-3.887 6.418-7.085.58-.936 1.162-1.872 1.761-2.836 2.773-4.986 4.545-9.025 3.551-14.789-3.302-3.873-7.287-7.033-12-9-3.167-.167-3.167-.167-6 0v2c1.657 1.41 1.657 1.41 3.75 2.813 3.338 2.409 5.856 4.795 8.25 8.187-3 0-3 0-4.684-1.46-.578-.633-1.157-1.264-1.753-1.915-2.356-2.561-4.302-4.338-7.563-5.625-3.167-.167-3.167-.167-6 0l-1 3 1.61 1.39c3.573 3.105 7.109 6.192 10.39 9.61l-1 2-1.61-1.68-2.14-2.195-2.11-2.18c-2.02-1.835-3.598-2.987-6.14-3.945-2.69.304-2.69.304-5 1 .263 6.45 2.507 9.48 7 14-1.992 4.503-4.879 7.348-9 10-2.562.313-2.562.313-5-1a65 65 0 0 1-4.668-5.504L282 281h-2c.335-3.02.59-4.592 2.777-6.773l2.16-1.602c3.975-3.235 4.836-5.621 6.063-10.625 2.313-2.125 2.313-2.125 5-4l2.438-2.562C301.436 252.586 304.704 250 309 250l-.484-2.113c-.548-3.067-.72-5.96-.766-9.074l-.078-3.168L308 233l3-2 .148 2.125c.46 5.842 1.256 11.236 2.852 16.875l2.5.25c6.425 1.377 10.957 4.044 15.5 8.75 2.138.787 2.138.787 4 1-.7 3.147-1.76 6.026-3 9 5.879 2.613 11.707 2.183 18 2-4.693-4.253-9.446-8.396-14.375-12.375-3.98-3.244-7.906-6.534-11.75-9.937l-2.758-2.426c-2.182-2.332-2.45-3.285-3.117-6.262-1.66-1.51-1.66-1.51-3.625-2.812-3.325-2.762-3.325-2.762-3.75-6.375 2.12-7.967 7.958-15.008 14.09-20.278 1.713-1.713 1.713-1.713 1.285-5.535-4.57-.153-8.5-.1-12.281 2.672a435 435 0 0 0-4.348 4.25C305.945 215.802 299.964 219 294 219v3l2 1c-1 1-1 1-4.062 1.063L289 224l-.305 2.242c-1.458 5.786-6.042 9.76-11.007 12.758-4.655 1.262-8.9 1.26-13.688 1l1-3 3-.187c5.906-.851 10.397-4.128 14.438-8.375 1.816-2.548 1.816-2.548 2.562-6.438h-19l-1-3 3.402-.367c3.862-.426 7.719-.889 11.574-1.377q2.296-.29 4.594-.553c12.145-2 23.687-9.41 31.43-18.703l2.21 1.02c2.888 1.014 4.43 1.093 7.415.667l2.29-.3c2.268-.371 2.268-.371 5.085-1.387 3.012-5.02 3.184-9.298 3-15-1.194-1.409-1.194-1.409-4.625-1.312-4.74.025-7.482 1.717-11.375 4.312l.5-3.25c1.336-11.537-.153-20.048-4.5-30.75-.96-2.882-1.106-4.699-1.062-7.687l.027-2.45L315 140l-1.652 1.207-2.286 1.606-2.214 1.582c-7.434 4.19-14.524 5.157-22.973 5.105l-3.044-.004c-8.826-.18-15.702-2.225-23.831-5.496-4.199-1.275-6.023-.66-10 1-3.043.23-3.043.23-6.187.188l-3.168-.02C237 145 237 145 235 144c-1.801 9.854-3.047 19.773-4.316 29.707Q229.897 179.862 229 186h-1c-.863-5.151-1.097-10.035-1-15.25.142-5.447.142-5.447-1-10.75-2.28.912-3.71 1.58-5.125 3.625-1.253 3.4-2.051 6.845-2.875 10.375h-3c-.688-10.747-.688-10.747 1.875-14.687L219 157h2l-.488-1.629c-.608-2.816-.681-5.428-.7-8.309l-.042-3.09c.236-3.044.947-5.22 2.23-7.972l-7-1c5.504-16.51 23.246-30.234 38.089-38.062 22.655-11.125 49.59-10.455 69.81 5.132"/><path fill="#2a89e7" d="m175 49-.496 3.313c-.654 5.232-.614 10.422-.566 15.687l.013 2.926q.018 3.537.049 7.074 4.376-2.905 8.75-5.812l2.5-1.659 2.422-1.611 2.222-1.476c2.149-1.406 2.149-1.406 4.064-3.187C196 63 196 63 198.478 63.131c2.711.934 4.581 2.064 6.877 3.775l2.385 1.754 2.447 1.84q2.427 1.799 4.856 3.594l2.157 1.615c1.773 1.343 1.773 1.343 3.8 2.291V50c9.042 1.13 9.042 1.13 12.875 2.938l2.242 1.027C238 55 238 55 240 57c.37 4.624-.32 8.376-1.559 12.816-.511 2.531-.538 4.865-.504 7.446l.028 2.698L238 82l1.68-.858a853 853 0 0 1 7.57-3.767l2.645-1.352 2.558-1.25 2.349-1.174C257 73 257 73 259.096 73.76c2.79 1.819 5.488 3.745 8.154 5.741l1.68 1.223c1.396 1.042 2.738 2.154 4.07 3.277v2l-2.719.594c-14.6 3.499-26.976 9.4-38.281 19.406l-2.953 2.34c-3.214 2.672-5.678 5.699-8.172 9.035l-1.262 1.633c-4.217 5.552-7.919 10.876-8.613 17.992l5 2c-.06 2.544-.148 5.083-.25 7.625l-.043 2.16c-.242 5.27-1.729 7.789-4.707 12.215-.446 2.767-.668 4.999-.625 7.75l.017 2.124c.257 6.429 2.302 11.277 6.608 16.126l2.121 1.48c2.35 1.9 2.57 3.1 3.191 6.02 2.093 7.828 6.151 14.687 12.688 19.5v2l-2.055.629c-6.415 2.123-11.466 4.8-16.851 8.883C214 227 214 227 211 228c-2.233-1.108-2.233-1.108-4.824-2.824l-2.87-1.87-2.994-1.994c-11.19-7.777-11.19-7.777-23.812-12.562L173 208l1.023-2.055c2.295-4.789 4.176-9.11 4.977-14.382.717-4.31.717-4.31 3.375-6.688L185 183c4.616-6.026 4.857-12.668 4-20-.74-2.636-1.68-4.562-3-7a709 709 0 0 1-2-4l1.871-.297c5.474-.966 10.208-2.39 15.219-4.8C203 146 203 146 206 145c2.52-3.448 2.159-6.866 2-11l-2.285-.582c-3.638-1.9-4.597-4.501-6.153-8.106-5.144-10.958-11.105-16.618-22.28-21.5-3.604-.892-6.533-.825-10.21-.632-9.413.484-15.517-.318-23.638-5.356-8.308-4.413-16.894-5.383-26.184-5.324l-3.173.015C105.24 92.713 98.08 94.258 90 98l-2.93 1.316C71.445 107.085 61.448 118.986 55 135l-1 3-2.93.262c-8.348.9-14.769 2.326-22.07 6.738l-2 1c-1.175-13.144-1.115-26.25-1.062-39.437q.008-3.294.013-6.588Q25.968 91.987 26 84q2.397-.488 4.795-.971l2.698-.547c2.95-.567 5.897-.952 8.882-1.294 18.858-2.462 37.445-6.134 55.856-10.865 6.626-1.68 12.947-2.837 19.769-3.323v14l5 2c2.455-1.364 4.394-2.648 6.563-4.375C135.513 74 135.513 74 140 74c2.106.734 2.106.734 4.328 1.75.8.36 1.599.722 2.422 1.094l2.5 1.156 2.547 1.156Q154.902 80.57 158 82c-.411-7.51-.85-14.673-2.988-21.914C155 58 155 58 156.547 55.898c2.884-2.231 5.597-3.388 9.016-4.648l3.44-1.297C172 49 172 49 175 49"/><path fill="#45b132" d="m322.188 204.813 2.73.082L327 205c.719 1.781.719 1.781 1 4-1.406 1.719-1.406 1.719-3.5 3.5-5.362 5.032-10.713 11.706-11.934 19.14.584 3.177 1.829 3.997 4.372 5.923 3.97 3.032 3.97 3.032 4.492 5.335.906 3.34 3.215 4.884 5.757 7.165.79.71.79.71 1.594 1.436 4.651 4.132 9.52 7.978 14.497 11.708 3.45 2.622 6.164 5.295 8.722 8.793-13.818.554-13.818.554-19-3 .557-3.344 1.352-6.033 3-9l-2.25-.25c-2.75-.75-2.75-.75-4.512-2.656-2.769-2.59-5.192-3.244-8.8-4.344-5.972-2.2-5.972-2.2-7.918-4.496-.843-2.126-1.243-3.983-1.52-6.254l-.371-2.738c-.278-2.422-.484-4.83-.629-7.262-1.444 1.214-1.444 1.214-1.098 4.816q.01 2.374.036 4.746l.013 2.444q.02 2.997.049 5.994l-2.23 1.137c-6.777 3.554-11.492 6.446-15.77 12.863l-.625 2.75c-1.488 3.517-2.557 4.355-5.5 6.625-2.896 2.372-2.896 2.372-4.61 5.602-.284 4.09.87 6.76 3.298 10.023 2.486 2.563 3.267 2.97 6.937 3.625 4.07-.557 4.07-.557 9.5-3.625v21h-79c0-16.929 0-16.929.5-25 .47-8.346.614-16.641.5-25l-.586 3.613-.789 4.7-.383 2.38-.39 2.295c-.116.697-.23 1.393-.35 2.11C219 277 219 277 217 280c-2 0-2 0-3.375-1.293Q210.776 275.384 208 272l-1.32-1.59a441 441 0 0 1-4.18-5.16c-.458-.555-.915-1.11-1.387-1.68-3.103-3.951-3.103-3.951-3.148-6.691 1.375-2.497 3.046-4.21 5.097-6.192l2.465-2.386c2.8-2.606 5.66-5.124 8.567-7.61 1.935-1.717 3.731-3.52 5.531-5.379 7.435-7.434 17.056-11.562 27.688-11.562L251 224l.445 2.012c1.72 6.98 1.72 6.98 6.426 12.21 6.383 2.331 14.512 1.943 20.692-.847 4.461-2.704 7.702-6.169 9.375-11.187L289 224c3.125-.812 3.125-.812 6-1l-1-4 2.344-.883c7.123-2.803 14.036-5.775 19.047-11.785 2.276-1.884 3.89-1.633 6.796-1.52"/><path fill="#e94c02" d="M201 233c-1.845 5.904-4 11.493-6.687 17.063l-.971 2.044q-1.165 2.45-2.342 4.893c-1.863-.223-1.863-.223-4-1-1.23-1.996-1.23-1.996-2.187-4.437l-.981-2.434L183 247l-1-2c.671 8.88 2.268 17.534 3.901 26.276q.704 3.78 1.396 7.562c1.525 8.258 3.145 16.451 5.174 24.602C193 306 193 306 193 310q-14.643.034-29.285.052-6.798.007-13.596.023-6.555.016-13.11.02-2.508.003-5.014.01-3.498.01-6.997.009l-2.114.01c-4.77-.01-4.77-.01-5.884-1.124-.592-3.079-.894-6.2-1.25-9.312l-.352-2.631c-.736-6.487-.736-6.487 1.008-9.428L118 286c.853-4.111.853-4.111 0-8-2.144-2.26-4.448-4.12-6.887-6.055-2.853-2.626-3.206-5.246-4.113-8.945-1.836-1.992-3.796-3.38-6-5l-1.398-1.504c-1.946-1.817-3.842-2.655-6.29-3.683l-2.449-1.043L89 251c1.668-7.506 4.817-12.38 11-17 4.805-2.628 10.49-5.312 16-4a186 186 0 0 1 4 6c6.496 5.094 12.785 6.97 21 6 4.102-1.306 7.055-2.755 9.684-6.219 1.568-3.313 1.82-5.943 2.004-9.594l.199-3.519L153 220c19.567-6.139 32.292 2.397 48 13"/><path fill="#fbc797" d="M313 140h2l.262 2.133c.849 5.967 2.155 11.25 4.363 16.867 3.297 8.775 3.03 16.893 1.375 26l2.5-2c3.897-2.616 6.894-2.46 11.5-2 2 2 2 2 2.375 5.688-.14 4.797-1.51 7.466-4.375 11.312-4.054 2.732-7.15 3.516-12 3a144 144 0 0 1-5-2l-1.406 1.688c-4.676 5.164-9.417 8.664-15.594 11.75l-1.975.998c-12.008 5.723-27.764 6.82-40.65 3.501-10.433-3.949-19.554-12.232-24.875-22-5.614-14.358-.692-36.684 3.5-50.937l2.887.07 3.8.055 3.762.07c3.476.001 3.476.001 6.196-1.265 3.896-1.538 6.55-.254 10.316 1.261 8.05 3.234 15.226 4.297 23.914 4.309l2.916.018c8.85-.154 17.719-2.028 24.209-8.518"/><path fill="#fac99b" d="M131 133c2.68 2.68 2.387 4.392 2.625 8.125l.227 3.32L134 147l4-8c3.162 1.581 4.933 2.725 7.5 4.938 4.287 3.32 8.498 4.32 13.766 5.324 3.128.844 4.56 1.316 6.734 3.738 1.105 2.957 1.684 5.963 2.25 9.063l.506 2.684c1.825 10.469 3.962 23.675-1.428 33.374A76 76 0 0 1 159 208l-1.586 1.656c-10.323 9.87-23.832 10.828-37.316 10.614-11.83-.443-20.084-4.874-29.098-12.27l-2.812-2.25L86 204l-1 3c-3.246 1.623-6.493 1.562-10 1-3.724-1.743-6.306-3.902-8.5-7.375-.66-3.464-.275-6.2.5-9.625 2-2 2-2 5.313-2.312 3.82.323 5.629 1.088 8.687 3.312l-.5-1.937c-1.063-6.514-1.307-12.314 1.973-18.231 2.462-2.953 5.624-4.448 8.976-6.246 3.994-2.483 6.714-5.885 9.551-9.586 1.208 3.623.543 4.641-1 8 10.942-3.303 20.015-10.238 26-20a141 141 0 0 0 5-11"/><path fill="#054290" d="M101 395q2.688.177 5.375.375l3.023.21c2.736.315 5.253.745 7.93 1.325 6.843 1.415 13.77 2.135 20.709 2.895a1334 1334 0 0 1 6.897.783c18.714 2.11 37.43 2.647 56.254 2.662l3.01.004A447 447 0 0 0 258 400l3.602-.42a888 888 0 0 0 17.697-2.239c1.728-.183 1.728-.183 2.701-1.341 2.016-.234 4.038-.413 6.063-.562l3.347-.254L294 395c-19.638 20.497-47.366 35.566-71.962 49.288a516 516 0 0 0-8.901 5.157q-2.693 1.56-5.387 3.118l-2.435 1.466c-5.444 3.09-5.444 3.09-9.217 2.573L193 455l-2.214-1.066c-2.727-1.325-5.413-2.714-8.099-4.122l-3.031-1.587c-16.895-8.963-33.326-18.834-48.887-29.962a625 625 0 0 0-5.359-3.775 445 445 0 0 1-18.285-13.55l-1.86-1.448A191 191 0 0 1 101 396z"/><path fill="#0f315b" d="M197 3c3.846 3.269 5.504 6.943 7.25 11.563l.813 2.037C206.207 19.54 207 21.818 207 25l3.184.184c7.299.431 14.557.909 21.816 1.816-1.614 3.402-3.586 6.103-6 9 .675.11 1.35.22 2.047.332l2.703.48 2.672.458c2.77.784 4.404 1.876 6.578 3.73h-3v2h16l2-5a256 256 0 0 1 3.125-5.812l1.633-2.958L261 27l3 1c1.168 2.8 1.168 2.8 2.188 6.313l1.042 3.488C268 41 268 41 268 45l19 2c-1.238 4.95-3.52 6.134-7.562 8.75l-1.866 1.246A498 498 0 0 1 273 60l.438 2.852.562 3.773.563 3.727c.391 3.265.518 6.365.437 9.648-5.53-1.8-8.988-5.405-13.184-9.297-2.71-2.062-2.71-2.062-5.804-1.164-2.98 1.446-5.886 2.942-8.762 4.586C242.215 77 242.215 77 240 77c.473-5.436 1.992-9.706 4.258-14.668.855-2.686.782-3.742-.258-6.332-4.218-7.523-10.713-9.825-18.574-12.09L222 43l-2.332-.754L218 42c-2.216 1.764-2.216 1.764-2.082 3.996.629 5.696 1.841 10.946 3.45 16.441.82 3.325.859 6.16.632 9.563-6.737-3.385-12.436-7.589-18.203-12.402-2.606-1.875-2.606-1.875-5.113-1.235-3.933 2.399-7.654 5.044-11.371 7.762a985 985 0 0 1-4.575 3.32l-2.03 1.485C177 72 177 72 175 72c.595-5.586 1.605-10.83 3.063-16.25C179.139 51.743 180 48.195 180 44c-2.071-1.35-2.071-1.35-5-2-2.093.578-3.969 1.36-5.937 2.273C167 45 167 45 164.617 44.746c-4.033.391-5.94 3.063-8.492 5.941l-1.547 1.608c-2.886 3.145-2.886 3.145-3.527 7.217L152 62l.973 3.008q1.092 3.125 2.187 6.25C156 74 156 74 156 77c-4.886-1.414-9.04-3.573-13.437-6.074-3.348-1.21-5.163-.936-8.563.074-2.722 1.773-2.722 1.773-5.187 4-4.548 3.912-4.548 3.912-7.813 5q.214-3.562.438-7.125l.119-2.016c.255-4.01.71-7.909 1.443-11.859l-1.672-.785c-2.66-1.388-5.097-2.966-7.578-4.653l-2.703-1.808L109 50v-3l19-2 .813-5.062c.848-4.723 2.086-8.64 4.187-12.938h2l1.293 3.246C139.002 36.52 139.002 36.52 143 42c4.465 1.589 8.326 1.563 13 1l-1-3q2.621-1.011 5.25-2l2.953-1.125C166 36 166 36 170 36v-2l-1.812-.75c-2.474-1.414-3.622-2.9-5.188-5.25 2.017-2.017 5.791-1.727 8.563-2.062l2.095-.276c4.815-.597 9.491-.744 14.342-.662l1.188-3.75C194.394 5.606 194.394 5.606 197 3"/><path fill="#5f3226" d="M320 107c3.777 3.59 7.053 6.741 8 12 3.329-2.22 3.75-3.347 5-7h1c.082 4.161-.018 7.947-1 12l1.61 1.066c5.598 3.913 9.274 7.44 10.976 14.293.44 2.81.582 5.486.601 8.328l.043 2.887C346 153 346 153 344 155l-1-2-.625 3.75c-1.473 6.712-4.465 14.34-9.375 19.25-3.125.125-3.125.125-6 0l-.418-2.145c-1.39-6.818-2.849-13.453-5.77-19.792-3.755-8.964-2.13-18.892.188-28.063h-2l-.687 2.125c-3.498 7.662-8.59 10.626-15.938 14.125-2.582.815-4.684.904-7.375.75l1-3c3.063-1.187 3.063-1.187 6-2v-2l-3.437 1.875c-11.099 5.443-24.647 6.065-36.375 2.25-3.1-1.154-5.42-2.28-8.188-4.125v-2c19.22-10.332 19.22-10.332 29-11-10.01-.667-18.418 2.454-27.176 7.117-2.85 1.38-5.757 2.116-8.824 2.883v4l3 1c-2.399 2.399-4.317 2.813-7.648 3.164-6.706-.468-13.002-5.363-18.352-9.164 4.594-13.357 19.384-22.527 31.348-28.723C276.12 93.273 300.992 92.01 320 107"/><path fill="#0852c9" d="M376.926 198.617c7.231 4.821 12.343 10.738 14.074 19.383 1.398 14.097-.266 25.575-9 37l-1.523 2.094c-5.536 7.02-12.88 11.083-21.102 14.344-5.74-.745-9.173-4.671-13.375-8.438q-2.31-1.951-4.628-3.89c-6.953-5.827-13.835-11.742-20.693-17.68a174 174 0 0 0-3.636-3.007l-1.934-1.58-1.774-1.42C312 234 312 234 311.625 230.814c3.204-11.828 13.556-22.15 23.777-28.256 12.111-6.93 28.276-10.552 41.524-3.94"/><path fill="#dd150a" d="M37.75 196.688c.707.005 1.413.01 2.141.017 13.428.31 24.987 6.477 34.675 15.592C79.916 218.238 86.01 225.897 87 234l-1.984 1.582C79.856 239.744 74.85 243.985 70 248.5a237 237 0 0 1-14.277 12.273c-2.797 2.233-2.797 2.233-5.54 4.891-6.815 6.275-6.815 6.275-10.558 6.441-2.495-.74-4.414-1.735-6.625-3.105l-2.312-1.324c-10.9-6.72-18.933-16.46-22.993-28.656C5.49 229.44 6.225 219.66 11 211c6.99-9.618 14.673-14.414 26.75-14.312"/><path fill="#fdcb0b" d="M147.73 111.324c10.498 7.752 19.063 19.619 21.27 32.676a99 99 0 0 1 0 5c-6.387-.855-10.515-4.816-14.402-9.797-.916-1.369-1.766-2.782-2.598-4.203.61 3.558 1.578 6.683 3 10-5.972-1.344-9.897-4.625-14-9-2-3.437-2-3.437-3-6l-1 3h-2l-.77-2.52-1.042-3.292-1.02-3.27c-1.096-2.737-1.92-4.083-4.168-5.918l-.043 2.93c-.515 14.05-4.868 22.223-14.957 32.07-4.642 4-4.642 4-7 4l.035-3.246.028-4.191.025-2.143c.009-1.807-.036-3.614-.088-5.42l-1-1-1.125 3.438C100.65 152.928 95.391 159.705 88 165l-3 1-.184-2.773-.254-3.602c-.08-1.183-.162-2.367-.246-3.586-.127-2.954-.127-2.954-1.316-5.039l-.043 2.316c-.36 8.102-2.03 14.741-4.8 22.274-1.072 3.159-1.714 6.111-2.157 9.41h-7q-1.222-2.404-2.437-4.812l-1.372-2.708C61.96 170.75 61.881 162.35 63 155c1.649-3.292 3.125-4.594 6-7l1-2-2.375 1.5C65 149 65 149 63 149c.2-11.626 5.77-21.42 13.813-29.5 19.309-18.443 47.998-23.098 70.917-8.176"/><path fill="#121b2a" d="M68 204c2.962.613 4.38 1.254 7 3 2.698.419 5.298.388 8 0 2.01-1.334 2.01-1.334 3-3 3.14 1.428 5.592 3.186 8.25 5.375 9.123 7.182 18.255 9.772 29.75 10.25l2.348.117q2.825.138 5.652.258v1l-12 1v2c14.11-.574 14.11-.574 28-3l1.375 2 1.625 2h2c.31 4.502.406 7.121-1.5 11.25-3.642 4.006-7.34 6.26-12.738 7.098-8.253.327-14.234-2.47-20.414-7.75-1.55-1.837-1.948-3.252-2.348-5.598-10.454 2.233-17.71 5.057-24 14-1.199 2.308-2.1 4.551-3 7l2.063.25c7.68 1.96 13.717 7.12 17.937 13.75l.813 2.938c1.59 4.103 3.681 5.47 7.187 8.062l-2 2 2 2c-.309 3.448-1.7 5.08-4.25 7.313-3.31 2.643-3.31 2.643-6.25 2.937-3.673-1.837-6.525-4.446-9.5-7.25l-2 3-2 3 5-1c2.878 3.376 4.219 6.836 5.688 11l1.324 3.688C106 306 106 306 106 310H80v-19l3-1-1.504-1.512C75.555 282.208 71.806 275.695 68 268l-2.082.84-2.73 1.098-2.708 1.09c-3.598 1.41-6.32 2.09-10.167 2.034l-2.45-.027L46 273v-2c1.407-1.248 2.879-2.423 4.375-3.562 3.647-2.843 7.15-5.754 10.563-8.875 4.453-4.073 9.084-7.87 13.812-11.618 2.376-2.054 3.83-4.017 5.125-6.882 1.368-2.508 2.981-4.187 5.125-6.063h2c-4.837-10.664-10.533-19.9-20-27z"/><path fill="#0d1b2b" d="m147.297 104.547 1.766 1.39c2.767 2.399 2.767 2.399 6.062 1.876L159 107c10.31-.927 18.683.54 27.246 6.586 5.109 4.561 8.035 10.174 10.878 16.31 1.53 3.177 2.446 4.877 5.614 6.55L205 137c-.75 1.938-.75 1.938-2 4-1.75.688-1.75.688-4 1l-2.5.625c-7.408.794-15.215.493-21.816-3.254-4.23-3.445-6.31-8.582-8.684-13.371l-2 3h-2a78 78 0 0 1-3.062-4.5c-7.41-10.75-16.71-16.749-29.305-20.137-16.311-2.25-31.318.12-45.074 9.645C72.793 123.169 65.319 134.058 63 149l2.375-1.5C68 146 68 146 70 146c-1.477 4.677-1.477 4.677-4.125 6.313L64 153v2l-3 1v-5h-4l-.227 2.09c-.878 6.28-2.36 10.546-6.125 15.64-2.331 3.21-4.214 6.65-6.156 10.106-1.604 2.326-3.1 3.676-5.492 5.164h-2v4c-1.008 1.73-1.008 1.73-3 3a62 62 0 0 1-7.875.313l-2.145.01c-4.089-.043-7.303-.513-10.98-2.323v-2l4-2 .043-3.621c.404-16.442.404-16.442 5.957-23.379l1.535-2.098C29.682 149.392 36.623 144.142 45 143q2.842-.134 5.688-.125l2.886-.008C56 143 56 143 58 144l.227-1.8c2.191-13.816 10.653-24.855 21.507-33.337 19.605-13.06 46.941-18.204 67.563-4.316"/><path fill="#2582e2" d="M278 67c8.175 1.048 15.953 2.72 23.89 4.918 4.628 1.25 9.297 2.275 13.985 3.27l2.34.505c3.783.79 7.509 1.417 11.355 1.795 3.523.352 6.804 1.088 10.229 2.004 4.586 1.059 9.283 1.509 13.951 2.07q3.055.374 6.11.754l2.702.327c2.203.323 4.284.8 6.438 1.357.59 51.867.59 51.867-1.375 72.938l-.192 2.07c-2.477 26.036-2.477 26.036-4.433 27.992-2.526.237-5.031.422-7.562.563l-2.155.13q-2.64.159-5.283.307c-2.235-5.39-2.33-9.414-.286-14.925a171 171 0 0 1 2.724-6.012c5.152-10.954 7.847-21.908 4-33.813-1.511-3.79-3.227-6.337-6.063-9.25-3.755-3.874-4.175-7.162-4.883-12.387-.774-4.113-2.356-6.85-5.492-9.613-3.227-1.942-6.53-3.538-10-5v2a278 278 0 0 1-7.469-3.84C305.345 87.186 292.027 85.433 275 85l.974-1.784c1.45-3.133 1.46-6.035 1.651-9.466l.227-3.828z"/><path fill="#0f1b2a" d="M171 159c4.489-.364 4.489-.364 6.625 1.156 1.868 2.505 1.88 4.436 2.063 7.531l.199 3.012L180 173l2-1c.813 2.125.813 2.125 1 5-3.866 5.433-3.866 5.433-7 7a76 76 0 0 0-.812 5.5c-1.443 9.43-5.857 15.58-12.188 22.5l2.57-.027c13.379.338 23.017 6.188 34.028 13.449a94 94 0 0 0 5.16 3.144C207 230 207 230 207.812 232.187L208 234c1.752.88 1.752.88 4 1 2.352-1.708 2.352-1.708 4.625-4.125 8.425-7.943 17.438-11.601 29-12L248 219v-2l-2.187-.738c-8.808-3.952-15.352-12.425-19.625-20.824-1.178-3.409-1.45-5.867-1.188-9.438l-1.75-.75c-3.558-1.977-5.793-3.91-7.125-7.812C216 175 216 175 218 172q.504-1.954.875-3.937c.86-3.703 2.005-5.723 5.125-8.063h2c2.528 3.792 2.224 6.809 2.125 11.188l-.027 2.271c-.024 1.847-.06 3.694-.098 5.541h2l.008 1.984c.403 9.522 3.7 17.803 10.18 24.891 8.43 7.645 18.53 11.154 29.75 11.75l2.072.117q2.494.138 4.99.258v1h-12l1 2 19 1c-1.128 6.77-1.128 6.77-4.812 9.75l-2.083 1.734c-3.364 2.422-5.64 3.453-9.793 4.016L265 238l-1 2c-3.062-.073-5.26-.414-7.7-2.344-4.106-4.375-5.091-7.71-5.3-13.656-14.637 1.769-23.712 4.813-34.242 15.274-3.437 3.374-6.985 6.63-10.508 9.914l-4.172 3.917-1.8 1.693L199 256c.784 3.672 2.09 5.527 4.563 8.375 3.397 4.206 3.397 4.206 3.75 7.938L207 275c.932 2.14.932 2.14 2 4q-1.873 1.19-3.75 2.375l-2.11 1.336C197.68 286 197.68 286 194 286l-.805-2.852-1.07-3.773-1.055-3.727A231 231 0 0 0 188 266h-4a1081 1081 0 0 1-1.5-7.062l-.434-1.99c-.906-4.38-1.206-8.452-1.066-12.948 3.271 2.881 4.388 6.049 5.938 10.04.96 2.306.96 2.306 4.062 2.96l1.125-3.687c1.782-5.407 4.204-10.465 6.668-15.59 1.342-2.531 1.342-2.531 1.207-4.723-1.58-1.277-1.58-1.277-3.656-2.496l-2.352-1.443-2.492-1.499-2.398-1.486c-6.946-4.218-13.257-7.533-21.602-7.326l-3.355.078c-3.764.206-7.422.588-11.145 1.172v5l-2 1-2 4-1-9-3.875 1.5c-7.835 2.412-16.022 1.738-24.125 1.5l-1-3 2.281-.043c15.852-.712 30.063-5.446 41.215-17.09 5.231-6.494 6.676-13.12 6.629-21.304l-.006-2.428A187 187 0 0 0 168 161h2z"/><path fill="#1372db" d="m211 138 5 1c-.06 2.544-.148 5.083-.25 7.625l-.043 2.16c-.242 5.27-1.729 7.789-4.707 12.215-.446 2.767-.668 4.999-.625 7.75l.017 2.124c.257 6.429 2.302 11.277 6.608 16.126l2.121 1.48c2.35 1.9 2.57 3.1 3.191 6.02 2.093 7.828 6.151 14.687 12.688 19.5v2l-2.055.629c-6.415 2.123-11.466 4.8-16.851 8.883C214 227 214 227 211 228c-2.233-1.108-2.233-1.108-4.824-2.824l-2.87-1.87-2.994-1.994c-11.19-7.777-11.19-7.777-23.812-12.562L173 208l1.023-2.055c2.295-4.789 4.176-9.11 4.977-14.382.717-4.31.717-4.31 3.375-6.688L185 183c4.616-6.026 4.857-12.668 4-20-.74-2.636-1.68-4.562-3-7a709 709 0 0 1-2-4l1.766-.262c7.804-1.337 17.947-3.374 23.234-9.738 1.176-2.1 1.176-2.1 2-4"/><path fill="#0d2a54" d="M169 327c36.98 0 36.98 0 46 9 5.413 6.374 6.354 11.446 6.281 19.637-.535 6.398-3.298 12.207-7.597 17.015-6.951 5.564-15.388 7.487-24.079 7.446l-3.284-.008-4.133-.027L169 380z"/><path fill="#0b2a54" d="m110 327 13.25-.25 4.099-.11c11.14-.1 20.89 1.658 29.096 9.626 5.822 6.495 5.92 12.818 5.825 21.254-.6 7.744-4.208 11.921-9.88 16.937-8.592 5.546-17.002 4.9-26.89 4.73L110 379z"/><path fill="#0b2953" d="M228 327h16c3.666 3.764 5.297 5.876 7.5 10.375l1.66 2.984C257 347.385 257 347.385 257 350h2c.235-.633.47-1.266.71-1.918 1.78-4.253 3.745-8.328 5.915-12.394l1.156-2.534c1.32-2.392 1.32-2.392 5.219-6.154h16v53h-15l-1-28c-3.374 5.58-3.374 5.58-6.7 11.19-3.502 5.6-3.502 5.6-7.437 6.634-3.677-1.058-4.538-2.298-6.55-5.512l-1.7-2.636L248 359l-1.707-2.707C245 354 245 354 245 352h-2v27h-15z"/><path fill="#10386f" d="M295.438 55.438q2.32.616 4.64 1.226l2.463.673c16.219 4.373 32.748 6.905 49.334 9.413l3.099.469q4.446.668 8.893 1.328l2.687.4C372.027 69.75 377.5 70.418 383 71c.786 73.66.786 73.66-1.875 95.563l-.264 2.186C380 175.62 378.868 182.329 377 189l-7-1c-.206-4.434.185-8.493.91-12.875 5.043-32.123 4.786-64.695 5.09-97.125l-3.046-.104c-11.235-.474-22.04-2.066-33.079-4.146l-5.172-.952C316.975 69.514 299.357 65.908 282 61v-3c4.673-4.198 7.708-4.307 13.438-2.562"/><path fill="#043371" d="M114 397a5406 5406 0 0 1 10.42 1.076c4.981.523 9.956 1.083 14.928 1.69l3.31.399q3.151.382 6.3.782c17.324 2.087 34.8 2.287 52.23 2.303l3.003.005c19.533.002 38.687-1.292 58.06-3.803l2.167-.279q3.006-.391 6.01-.793A74 74 0 0 1 280 398c-6.538 7.15-13.195 10.63-22.75 12.125l-2.887.478c-3.117.496-6.238.952-9.363 1.397l-3.143.462c-14.857 2.109-29.56 2.823-44.544 2.85l-2.39.011c-11.116.028-21.917-.783-32.923-2.323l-3.45-.474c-35.116-5.017-35.116-5.017-44.55-14.526z"/><path fill="#1f8ce7" d="M101 395c10.377-.636 15.781 3.275 23.29 9.614 2.815 2.282 5.808 4.273 8.835 6.261l1.893 1.243q1.966 1.284 3.938 2.56 2.067 1.337 4.127 2.688c13.246 8.674 26.949 16.504 40.89 24a247 247 0 0 1 5.847 3.256c4.808 2.763 4.808 2.763 10.172 3.026L203 446l2.196-1.116c2.672-1.371 5.3-2.806 7.929-4.259l2.933-1.613c33.27-18.322 33.27-18.322 63.434-41.246 3.072-2.163 5.098-2.352 8.82-2.516l3.239-.172L294 395c-19.638 20.497-47.366 35.566-71.962 49.288a516 516 0 0 0-8.901 5.157q-2.693 1.56-5.387 3.118l-2.435 1.466c-5.444 3.09-5.444 3.09-9.217 2.573L193 455l-2.214-1.066c-2.727-1.325-5.413-2.714-8.099-4.122l-3.031-1.587c-16.895-8.963-33.326-18.834-48.887-29.962a625 625 0 0 0-5.359-3.775 445 445 0 0 1-18.285-13.55l-1.86-1.448A191 191 0 0 1 101 396z"/><path fill="#efb383" d="M310 253c4.092-.78 6.602.114 10.063 2.188 8.49 5.817 8.49 5.817 9.625 10.875-1.537 8.801-6.343 16.733-12.688 22.937h-3v2c5.567-2.355 5.567-2.355 11-5l3 7-1-8 2-1 .621 3.867.817 5.008.408 2.55.4 2.442.365 2.254c.321 1.958.321 1.958 1.389 3.879v6h-30v-21l4 1c-3.607-6.404-7.139-12.587-11.934-18.184-1.42-2.418-1.393-4.058-1.066-6.816 2-2 2-2 4.625-2.062 4.227 1.33 6.558 3.555 9.738 6.566 1.39 1.608 1.39 1.608 2.637 1.496q-1.903-1.942-3.812-3.875l-2.145-2.18c-2.087-2.099-2.087-2.099-5.043-3.945l2-4c5.371-.512 7.78.728 12 4 2.368 1.962 4.7 3.959 7 6-3.844-5.012-7.337-8.169-13-11z"/><path fill="#123b73" d="M111 56c2.313 2.125 2.313 2.125 4 4-8.269 2.652-16.665 4.63-25.125 6.563q-3.942.906-7.883 1.816l-3.719.854a279 279 0 0 0-7.593 1.892c-4.453 1.059-8.897 1.706-13.43 2.313q-2.777.382-5.555.765l-2.846.393c-2.81.399-5.615.825-8.42 1.263l-2.7.42q-2.535.397-5.068.807l-2.34.363-2.024.323c-3.103.308-6.18.261-9.297.228q.18 9.842.372 19.684.065 3.338.125 6.677C19.72 116.604 20.025 128.79 21 141c.593 8.067.383 12.822-4.59 19.453L15 162h-1a260 260 0 0 1-2.195-35.727l.008-4.832q.014-6.26.05-12.517c.02-4.285.03-8.57.04-12.854Q11.934 83.535 12 71l2.714-.344q5.037-.64 10.074-1.286 2.17-.278 4.34-.553c9.286-1.178 18.49-2.472 27.662-4.372 2.73-.55 5.465-1.058 8.202-1.566 11.573-2.163 23.062-4.412 34.423-7.53 4.494-1.164 7.397-1.902 11.585.651"/><path fill="#f0b688" d="M89 254v3c-1.934 1.719-1.934 1.719-4.437 3.5-3.713 2.526-3.713 2.526-5.563 6.5l1.898-1.715 2.477-2.223 2.46-2.214C89.333 257.863 91.453 257.81 96 258l2 1c-.508 4.053-2.422 5.535-5.5 8.063-3.599 2.861-3.599 2.861-5.5 6.937l2.188-2.75c5.929-7.028 5.929-7.028 11-7.625C103 264 103 264 105 266c.506 3.27.252 4.625-1.61 7.395l-2.14 2.418c-3.57 4.22-6.01 8.148-8.25 13.187l5-1c2.878 3.376 4.219 6.836 5.688 11l1.324 3.688C106 306 106 306 106 310H80v-19l3-1-1.54-1.547c-5.708-6.03-12.588-13.8-12.39-22.547 1.131-3.535 2.522-4.874 5.368-7.219l2.433-2.05c4.144-3.186 7.016-2.72 12.129-2.637"/><path fill="#112c53" d="M133 27h2l8 15 3.867-.07q2.505-.029 5.008-.055l2.55-.05 2.442-.02 2.254-.032C161 42 161 42 163 44l-2.66 2.668-3.403 3.52c-.58.578-1.16 1.156-1.76 1.751-3.311 3.263-3.311 3.263-4.177 7.604L152 62l.973 3.008 2.187 6.25C156 74 156 74 156 77c-4.886-1.414-9.04-3.573-13.437-6.074-3.348-1.21-5.163-.936-8.563.074-2.722 1.773-2.722 1.773-5.187 4-4.548 3.912-4.548 3.912-7.813 5q.214-3.562.438-7.125l.119-2.016c.255-4.01.71-7.909 1.443-11.859l-1.672-.785c-2.66-1.388-5.097-2.966-7.578-4.653l-2.703-1.808L109 50v-3l19-2 .813-5.062c.848-4.723 2.086-8.64 4.187-12.938"/><path fill="#f3f4f5" d="M31 317q5.718-.042 11.438-.062l3.298-.026 3.135-.01 2.904-.016C54 317 54 317 55 318c.345 1.742.636 3.494.902 5.25l.51 3.285.526 3.465c1.127 7.401 2.358 14.71 4.062 22a700 700 0 0 1 1.625 7.75c.39 1.88.39 1.88.79 3.797.497 2.934.632 5.497.585 8.453-3.48.059-6.958.094-10.437.125-.974.017-1.948.034-2.952.05-6.2.042-11.611-.599-17.611-2.175 1.925-6.809 4.266-13.24 7.11-19.727 2.212-8.13-1.363-14.897-4.672-22.21q-1.254-2.826-2.504-5.653l-1.124-2.496C31 318 31 318 31 317"/><path fill="#f2f3f4" d="M341 317h23c-2.235 6.705-4.636 12.856-7.746 19.137-2.545 5.487-2.508 9.214-.503 15.049.895 2.374 1.841 4.72 2.812 7.064q.977 2.38 1.94 4.766c.288.693.575 1.387.87 2.102C362 367 362 367 362 370c-10.232 2.628-20.527 2.185-31 2 1.153-9.773 3.051-19.309 5.101-28.926 1.84-8.663 3.418-17.342 4.899-26.074"/><path fill="#0860c7" d="M126 406c4.707.461 9.157 1.243 13.75 2.375 18.902 4.418 37.914 5.482 57.25 6.625v33c-6.76-2.254-6.76-2.254-10.145-4.031l-2.272-1.19-2.395-1.279-2.545-1.353c-12.402-6.646-24.378-13.902-36.256-21.443q-2.504-1.589-5.01-3.171l-3.115-1.994-2.783-1.775c-2.436-1.734-4.435-3.588-6.479-5.764"/><path fill="#eef3f8" d="M177.813 41.563C180 43 180 43 180.713 45.23c.33 3.175-.12 5.424-.928 8.507l-.83 3.233-.893 3.342-.88 3.4Q176.105 67.86 175 72l1.665-1.162a2960 2960 0 0 1 7.523-5.213l2.619-1.828 2.548-1.758 2.333-1.619c2.432-1.494 4.557-2.652 7.312-3.42 1.865.735 1.865.735 3.594 2.105l1.933 1.483 1.973 1.6q1.95 1.524 3.906 3.042l1.856 1.459c2.147 1.62 4.392 2.998 6.738 4.311-.523-6.276-1.682-12.04-3.379-18.105-.82-3.819-1.56-7.44.629-10.833C218 41 218 41 219.66 41.313L222 42l3.355.84c8.358 2.394 13.47 4.9 19.301 11.66C246 57 246 57 245.867 59.328L245 62l-1.086 3.734q-.64 2.01-1.289 4.016l-.633 2.074c-.57 1.758-1.273 3.473-1.992 5.176l-3 1q.214-2.376.438-4.75l.246-2.672c.28-2.277.745-4.362 1.316-6.578.5-3.542.5-3.542 0-7-3.621-2.724-7.498-3.924-11.812-5.187l-3.52-1.043L221 50l.494 1.634c.599 2.8.618 5.361.604 8.225l-.01 3.38-.025 3.511-.014 3.559Q222.03 74.655 222 79c-6.492-3.432-12.328-7.268-18.111-11.777-3.055-2.497-3.055-2.497-6.776-3.04-2.628 1.016-4.733 2.389-7.062 3.977l-2.819 1.904-2.92 1.999q-2.879 1.957-5.761 3.91l-2.573 1.758C174 79 174 79 173 79c-.059-3.5-.094-7-.125-10.5l-.05-2.977c-.04-5.882.47-10.887 2.175-16.523a1153 1153 0 0 0-7.812 2.813l-2.237.79-2.158.792c-.655.235-1.31.47-1.984.714-2.072 1.02-3.344 2.11-4.809 3.891.082 2.07.082 2.07.813 4.313 1.582 6.552 1.36 12.985 1.187 19.687-5.222-.684-9.41-3.186-13.916-5.736-3.398-1.916-3.398-1.916-7.139-1.733L135 76l-2.91 1.98a2028 2028 0 0 0-6.313 4.438L123 84l-3-1c1.521-4.015 3.973-5.705 7.438-8.125l2.933-2.07c5.549-3.81 5.549-3.81 8.356-3.653 3.831.993 7.167 2.576 10.648 4.41l1.941.999c1.565.805 3.125 1.621 4.684 2.439l-1.348-3.578-1.714-4.672-.893-2.355-.83-2.286-.778-2.094c-.522-2.408-.291-3.716.563-6.015a89 89 0 0 1 5.125-6.187l1.398-1.655C161.122 44.17 163.728 43.334 169 43l3.125-1.187C175 41 175 41 177.813 41.563"/><path fill="#113157" d="m261 27 3 1c1.168 2.8 1.168 2.8 2.188 6.313l1.042 3.488C268 41 268 41 268 45l19 2c-1.238 4.95-3.52 6.134-7.562 8.75l-1.866 1.246A498 498 0 0 1 273 60l.438 2.852.562 3.773.563 3.727c.391 3.265.518 6.365.437 9.648-5.53-1.8-8.988-5.405-13.184-9.297-2.71-2.062-2.71-2.062-5.804-1.164-2.98 1.446-5.886 2.942-8.762 4.586C242.215 77 242.215 77 240 77c.39-4.475 1.315-7.938 3.125-12.062 1.758-4.166 1.988-6.485.875-10.938l.563-3.125c.766-3.178.766-3.178-1.563-6.875l11-1 1.023-2.738 1.352-3.575 1.336-3.55C259 30 259 30 261 27"/><path fill="#05172b" d="M310 231c1.099 2.198 1.23 3.69 1.438 6.125.446 4.448 1.387 8.566 2.562 12.875l2.5.25c6.425 1.377 10.957 4.044 15.5 8.75 2.138.787 2.138.787 4 1-.7 3.147-1.76 6.026-3 9 4.974 1.757 9.742 3.326 15 4-3.061 2.624-3.732 3-8 3l1 2c.468 4.022.23 5.652-2.035 9.086-2.72 4.571-2.208 8.707-1.715 13.851.066.875.131 1.75.2 2.65.163 2.14.354 4.277.55 6.413h-5l-5-25 1 11c-2.686-2.686-3.06-5.376-4-9a56.5 56.5 0 0 0-7 4h-4v-2l2.27-1.29c3.19-1.998 4.468-3.887 6.418-7.085.58-.936 1.162-1.872 1.761-2.836 2.773-4.986 4.545-9.025 3.551-14.789-3.302-3.873-7.287-7.033-12-9-3.167-.167-3.167-.167-6 0v2c1.657 1.41 1.657 1.41 3.75 2.813 3.338 2.409 5.856 4.795 8.25 8.187-3 0-3 0-4.684-1.46-.578-.633-1.157-1.264-1.753-1.915-2.356-2.561-4.302-4.338-7.563-5.625-3.167-.167-3.167-.167-6 0l-1 3 1.61 1.39c3.573 3.105 7.109 6.192 10.39 9.61l-1 2-1.61-1.68-2.14-2.195-2.11-2.18c-2.02-1.835-3.598-2.987-6.14-3.945-2.69.304-2.69.304-5 1 .263 6.45 2.507 9.48 7 14-1.992 4.503-4.879 7.348-9 10-2.562.313-2.562.313-5-1a65 65 0 0 1-4.668-5.504L282 281h-2c.335-3.02.59-4.592 2.777-6.773l2.16-1.602c3.975-3.235 4.836-5.621 6.063-10.625 2.313-2.125 2.313-2.125 5-4l2.438-2.562C301.436 252.586 304.704 250 309 250l-.488-2.113c-.545-3.074-.68-5.954-.7-9.074l-.042-3.168C308 233 308 233 310 231"/><path fill="#fdc80a" d="M57 149c-.688 7.677-1.645 13.602-6.36 19.805-1.792 2.399-3.19 4.89-4.64 7.507-4.336 7.201-9.544 9.1-17.414 11.172C26 188 26 188 22 188c.26-21.747.26-21.747 8.05-30.234 7.84-7.42 16.05-12.4 26.95-8.766"/><path fill="#f7d436" d="M197 15c2.91 2.43 3.408 4.372 4.25 8 .845 2.761.845 2.761 2.75 5 4.943 1.816 9.776 2.493 15 3-1.438 3.548-3.113 4.894-6.25 7-2.245 1.696-2.245 1.696-3.75 4-.155 4.236.677 7.987 2 12l1 1c.04 1.666.043 3.334 0 5a437949402.69 437949402.69 0 0 1-6.64-4.395C203 54 203 54 201.015 52.175c-1.992-1.474-1.992-1.474-4.403-.59-2.896 1.568-5.665 3.244-8.425 5.04l-2.958 1.914L183 60l.691-2.887.871-3.8.88-3.762c.537-3.418.776-5.343-.442-8.551-2.048-2.241-2.048-2.241-4.562-4.187A103 103 0 0 1 176 33v-2c5.38-1.19 10.453-2.292 16-2l.586-2.047.789-2.703.773-2.672c.773-2.339 1.688-4.412 2.852-6.578"/><path fill="#044a9d" d="M114 397q3.938.404 7.875.813l2.585.265c4.76.497 9.509 1.036 14.255 1.652 19.378 2.472 38.78 3.408 58.285 4.27v11c-11.855.25-23.261-.272-35-2l-2.954-.423C123.336 407.41 123.336 407.41 114 398z"/><path fill="#0e1e2f" d="m322.188 204.813 2.73.082L327 205c.719 1.781.719 1.781 1 4-1.406 1.719-1.406 1.719-3.5 3.5-5.362 5.032-10.713 11.706-11.934 19.14.584 3.177 1.829 3.997 4.372 5.923 3.97 3.032 3.97 3.032 4.492 5.335.906 3.34 3.215 4.884 5.757 7.165l1.594 1.436c4.651 4.132 9.52 7.978 14.497 11.708 3.45 2.622 6.164 5.295 8.722 8.793-13.818.554-13.818.554-19-3 .557-3.344 1.352-6.033 3-9l-2.25-.25c-2.75-.75-2.75-.75-4.512-2.656-2.769-2.59-5.192-3.244-8.8-4.344-5.972-2.2-5.972-2.2-7.918-4.496-.843-2.126-1.243-3.983-1.52-6.254l-.371-2.738c-.278-2.422-.484-4.83-.629-7.262l-2 1-.23-1.898c-.561-2.271-.561-2.271-2.696-3.079l-2.387-.648c-3.101-.872-5.842-1.851-8.687-3.375v-5l2.344-.883c7.123-2.803 14.036-5.775 19.047-11.785 2.276-1.884 3.89-1.633 6.796-1.52"/><path fill="#eca774" d="M131 133c2.858 2.858 2.408 5.147 2.625 9.125l.227 3.883L134 149h-2l-1-4-.996 1.469C123.938 155.017 116.216 162.762 106 166c-2.54.055-2.54.055-5.062-.125-5.301-.275-8.088 1.551-12.016 4.992C85.165 175.037 83 179.346 83 185c4.425 13.276 11.187 23.594 24 30v2c-4.421-.537-6.976-2.144-10.5-4.812l-2.781-2.083A504 504 0 0 1 86 204l-1 3c-3.246 1.623-6.493 1.562-10 1-3.724-1.743-6.306-3.902-8.5-7.375-.66-3.464-.275-6.2.5-9.625 2-2 2-2 5.313-2.312 3.82.323 5.629 1.088 8.687 3.312l-.5-1.937c-1.063-6.514-1.307-12.314 1.973-18.231 2.462-2.953 5.624-4.448 8.976-6.246 3.994-2.483 6.714-5.885 9.551-9.586 1.208 3.623.543 4.641-1 8 10.942-3.303 20.015-10.238 26-20a141 141 0 0 0 5-11"/><path fill="#081928" d="M222 258h1c.29 10.956-.206 21.82-.937 32.75l-.133 2.018c-.804 12.173-.804 12.173-1.93 17.232h-5q-.04-4.594-.062-9.187l-.026-2.62c-.016-4.196.012-8.102 1.088-12.193-5.295-.45-8.306.889-12.875 3.5l-1.797 1.012A388 388 0 0 0 197 293c.458 3.47.891 6.674 2 10 .04 2.333.044 4.667 0 7h-6c-2.524-10.64-5.01-21.274-6.812-32.062l-.375-2.213c-.579-3.608-.948-7.07-.813-10.725 1.863.152 1.863.152 4 1 3.116 6.182 4.472 13.14 5 20l14-7-2-6 2-2a517 517 0 0 1 3.5 3.375l1.969 1.898C215 278 215 278 215 280c2.525-2.194 3.414-3.642 3.914-6.941l.367-2.268.344-2.353c1.28-8.25 1.28-8.25 2.375-10.438"/><path fill="#3a99ee" d="M376.926 198.617c7.231 4.821 12.343 10.738 14.074 19.383 1.398 14.097-.266 25.575-9 37l-1.523 2.094c-5.25 6.659-13.154 12.589-21.727 13.844L356 271l-2-4 2.746-1.25c13.259-6.214 21.9-13.36 27.422-27.285 2.6-7.704 3.3-17.13.644-24.903-3.4-6.685-6.506-10.345-13.613-12.863-11.458-2.504-22.997-1.74-33.199 4.301-11.39 7.32-18.115 17.102-24 29h-2c.231-10.404 7.947-18.756 15.113-25.637 13.358-10.935 33.21-18.033 49.813-9.746"/><path fill="#ec4d3d" d="M37.75 196.688c.707.005 1.413.01 2.141.017 13.428.31 24.987 6.477 34.675 15.592C79.916 218.238 86.01 225.897 87 234c-1.812-.062-1.812-.062-4-1a109 109 0 0 1-1.969-4.77C75.778 216.87 66.165 208.318 55 203c-9.076-2.763-20.399-3.804-29.625-1-6.462 3.83-10.476 8.698-12.375 16-1.332 13.656 1.29 24.67 9.734 35.523C28.928 260.293 36.417 264.06 45 267c-.812 1.938-.812 1.938-2 4-3.91 1.303-4.922.42-8.562-1.375C19.988 262.077 12.035 251.106 7 236c-.813-10.127-.238-19.169 5.871-27.574 6.959-8.169 14.026-11.83 24.879-11.738"/><path fill="#fdc908" d="M177.25 114.563c10.651 5.903 14.073 14.685 18.75 25.437-5.73 2.545-11.154 3.055-17.25 1.383-5.681-2.432-7.938-6.076-10.75-11.383a956 956 0 0 0-3.625-6.312l-1.727-3.051c-1.41-2.258-2.777-3.794-4.648-5.637v-2c6.902-2.3 12.7-1.505 19.25 1.563"/><path fill="#11396d" d="M197 3c3.846 3.269 5.504 6.943 7.25 11.563l.813 2.037C206.207 19.54 207 21.818 207 25h8l-1 5 3 1a358 358 0 0 1-4.187-.375c-.778-.07-1.555-.14-2.356-.21-2.853-.482-4.925-.983-7.457-2.415-1.582-2.82-1.582-2.82-2.812-6.125l-1.27-3.32L198 16q-.941 1.842-1.875 3.688l-1.055 2.074c-1.13 2.364-2.097 4.805-3.07 7.238l-16 2 5 5c3.934 4.252 3.934 4.252 4.25 7.813L185 46l-4 1-1-3c-2.075-1.567-2.075-1.567-5-2-2.118.626-4.04 1.427-6.035 2.371-2.418.774-3.575.39-5.965-.371q-3.495-.527-7-1l-1-3q2.621-1.011 5.25-2l2.953-1.125C166 36 166 36 170 36v-2l-1.812-.75c-2.474-1.414-3.622-2.9-5.188-5.25 2.017-2.017 5.791-1.727 8.563-2.062l2.095-.276c4.815-.597 9.491-.744 14.342-.662l1.188-3.75C194.394 5.606 194.394 5.606 197 3"/><path fill="#19832f" d="m290 261 2 1c-1.5 5.341-2.746 8.096-7.187 11.5-2.865 2.3-2.865 2.3-4.543 5.469-.292 4.095.862 6.765 3.293 10.031 2.486 2.563 3.267 2.97 6.937 3.625 4.07-.557 4.07-.557 9.5-3.625v21h-79l1-4 2.74.108c31.21 1.491 31.21 1.491 62.26-1.108l1-7-2.187-.562c-4.675-2.39-7.177-6.53-8.813-11.438-.496-5.047-.684-6.984 2.188-11.25C282 272 282 272 284.625 270.063c3.143-2.73 3.956-5.18 5.375-9.063"/><path fill="#f3f5f7" d="M184 339c13.667 0 13.667 0 18 4 3.014 3.274 3.408 5.524 3.375 9.938l.023 3.09c-.452 3.374-1.395 5.242-3.398 7.972-6.813 4.653-8.308 4-18 4z"/><path fill="#f8f9fa" d="M126 339c12.568 0 12.568 0 17 4l2.375 2.125c2.407 4.259 2.391 8.094 1.625 12.875-2.613 5.133-5.54 8.18-11 10h-10z"/><path fill="#f3f2ea" d="M147.73 111.324c8.24 6.084 16.457 15.415 18.993 25.57L167 139c-2.304-2.103-3.609-3.972-4.875-6.812-5.38-10.98-15.804-18.321-27.207-22.34-15.326-3.912-31.495-1.028-45.168 6.34-11.164 6.971-19.367 16.686-22.437 29.734L67 148l-4 1c.2-11.626 5.77-21.42 13.813-29.5 19.309-18.443 47.998-23.098 70.917-8.176"/><path fill="#5cba33" d="m251 224 .445 2.012c1.72 6.98 1.72 6.98 6.426 12.21 6.383 2.331 14.512 1.943 20.692-.847 5.219-3.163 8.55-7.542 10.437-13.375 6.15.488 12.446 1.099 18 4l1 3-5.762-1.66c-2.834-.43-4.518-.297-7.238.66-2.491 2.376-2.491 2.376-4.812 5.313-5.001 5.754-8.98 8.284-16.188 10.687-2.515.147-4.984.23-7.5.25l-2.05.063c-4.993.039-4.993.039-7.419-1.829L256 243l3-1-1.426-1.031c-4.962-3.863-6.86-6.92-8.574-12.969v-2c-12.012 2.454-20.513 4.655-29 14a172 172 0 0 1-3.937 3.438c-5.097 4.437-10.075 9.005-15.063 13.562 1.404 4.101 3.37 6.98 6.125 10.313l2.195 2.675L211 272l-1 2a4396 4396 0 0 1-4.875-5.812l-1.395-1.659c-5.77-6.899-5.77-6.899-5.609-9.447 1.165-2.76 2.788-4.315 4.941-6.394l2.465-2.387c2.8-2.606 5.66-5.124 8.567-7.61 1.935-1.717 3.731-3.52 5.531-5.379 8.519-8.518 19.396-12.124 31.375-11.312"/><path fill="#c93403" d="m119 279 3 1c1.063 2.625 1.063 2.625 2 6l1.016 3.55L126 293c.805 2.44 1.638 4.867 2.484 7.293C129 302 129 302 129 304c8.115 1.589 15.849 2.278 24.11 2.195l3.311-.008c3.443-.011 6.886-.036 10.329-.062q3.53-.016 7.063-.027 8.594-.034 17.187-.098l1-3 1 7q-14.643.034-29.285.052-6.798.007-13.596.023-6.555.016-13.11.02-2.508.003-5.014.01-3.498.01-6.997.009l-2.114.01c-4.77-.01-4.77-.01-5.884-1.124-.592-3.079-.894-6.2-1.25-9.312l-.352-2.631c-.736-6.488-.736-6.488 1.012-9.428L118 286c.725-3.653.725-3.653 1-7"/><path fill="#0a1725" d="m310 251-1 4 1.828 1.355c4.274 3.233 8.075 6.201 11.172 10.645-3 0-3 0-4.684-1.46-.578-.633-1.157-1.264-1.753-1.915-2.356-2.561-4.302-4.338-7.563-5.625-3.167-.167-3.167-.167-6 0l-1 3 1.61 1.39c3.573 3.105 7.109 6.192 10.39 9.61l-1 2-1.61-1.68-2.14-2.195-2.11-2.18c-2.02-1.835-3.598-2.987-6.14-3.945-2.69.304-2.69.304-5 1 .263 6.45 2.507 9.48 7 14-1.992 4.503-4.879 7.348-9 10-2.562.313-2.562.313-5-1a65 65 0 0 1-4.668-5.504L282 281h-2c.335-3.02.59-4.592 2.777-6.773l2.16-1.602c3.975-3.235 4.836-5.621 6.063-10.625 2.313-2.125 2.313-2.125 5-4l2.438-2.562c3.597-3.422 6.606-6.09 11.562-4.438"/><path fill="#0f1724" d="M91 251c5.831 2.66 10.783 5.016 15 10l1.688 1.938c1.312 2.062 1.312 2.062 2.124 5 1.591 4.103 3.682 5.47 7.188 8.062l-2 2 2 2c-.309 3.448-1.7 5.08-4.25 7.313-3.31 2.643-3.31 2.643-6.25 2.937-3.673-1.837-6.525-4.446-9.5-7.25.236-3.887 1.497-5.741 4.063-8.5 2.521-2.746 2.521-2.746 3.374-6.375-.229-2.1-.229-2.1-1.437-3.125-2.7-.674-2.7-.674-6 0-4.036 2.793-7.28 5.92-10 10l-2-1a1444 1444 0 0 1 4.313-4.875l2.425-2.742C94 264 94 264 97 262l1-3c-5.18-.555-7.973-.445-12.187 2.75A207 207 0 0 0 82 265l-3 2.375L77 269c1.221-4.614 3.655-6.7 7.246-9.57 3.121-2.544 5.093-4.725 6.754-8.43"/><path fill="#59bf35" d="M260 38h2l.27 2.082c.595 2.994 1.2 5.265 2.73 7.918 3.555 1.788 7.072 2.48 11 3-2.578 2.648-4.916 4.944-8 7-.365 2.667-.365 2.667-.187 5.625l.082 3.04L268 69c-2.27-1.08-4.03-2.026-5.937-3.687-1.99-1.547-1.99-1.547-4.438-1.188-2.78.854-2.78.854-5.812 2.5L249 68l-2-1 .691-1.61.871-2.14.88-2.11c.653-2.502.467-3.738-.442-6.14a349 349 0 0 0-4-5v-2h11l.875-2.75c.89-2.572 1.84-4.863 3.125-7.25"/><path fill="#e6242b" d="M134 39h2l.453 1.715c.92 2.568 1.697 4.26 3.547 6.285 4.01 1.03 7.874 1.104 12 1l-1.348 1.504c-3.827 4.485-3.827 4.485-4.59 10.184L147 63l.563 2.938L148 68c-2.436-.947-4.75-1.851-7-3.187-2.837-1.153-4.104-.823-7 .187-2.434 1.542-4.73 3.227-7 5l.5-2.414c.52-3.342.839-6.215.5-9.586-2.253-2.802-4.802-4.405-8-6 2.387-2.387 3.19-2.227 6.438-2.562 2.438-.368 2.438-.368 4.562-1.438 1.694-2.867 2.416-5.738 3-9"/><path fill="#161c29" d="M254 188c2.05.381 3.875.947 5.797 1.754 7.529 3.117 15.213 2.51 23.203 2.246.866 2.41 1.166 3.576.215 6-2.85 4.46-5.242 7.79-10.215 10-4.428.694-8.8 1.042-12.937-.918-3.52-2.72-5.602-5.942-7.063-10.082-.274-2.761-.19-5.208 0-8z"/><path fill="#e8a270" d="M313 140h2l.262 2.133c.849 5.967 2.155 11.25 4.363 16.867 2.474 6.515 2.944 12.092 2.375 19h-1v-10h-2a2284 2284 0 0 1-3-8.812l-.867-2.526-.82-2.432-.762-2.237C313 150 313 150 313 147l-2.45 1.277-3.238 1.66-3.199 1.653c-11.184 5.066-25.818 3.232-37.183-.43-2.512-.994-4.7-2.06-6.993-3.472-2.753-1.933-2.753-1.933-5.562-1.563-2.376.83-2.376.83-4.562 1.938-4.173 1.39-8.452 1.462-12.813.937l-2-2v-3l2.887.07 3.8.055 3.762.07c3.476.001 3.476.001 6.196-1.265 3.896-1.538 6.55-.254 10.316 1.261 8.05 3.234 15.226 4.297 23.914 4.309l2.916.018c8.85-.154 17.719-2.028 24.209-8.518"/><path fill="#412522" d="M269.438 129.125c.798.49.798.49 1.613.988 7.952 3.618 19.73.394 27.949-1.113-2.906 2.267-5.523 3.744-9 5v3l4.25-.937 2.39-.528c2.129-.483 4.245-.997 6.36-1.535l-1 3c-2.375 1-2.375 1-6 2-.753.26-1.506.52-2.281.79-12.273 3.955-24.934 3.565-36.719-1.79l-3-2v-2c10.752-6.409 10.752-6.409 15.438-4.875"/><path fill="#efab78" d="M335 181c2 2 2 2 2.375 5.688-.14 4.797-1.51 7.466-4.375 11.312-4.054 2.732-7.15 3.516-12 3a144 144 0 0 1-5-2l-1.828 1.898-2.422 2.477-2.39 2.46c-2.094 1.92-3.764 3.081-6.36 4.165 1.398-3.07 3.084-5.424 5.25-8 3.629-4.527 5.972-9.296 8.293-14.594C318 185 318 185 320.035 184.254L322 184l2.25-1.562c3.863-2.02 6.416-1.793 10.75-1.438"/><path fill="#eff1f3" d="M56 167c2.117 3.998 3.519 8.176 5 12.441.965 2.738.965 2.738 3 5.559-.309 1.89-.309 1.89-1 4a820 820 0 0 0-1.062 4.75l-.536 2.422L61 198l-2.668-.84-3.52-1.097-3.48-1.09c-5.247-1.532-9.665-2.07-15.144-1.973-5.186.044-10.073-.182-15.188-1v-1l2.422-.008c8.56-.301 15.61-1.792 22.578-6.992 2.558-3.12 4.318-6.347 6-10l1.813-3.562L55 168z"/><path fill="#0253b7" d="M216 286c-.543 8.016-1.153 16.01-2 24h-14l-.875-3.125a81 81 0 0 0-2.312-7c-.934-3.303-.988-4.662.187-7.875 2.73-2.055 2.73-2.055 6.188-3.875l3.417-1.867c3.72-1.378 5.617-1.279 9.395-.258"/><path fill="#e99d69" d="M148 221c1.733 3.465 1.472 7.211 1 11-1.776 3.091-3.193 4.53-6.25 6.313-6.48 1.62-11.217 1.114-16.984-2.11-2.58-1.758-4.19-3.511-5.766-6.203-.094-2.66-.094-2.66 0-5l2.93-.113c7.07-.357 13.388-.874 20.117-3.266C145 221 145 221 148 221"/><path fill="#191f2d" d="M145 189h3c.468 7.187.574 12.222-4 18-3.892 2.742-7.37 3.553-12.047 3.348-4.766-.849-7.433-3.69-10.328-7.348-1.625-3-1.625-3-1.625-7l2.71-.043c7.918-.312 16.34-1.007 22.29-6.957"/><path fill="#f39201" d="M68 149c1.366 4.372.935 8.6.742 13.125.29 3.24 1.089 4.513 3.258 6.875l1.172-1.574c2.882-3.86 5.79-7.686 8.828-11.426.653 6.398-.972 11.587-3.134 17.543-1.375 3.811-2.328 7.44-2.866 11.457h-7q-1.222-2.404-2.437-4.812l-1.372-2.708c-2.216-4.615-2.472-8.758-2.566-13.792l-.113-2.264c-.067-4.206.271-6.675 3.011-9.967z"/><path fill="#e99963" d="m256 221 2.785.496c5.203.743 10.408.61 15.652.566l3.084-.013q3.74-.018 7.479-.049c-.314 3.369-.54 5.45-2.742 8.082l-2.133 1.73-2.117 1.77c-4.975 3.513-11.181 3.078-17.008 2.418-3.25-1.875-3.25-1.875-5-5-.377-3.379-.296-6.618 0-10"/><path fill="#0c1a2c" d="M67 267c3.104 2.53 4.612 5.118 6.25 8.688C75.926 281.333 79.669 285.55 84 290l-2 1-3-1v20h-5v-14l-5-1-1-1c.225-3.473.587-6.925.941-10.387.06-3.701-.564-6.205-1.941-9.613l-1.75.625c-2.825.47-3.796-.244-6.25-1.625-1.327-.356-2.66-.693-4-1a665 665 0 0 1 4.313-1.5l2.425-.844C64 269 64 269 67 269z"/><path fill="#eedd64" d="M87 237c-.914 11.045-.914 11.045-3 14-2.149.793-4.327 1.368-6.535 1.977C73.026 254.82 70.108 258.435 67 262l-4-2 .938 2.25c.874 2.262 1.505 4.4 2.062 6.75-6.941 2.906-12.457 4.495-20 4v-2c1.407-1.248 2.879-2.423 4.375-3.562 3.647-2.843 7.15-5.754 10.563-8.875a219 219 0 0 1 10.687-9.125c4.244-3.42 8.09-7.03 11.816-11.004C85 237 85 237 87 237"/><path fill="#e85f01" d="M116 230a186 186 0 0 1 4 6c5.891 4.62 11.187 6.33 18.613 6.305 3.37-.43 5.872-1.796 8.758-3.528L149 238l2 1-4 4 4 1c-6.563 4.313-13.29 4.753-21 4-7.333-2.06-14.756-6.634-19-13-5.51.225-8.383 1.496-12.434 5.238-1.577 1.775-2.686 3.491-3.816 5.575C93 249 93 249 90 250c.16-6.369 3.631-9.793 8-14 5.274-4.09 11.18-7.186 18-6"/><path fill="#edd27b" d="M311 236q5.146 4.409 10.29 8.824a2996 2996 0 0 0 17.647 15.051l1.63 1.38a1998 1998 0 0 0 6.8 5.73A265 265 0 0 1 352 271v1c-13.818.554-13.818.554-19-3 .557-3.344 1.352-6.033 3-9l-2.25-.25c-2.75-.75-2.75-.75-4.512-2.656-2.769-2.59-5.192-3.244-8.8-4.344-5.979-2.178-5.979-2.178-7.954-4.637-1.54-3.964-1.802-7.871-1.484-12.113"/><path fill="#141921" d="M105 140c2 2 2 2 2.23 4.207-.143 8.718-.143 8.718-1.23 12.793h2c-.312 2.375-.312 2.375-1 5-3 2-3 2-7 2l1-7-1.18 1.54c-3.351 4.123-6.374 6.982-11.07 9.523-3.258 1.82-5.297 3.035-6.812 6.5-.767 2.81-1.502 5.557-1.938 8.437l-1-4h-2a60.6 60.6 0 0 1 2.5-9.375c2.098-6.753 2.228-13.6 2.5-20.625 3.013 3.329 3.447 5.819 3.688 10.25l.199 3.266L86 165c9.445-6.468 15.55-14.04 19-25"/><path fill="#0c5bbe" d="m68 278 2 2c-.023 3.258-.023 3.258-.375 7.125l-.336 3.883L69 294l5 2-1 14H62l4-4c-2.046-5.633-5.04-10.777-7.898-16.025l-1.204-2.237-1.104-2.03C55 284 55 284 55 282q2.123-.507 4.25-1l2.39-.562C64 280 64 280 68 280z"/><path fill="#092c5b" d="M341 281h1l2 7 1-2c2-2 2-2 3.98-2.266 2.009.015 4.016.135 6.02.266-3.546 8.921-7.62 17.469-12 26h-4a874 874 0 0 1-1.5-6.125l-.844-3.445c-1.118-5.845-1.004-9.536 1.844-14.805l1.406-2.648z"/><path fill="#eca574" d="M194.855 262.105c3.19 1.33 4.608 3.563 6.708 6.27 3.5 4.508 3.5 4.508 7.437 8.625-1.46 3.859-3.266 5.003-6.937 6.75l-2.653 1.297C197 286 197 286 194 286c-4.408-14.597-4.408-14.597-5-22 2.052-1.246 3.424-2.033 5.855-1.895"/><path fill="#f38f01" d="M55 154c.703 6.441-.472 9.459-4.29 14.629-1.783 2.473-3.23 5.019-4.71 7.684-4.336 7.2-9.544 9.1-17.414 11.171C26 188 26 188 22 188v-2l1.793-.734C33.043 181.342 37.32 176.879 42 168q.749-1.863 1.438-3.75C45.252 160.476 50.165 154 55 154"/><path fill="#ecedf0" d="M91 213c1.217.877 2.402 1.8 3.563 2.75 5.18 4.181 11.204 6.103 17.437 8.25-3.437 1.753-6.941 3.29-10.488 4.805-3.28 1.56-6.373 3.367-9.512 5.195l-1.645-3.395-2.168-4.417-1.08-2.237-1.064-2.158-.968-1.984c-1.02-1.89-1.02-1.89-2.703-3.421C81 215 81 215 81 213c3.657-1.266 6.29-1.07 10 0"/><path fill="#ce8259" d="M320 107a76 76 0 0 1 3 3l-1 2-1.914-1.39C305.608 100.678 290.176 99.2 273 101c-4.53.887-8.735 2.283-13.05 3.906C257 106 257 106 254 106v2l-2.012.953c-4.745 2.3-9.034 4.488-12.988 8.047l-2-1c22.855-20.823 56.782-28.544 83-9"/><path fill="#3593f1" d="M389 237c1.064 2.705 1.046 3.865.102 6.664-6.054 12.14-13.575 20.68-26.102 26.336-2.483.694-4.412.941-7 1l-2-4 2.746-1.25c11.216-5.256 21.109-11.355 25.692-23.5C384 239 384 239 386.688 237.563z"/><path fill="#f49501" d="m125 115 3 1c-.205 16.089-3.144 25.428-15 37-4.642 4-4.642 4-7 4 .013-3.749.187-7.333 1-11 2.625-2.125 2.625-2.125 6-4 7.634-8.328 10.478-15.93 12-27"/><path fill="#e7a370" d="M131 133c2.858 2.858 2.408 5.147 2.625 9.125l.227 3.883L134 149h-2l-1-4-.996 1.469C123.932 155.026 116.218 162.745 106 166c-2.615.124-5.135.007-7.746-.148-3.886.255-5.532 2.49-8.254 5.148l-2.75 1c-2.513.832-2.513.832-3.562 3.625L83 178h-2c.3-2.932.55-4.484 2-7 2.611-1.947 5.338-3.525 8.156-5.156 4.081-2.646 6.92-6.001 9.844-9.844 1.208 3.623.543 4.641-1 8 10.942-3.303 20.015-10.238 26-20a141 141 0 0 0 5-11"/><path fill="#177634" d="M299 295h1v15h-79l1-4 2.613.108c21.194.838 42.197.843 63.387-.108l-1 3h12z"/><path fill="#9fde74" d="m251 224 .445 2.012c1.75 6.93 1.75 6.93 6.528 12.093 4.415 1.949 9.266 2.379 14.027 2.895v1c-7.226.47-12.162.527-18-4-3.288-3.98-4.285-6.965-5-12-12.012 2.454-20.513 4.655-29 14a172 172 0 0 1-3.937 3.438c-5.097 4.437-10.075 9.005-15.063 13.562 1.404 4.101 3.37 6.98 6.125 10.313l2.195 2.675L211 272l-1 2a4396 4396 0 0 1-4.875-5.812l-1.395-1.659c-5.77-6.899-5.77-6.899-5.609-9.447 1.165-2.76 2.788-4.315 4.941-6.394l2.465-2.387c2.8-2.606 5.66-5.124 8.567-7.61 1.935-1.717 3.731-3.52 5.531-5.379 8.519-8.518 19.396-12.124 31.375-11.312"/><path fill="#173c6a" d="M197 3c3.846 3.269 5.504 6.943 7.25 11.563l.813 2.037C206.207 19.54 207 21.818 207 25h8l-1 5 3 1a358 358 0 0 1-4.187-.375c-.778-.07-1.555-.14-2.356-.21-2.853-.482-4.925-.983-7.457-2.415-1.582-2.82-1.582-2.82-2.812-6.125l-1.27-3.32L198 16l-3 6-1-2-5 2c1.996-6.719 4.73-12.807 8-19"/><path fill="#153964" d="M223 36c6.303.368 11.333 1.166 17 4l-3 1v2h16l2-5 2-2c-.547 3.375-1.055 5.082-3 8-2.383.512-2.383.512-5.125.688l-2.758.199L244 45v2h12v1h-11l1 3c-.937 2.188-.937 2.188-2 4-5.821-4.786-5.821-4.786-7.281-6.531-2.531-2.163-5.228-2.744-8.406-3.657l-3.575-1.042L222 43l2-1c.652-2.025.652-2.025 1-4h-2z"/><path fill="#071424" d="M282 279c2.387 2.963 4.735 5.943 7 9 4.779-.29 7.117-2.583 10.45-5.723C301 281 301 281 303 281c4 6.75 4 6.75 4 9l-4-1v21h-3l-1-20-5 3c-3.375.688-3.375.688-7 0-2.823-2.328-5.115-4.86-7-8v-4h2z"/><path fill="#f18e01" d="M162 118c4.926.422 6.797 2.34 10 6q1.69 2.28 3.375 4.563c3.655 4.733 6.873 7.84 13.031 8.82q2.382.236 4.774.344L195 138l1 2c-5.36 2.859-11.46 2.97-17.25 1.383-5.678-2.43-7.918-6.096-10.75-11.383q-1.65-2.692-3.312-5.375C162 120.252 162 120.252 162 118"/><path fill="#edeeef" d="M319.125 204.852c2.25.273 2.25.273 5.875 1.148l-2.5 2.75c-4.352 5.05-7.885 10.662-11.5 16.25a1004 1004 0 0 1-5.25-1.375l-2.953-.773A34.6 34.6 0 0 1 296 220c1.554-3.108 4.654-3.85 7.688-5.25 4.116-1.942 7.722-3.696 10.687-7.25 2.625-2.5 2.625-2.5 4.75-2.648"/><path fill="#f4f2e2" d="M57 149v2l-1.871.043c-8.756.493-14.916 3.284-20.941 9.707-4.994 6.162-7.376 12.744-8.696 20.5L25 183l-2 1c-.59-9.11-.612-16.483 5-24 7.848-8.594 17.149-14.95 29-11"/><path fill="#b0240b" d="M191 303c2 3 2 3 2 7h-75v-1l1.833-.076q4.146-.177 8.292-.361l2.883-.12 2.812-.127 2.571-.11c2.63-.16 2.63-.16 5.267-.706 4.662-.697 9.283-.736 13.99-.816l3.069-.063q4.83-.097 9.658-.183l6.566-.131q8.03-.16 16.059-.307z"/><path fill="#0d1827" d="M310 231c1.099 2.198 1.23 3.69 1.438 6.125.446 4.448 1.387 8.566 2.562 12.875l2.5.25c6.425 1.377 10.957 4.044 15.5 8.75 2.138.787 2.138.787 4 1-.7 3.147-1.76 6.026-3 9l-2-4-2 3-.562-2.625C326.1 259.89 321.483 256.283 316 254a98 98 0 0 0-7 0v-3l-.5-2.437c-.723-5.15-.958-10.376-.5-15.563zm0 17 1 2Z"/><path fill="#0d1828" d="M284 193c-.534 4.538-2.197 7.418-5 11-2.75 1.875-2.75 1.875-5 3v-2l-3 1c-7.172.455-7.172.455-10.5-1.375C259 203 259 203 259 201l3.438-.437c3.37-.175 3.37-.175 4.562-1.563l-3-1 2.59-.148 3.348-.227 3.34-.21c.898-.138 1.796-.274 2.722-.415l1-2h-6v-1c8.429-2.429 8.429-2.429 13-1"/><path fill="#f8503d" d="M10 219h1l.297 2.64c1.781 14.19 4.958 26.672 16.094 36.462C32.849 262.136 38.596 264.806 45 267l-1 3c-10.521-1.772-19.117-7.975-25.754-16.164-5.53-7.844-9.393-16.767-9.371-26.399l-.008-3.503C9 221 9 221 10 219"/><path fill="#efb585" d="M149 226c.343 3.691.278 5.547-1.687 8.75-3.607 3.509-6.141 4.135-11.125 4.625-4.56-.121-8.555-1.612-12.188-4.375-1.227-2.14-1.227-2.14-2-4l2.527.105C133.47 231.321 141.395 226 149 226"/><path fill="#edebd8" d="M127 104c10.656 0 20.092 6.152 27.602 13.297C159.91 123.28 166.009 130.888 167 139c-2.304-2.103-3.609-3.972-4.875-6.812-5.483-11.191-15.876-18.134-27.422-22.29-7.129-1.73-14.395-1.808-21.703-1.898v-1l2.555-.148 3.32-.227 3.305-.21c2.95-.148 2.95-.148 4.82-2.415"/><path fill="#0a1526" d="M148 189c.459 9.704.459 9.704-1.062 14-3.158 3.26-6.629 4.814-11.172 5.18-1.923.007-3.846-.079-5.766-.18v-4l7-3v-2l6-2v-2h-2v-3c2.532-2.357 3.472-3 7-3"/><path fill="#c26002" d="M106 273c7.547 4.864 7.547 4.864 9 7 0 3.604-1.016 5.02-3.25 7.875C109 290 109 290 106.5 290.188c-3.574-1.698-5.144-4.025-7.5-7.188z"/><path fill="#cc6f06" d="M291 273c4.55 1.517 6.5 5.169 9 9l-7 7c-3.527-.093-4.795-.805-7.375-3.25C284 283 284 283 283.875 280.5c1.625-3.611 3.962-5.145 7.125-7.5"/><path fill="#e0ddd5" d="M234 150h2q-.216 2.063-.437 4.125l-.247 2.32c-.221 1.788-.5 3.57-.82 5.342-.822 5.327-.763 10.645-.809 16.025l-.087 3.448c-.074 9.811 2.09 16.87 8.74 24.166 2.68 2.54 5.58 4.541 8.66 6.574l-2 1c-8.373-5.742-16.535-12.742-19-23-1.124-12.733-.521-27.956 4-40"/><path fill="#e50f0f" d="M8 219h1l.078 2.895C9.595 233.668 11.967 243.298 19 253c.418.594.835 1.189 1.266 1.8C25.936 262.15 34.432 266.764 43 270l-1 2c-12.866-3.467-22.582-11.338-29.645-22.566-5.012-9-6.178-17.175-5.355-27.434z"/><path fill="#3290e5" d="m354 197-6 2v2l-1.871.629C330.23 207.412 321.253 219.336 314 234h-2c.231-10.404 7.947-18.756 15.113-25.637 6.463-5.29 18.366-14.64 26.887-11.363"/><path fill="#f6b985" d="m256 224 2.188 1.375c5.494 3.175 9.803 3.897 16.125 3.75l2.244-.027c1.814-.024 3.629-.06 5.443-.098-2.66 3.743-4.528 5.782-9 7-5.625.71-10.38 1.028-15.25-2.062-2.128-3.572-2.151-5.847-1.75-9.938"/><path fill="#e68e03" d="M128 117c5.358 1.418 7.692 4.857 11 9a367 367 0 0 0 3.625 4.375l1.664 2.023c1.903 1.782 3.166 2.213 5.711 2.602v-3h2l-.187 2.563c.227 4.173 1.39 6.691 3.187 10.437-5.972-1.344-9.897-4.625-14-9-2-3.437-2-3.437-3-6l-1 3h-2l-.77-2.484-1.042-3.266-1.02-3.234c-1.087-2.806-2.237-4.736-4.168-7.016"/><path fill="#f0eddc" d="M177.25 114.563c9.37 5.158 12.777 11.715 16.75 21.437l-2 1v-2h-2a97 97 0 0 1-3.125-5.125c-3.909-6.314-7.984-10.06-14.687-13.187-4.691-1.012-9.406-1.365-14.188-1.688v-2c6.902-2.3 12.7-1.505 19.25 1.563"/><path fill="#0b1827" d="M250 161c4.75.75 4.75.75 7 3 .657 5.69-.508 8.526-4 13-4.75-.75-4.75-.75-7-3-.686-6.971-.686-6.971 2-11z"/><path fill="#071425" d="M144 162c3.375.313 3.375.313 7 1 2.09 3.134 2.274 3.975 2.25 7.563l.016 2.378C153 175 153 175 151 177c-2.375.438-2.375.438-5 0-3.154-2.813-3.938-4.4-4.375-8.625C142 165 142 165 144 162"/><path fill="#1f232a" d="m332 273 2 1c.625 3.063.625 3.063 1 6l-4 1-1 9h-1l-1-5 1 11c-2.686-2.686-3.06-5.376-4-9a56.5 56.5 0 0 0-7 4h-4v-2l2.262-1.27c3.271-2.067 4.57-4.118 6.55-7.418l1.833-3.011L326 275l1 2c3.278-.752 3.278-.752 5-4"/><path fill="#191920" d="M159 231h1c-.206 5.863-1.17 8.955-5.04 13.36-6.01 5.028-10.644 6.34-18.335 6.202l-2.55-.026c-8.266-.272-12.863-2.734-19.012-8.099-1.81-2.139-2.883-3.935-4.063-6.437l1.469 1.172c9.11 7.078 16.843 10.689 28.531 9.828 6.135-1.212 10.73-3.424 15-8 1.299-2.646 2.135-5.163 3-8"/><path fill="#f3e256" d="M87 237c-.914 11.045-.914 11.045-3 14-5.343 2.683-11.111 3.465-17 4 3.761-4.607 7.635-8.578 12.172-12.422 1.976-1.66 1.976-1.66 4.203-4.016C85 237 85 237 87 237"/><path fill="#0b2a2b" d="m294 230 1 2c-5.416 8.082-12.155 14.946-22 17-7.379.808-13.955.662-20-4-2.197-2.201-4.149-4.503-6-7l1-2 1.563 2.25c4.03 4.548 6.91 6.469 12.91 7.137 11.532.335 18.332-1.938 26.8-9.606 1.765-1.82 3.254-3.72 4.727-5.781"/><path fill="#f3ede1" d="m164 154 2 1c3.879 12.33 7.375 28.664 2.438 41.125-3.296 5.959-7.921 10.931-13.438 14.875 1.295-2.855 2.681-4.84 4.875-7.062 5.802-6.67 7.678-14.526 7.328-23.215L167 178l-.203-2.879c-.026-4.405-.026-4.405-1.797-8.121a168 168 0 0 1-.562-6.562l-.254-3.63z"/><path fill="#0d1e33" d="M380 196c1.828 1.637 1.828 1.637 3 3-1.746 1.113-1.746 1.113-4 2-1.91-.645-1.91-.645-4.062-1.812C366.34 195.354 356.268 196 347 196l-2-2c11.468-3.745 24.098-3.326 35 2"/><path fill="#df8838" d="m201 233-1 2-1.988-1.086-12.016-6.56-2.988-1.631-2.761-1.508c-3.528-1.908-5.44-2.335-9.474-2.313l-3.125.01-3.273.025-3.297.014q-4.039.018-8.078.049v-2c19.567-6.139 32.292 2.397 48 13"/><path fill="#f08d01" d="m102 144 2 1c-4.601 9.16-9.64 16.416-19 21v-10l3.125-1.25c5.849-2.529 10.114-5.542 13.875-10.75"/><path fill="#151f2b" d="M22 173h1q.039 3.188.063 6.375l.035 3.586C23 186 23 186 22 188l2.52-.691 3.293-.871 3.269-.88C34 185 34 185 37 186c-.375 1.938-.375 1.938-1 4-3.113 1.556-6.4 1.184-9.812 1.188l-2.159.037c-4.13.011-7.317-.38-11.029-2.225v-2l1.938-.687c2.334-1.166 2.334-1.166 2.812-3.938L18 180l3 3z"/><path fill="#101c2a" d="M293 170a100 100 0 0 1 5 0c1.56 1.56 1.245 3.09 1.313 5.25-.018 3.641-.234 4.63-2.313 7.813L295 185c-4.75-.75-4.75-.75-7-3-.315-4.336-.449-6.327 2-10h2l1 2 3 1c-.348-1.975-.348-1.975-1-4z"/><path fill="#0c1828" d="M103 176c2.25-.312 2.25-.312 5 0 3.141 2.802 3.93 4.427 4.438 8.625C112 188 112 188 110.812 190c-1.812 1-1.812 1-4.374.875C104 190 104 190 102 187v-4h3v-4h-3z"/><path fill="#ecb285" d="M226 160c2.13 3.194 2.234 3.492 1.758 7.012l-.293 2.295-.34 2.38-.316 2.417c-.26 1.966-.533 3.931-.809 5.896-2.409-.963-3.755-1.639-5.227-3.812-1.413-3.998-1.355-8.017-.773-12.188 2.857-4 2.857-4 6-4"/><path fill="#1d8e2c" d="M223 249c2.127 4.253-.427 10.433-1.312 14.938l-.686 3.654-.678 3.498-.622 3.214C219 277 219 277 217 280h-2c-1.687-1.687-1.687-1.687-3-4 .414-4.434 2.333-7.905 4.375-11.812 2.561-4.971 4.824-9.89 6.625-15.188"/><path fill="#f8c191" d="m196 262 .938 3.438c.691 3.35.691 3.35 2.062 4.562.072 1.52.084 3.042.063 4.563l-.028 2.503L199 279h-3l-1-5-1 3-1 3a540 540 0 0 1-2-5.187l-1.125-2.918c-.851-2.817-1.046-4.977-.875-7.895 2.647-1.46 3.894-2 7-2"/><path fill="#0c65be" d="M291.938 394.938 294 395a118 118 0 0 1-5 5l-1.434 1.375c-5.434 4.553-11.7 4.933-18.566 5.625 7.158-7.32 12.414-11.839 22.938-12.062"/><path fill="#0b56cd" d="M387 243c1 3 1 3 .031 4.98A257 257 0 0 1 382 255l-1.54 2.121c-5.256 6.642-13.146 12.563-21.71 13.817L356 271l-1-2 2.344-.883C370.434 262.965 380.05 255.331 387 243"/><path fill="#0e1523" d="M150 225h3c.318 4.607.43 7.125-1.625 11.313-3.288 3.72-5.939 5.523-10.984 5.863-2.472.01-4.923-.044-7.391-.176l-1-3 2.012-.332c7.06-1.07 7.06-1.07 12.988-4.668 1.284-2.934 2.201-5.902 3-9"/><path fill="#e8b88c" d="M171 159c4.477-.363 4.477-.363 6.645 1.14 1.915 2.629 1.754 4.576 1.73 7.798l.023 3.152c-.44 3.21-1.137 4.622-3.398 6.91h-2c-.953-4.763-1.083-9.167-1-14l-2-1z"/><path fill="#f8ed65" d="m311 236 14 12c-2 2-2 2-4.164 2.195l-2.461-.07-2.477-.055L314 250c-2.04-4.93-3.407-8.58-3-14"/><path fill="#0e6fcc" d="M101 395c8.794-.242 13.657 1.4 20.234 7.285L123 404c-4.197 1.174-7.842 1.417-12 0-3.595-2.381-6.875-5.029-10-8z"/><path fill="#efbd8f" d="M72.375 188.75c3.26.225 4.931.526 7.625 2.25v3l2 1-11-1-1 5c1.872 2.694 1.872 2.694 4 5v2c-3.474-.939-4.785-1.692-6.875-4.687-1.337-3.937-1.126-6.308-.125-10.313 2-2 2-2 5.375-2.25"/><path fill="#f2933d" d="M115 230v2l-2.16.664c-8.007 2.651-13.946 5.574-18.09 13.149C93 249 93 249 90 250c.16-6.369 3.631-9.793 8-14 5.262-4.08 10.265-6.396 17-6"/><path fill="#ef7409" d="m115 230 1.438 2.125c7.03 7.888 14.201 9.946 24.562 10.875v1c-6.905.302-11.848.451-18-3l-2.5.625c-2.5.375-2.5.375-5.687-1.812-2.32-2.32-3.696-3.798-4.813-6.813l5-1z"/><path fill="#f4bf90" d="m331 180.813 2.125-.043C335 181 335 181 337 183c.644 6.332-.144 9.894-4 15-2.75.938-2.75.938-5 1l1.938-2.562c2.259-3.345 2.74-6.412 3.062-10.438l-7-1-1-3c2.229-1.114 3.53-1.165 6-1.187"/><path fill="#116ac5" d="M341 281h1c1.967 6.517 2.402 9.52-.5 15.688l-1.406 3.011L339 302h-2c-1.632-8.497-.592-13.676 4-21"/><path fill="#6ec442" d="M289 224c6.15.488 12.446 1.099 18 4l1 3-3.219-.973c-6.301-1.71-6.301-1.71-12.781-2.027-2.97 1.892-4.41 3.701-6.324 6.633-1.943 2.744-3.63 3.976-6.676 5.367l-3-1 1.61-1.102c5.538-3.942 9.19-7.3 11.39-13.898"/><path fill="#ebebe5" d="M70 128h4c-.912 4.403-2.914 8.213-4.844 12.246-1.094 2.607-1.711 4.97-2.156 7.754l-4 1c.271-8.137 3.09-13.932 7-21"/><path fill="#1b4784" d="M223 36q2.407.212 4.813.438c.893.08 1.786.162 2.707.246C233 37 233 37 236 38c-.66 3.693-1.53 4.706-4 8l-10-3 2-1c.652-2.025.652-2.025 1-4h-2z"/><path fill="#86d750" d="m246.75 223.938 2.422.027L251 224l.445 2.012c1.75 6.93 1.75 6.93 6.528 12.093 4.415 1.949 9.266 2.379 14.027 2.895v1c-7.226.47-12.162.527-18-4-3.22-3.898-4.522-6.977-5-12l-3.125 1.063c-3.855.932-6.077.863-9.875-.063 3.2-3.2 6.37-3.127 10.75-3.062"/><path fill="#e59407" d="M152 134c3.196 1.538 6.216 3.289 9.25 5.125l2.703 1.633L166 142l2-2 1 9c-5.868-.796-9.033-3.785-13-8-1.587-2.285-2.771-4.492-4-7"/><path fill="#f0eee2" d="m108 105-1 3 2 1-2.668.805-3.52 1.07-3.48 1.055c-2.84.912-5.58 1.92-8.332 3.07v-3l2-1-2-2a587 587 0 0 1 6.25-2.562l3.516-1.442c3.097-.954 4.307-1.206 7.234.004"/><path fill="#dd1012" d="M8 219h1l.078 2.895c.404 9.209 1.664 16.997 6.074 25.265 1.075 2.333.694 3.472-.152 5.84-7.169-9.473-8.943-19.257-8-31z"/><path fill="#f95747" d="M10 219h1l.332 2.71c.865 6.597 1.88 12.819 4.082 19.106.662 2.469.684 4.64.586 7.184-5.03-4.41-6.76-11.057-7.29-17.543-.057-8.762-.057-8.762 1.29-11.457"/><path fill="#e69f6e" d="M138 139c2.903 1.33 5.09 2.86 7.5 4.938 4.287 3.32 8.498 4.32 13.766 5.324 2.87.775 4.503 1.81 6.734 3.738l-1 2c-23.23-7.682-23.23-7.682-26.5-13.812z"/><path fill="#e79e6c" d="M131 133c2.858 2.858 2.408 5.147 2.625 9.125l.227 3.883L134 149h-2l-1-4-1 2c-2.937 2.01-4.392 3-8 3l1.207-1.941c3.01-4.915 5.692-9.69 7.793-15.059"/><path fill="#9cd878" d="m208 246 3 1c-3.079 3.87-6 7.03-10 10 1.404 4.101 3.37 6.98 6.125 10.313l2.195 2.675L211 272l-1 2a4396 4396 0 0 1-4.875-5.812l-1.395-1.659c-5.76-6.888-5.76-6.888-5.64-9.42 1.267-2.937 3.171-4.655 5.472-6.859l2.504-2.422z"/><path fill="#442422" d="M227 139c1.938.75 1.938.75 4 2 1.486 3.554.632 6.155-.437 9.75l-.872 2.984L229 156h-2c-1.131-3.394-1.133-6.053-1.125-9.625l-.008-3.54C226 140 226 140 227 139"/><path fill="#c63c01" d="M107 260h2c2.12 2.25 3.866 4.817 5.688 7.313l1.587 2.091 1.487 2.022 1.373 1.856L120 275l-1 3q-1.939-1.435-3.875-2.875l-2.18-1.617c-3.99-3.094-4.746-5.628-5.945-10.508z"/><path fill="#0d1525" d="m101 291 1.375 1.5c1.501 1.726 1.501 1.726 3.625 1.5a540 540 0 0 1 2 5.188l1.125 2.917c.851 2.817 1.046 4.977.875 7.895h-3a1216 1216 0 0 1-3-7.25l-.867-2.066C101.707 297.186 101 294.83 101 291"/><path fill="#f8e5d1" d="M232 173h1l.078 3.621c.386 12.288 1.617 21.556 10.922 30.379 2.271 1.805 4.574 3.399 7 5l-2 1c-7.563-5.186-14.688-11.216-18-20-.21-3.487.032-6.897.313-10.375.06-.927.122-1.854.185-2.809q.228-3.41.502-6.816"/><path fill="#422c2c" d="M325 254c2.198.985 3.82 1.813 5.5 3.563 1.775 1.7 3.11 2.025 5.5 2.437-.7 3.147-1.76 6.026-3 9l-2-4-2 3-.875-2.75c-.997-3.128-.997-3.128-2.25-5.437-.99-2.05-.875-3.551-.875-5.813"/><path fill="#242930" d="M255 223h1l.25 3.75c.376 2.72.755 4.26 2.125 6.688 4.222 2.512 8.793 2.395 13.625 2.562v1l-3.437.375L265 238l-1 2c-4.025-.28-5.745-.784-8.875-3.437C253 234 253 234 253 232h2z"/><path fill="#c5232c" d="M266 200v2l2.813-.687C272 201 272 201 273.875 202.438L275 204c-3.754 2.503-7.642 2.598-12 2-2.5-1.375-2.5-1.375-4-3v-2c2.463-1.231 4.28-1.072 7-1"/><path fill="#e9e4dd" d="m164 154 2 1a127 127 0 0 1 2.125 8.5c.182.779.364 1.557.55 2.36 1.209 5.486 1.493 10.525 1.325 16.14l-2-1c-.598-2.906-.598-2.906-1.062-6.5-.202-4.074-.202-4.074-1.938-7.5a168 168 0 0 1-.562-6.562l-.254-3.63z"/><path fill="#328cdf" d="m354 197-6 2v2l-1.941.734c-5.313 2.059-10.192 4.304-15.059 7.266l-2-2c18.236-12.342 18.236-12.342 25-10"/><path fill="#e4503f" d="M46 197v2l-3.148.332c-7.89.88-15.339 1.959-22.852 4.668 1.389-3.263 1.859-3.92 5.125-5.75 6.606-2.272 13.992-1.476 20.875-1.25"/><path fill="#ba1721" d="M142 202v4c-3.9 2.6-7.474 2.15-12 2v-4c4.177-1.591 7.532-2.213 12-2"/><path fill="#363035" d="M259.971 217.773c.786.01 1.571.02 2.38.032l2.579.02 2.695.05 2.719.027q3.328.036 6.656.098v1h-12l1 2c2.714.312 5.34.513 8.062.625l2.3.117c1.878.095 3.758.177 5.638.258v1a789 789 0 0 1-9.063.187l-2.568.077c-5.594.064-9.389-.69-14.369-3.264 2-2 2-2 3.971-2.227"/><path fill="#0b2f57" d="M245 51c3.161 1.37 3.993 1.99 6 5-.271 4.253-1.178 6.81-4 10l-2-1 .098-5.957c-.015-2.246-.015-2.246-1.098-5.043z"/><path fill="#d67f53" d="M319.152 106.402c1.99 1.72 2.853 3.185 3.848 5.598l-2.133-1.39c-7.82-4.86-14.885-7.47-23.867-9.61v-1c8.462-2.387 15.25 1.838 22.152 6.402"/><path fill="#1c2938" d="M22 173h1q.039 3.125.063 6.25l.035 3.516c-.08 2.644-.312 4.732-1.098 7.234h-8l-1-3 1.938-.687c2.334-1.166 2.334-1.166 2.812-3.938L18 180l3 3z"/><path fill="#000a1e" d="M301 289h2v21h-3q-.04-3.562-.062-7.125l-.026-2.016c-.02-4.066.3-7.871 1.088-11.859"/><path fill="#1b1922" d="M159 231h1c-.208 5.917-1.144 9.138-5.246 13.457C151.25 247.539 147.8 250 143 250v-2l-2-1 1.758-.48c5.529-1.652 9.276-3.27 13.242-7.52 1.299-2.646 2.135-5.163 3-8"/><path fill="#c0845e" d="m138 182 1 4c-2.36 2.097-3.546 2.97-6.75 3.188L130 189l-1-5c3.435-2.29 4.985-2.178 9-2"/><path fill="#a91414" d="m57 150 3 1v13h-2l-2-2h-1c-.286-8.571-.286-8.571 2-12"/><path fill="#b68161" d="M264 179c5.75.75 5.75.75 8 3v4c-6.523.37-6.523.37-8.937-1.5L262 183z"/><path fill="#062758" d="m257 39 2 3c-1.113 2.48-1.113 2.48-3 5-2.918.488-2.918.488-6.187.313l-3.293-.137L244 47l-1-3 2.3-.078 3.012-.172 2.989-.14c2.838-.37 2.838-.37 4.554-2.657z"/><path fill="#d1d4d7" d="m259 193 18 2-1 3c-11.522.554-11.522.554-17-3z"/><path fill="#472724" d="M280 121v1l-3.29.77q-2.167.52-4.335 1.043l-2.16.501c-4.426 1.076-8.157 2.56-12.215 4.686h-2c.129-1.86.129-1.86 1-4 7.248-3.542 15.023-4.648 23-4"/><path fill="#f9f2d3" d="m128.91 103.953 2.153.297 2.16.266L135 105l1 2-1 2-22-1v-1l2.555-.148 3.32-.227 3.305-.21c3.137-.461 3.796-2.39 6.73-2.462"/><path fill="#5ec52d" d="m292 227 4 2a247 247 0 0 1-3.187 3.938l-1.793 2.214c-2.345 2.145-3.904 2.509-7.02 2.848 1.473-5.01 4.275-7.518 8-11"/><path fill="#e79c6a" d="m174 163 3 2c.512 2.602.512 2.602.688 5.625l.199 3.04L178 176l-4 2c-.953-4.767-1.164-9.16-1-14z"/><path fill="#dddcce" d="M57 149v2l-2.012.148c-6.7.563-6.7.563-12.988 2.852v-3l-2-1c5.357-2.765 11.339-2.887 17-1"/><path fill="#f2a873" d="m127 147 2 1c-4.035 4.811-8.045 9.132-13 13 0-3.662.92-5.028 3-8 1.938-1.625 1.938-1.625 4-3l2.25-1.687z"/><path fill="#e96f4a" d="M74 254a271 271 0 0 1-2.812 3.5l-1.583 1.969C68 261 68 261 65 261c-1.687-1.5-1.687-1.5-3-3 3.59-4.786 6.417-4.372 12-4"/><path fill="#cf4401" d="m186 247 7 4-2 6c-1.875-.187-1.875-.187-4-1-1.523-2.683-2.122-4.245-1.625-7.312z"/><path fill="#d1855b" d="M227 163c1.262 3.787.676 6.257.063 10.188l-.59 3.855L226 180c-1.93-3.86-3.125-6.261-3.062-10.625l.027-2.477L223 165z"/><path fill="#0b3366" d="M194 20c-.875 6.75-.875 6.75-2 9h-8l2-3h2l.313-1.875C189.278 21.141 190.836 20 194 20"/><path fill="#efefd3" d="M334 266c4.854-.571 7.14 1.208 11 4a135 135 0 0 0 4 2c-6.13.327-10.627.394-16-3z"/><path fill="#f7d420" d="M62 261c0 2 0 2-1.562 3.875-2.96 2.58-6.006 4.219-9.438 6.125l-2 2h-3v-2a87 87 0 0 1 4.813-4l2.707-2.125C58.646 261 58.646 261 62 261"/><path fill="#52bb2d" d="M288 237c-3.376 3.674-6.391 6.054-11 8h-2c.125-2.312.125-2.312 1-5 4.049-2.73 7.168-3.345 12-3"/><path fill="#f4eb66" d="M336 262c3.698.45 5.906 2.262 8.75 4.563l2.422 1.94L349 270c-1.82.621-1.82.621-4 1l-2.875-1.937c-3.455-2.281-5.085-2.448-9.125-2.063 1.875-3.875 1.875-3.875 3-5"/><path fill="#000d20" d="M265 219h16v3h-15z"/><path fill="#cfd5d9" d="M143 195v2c-6.298 3.369-10.881 4.14-18 4l-1-2 2.773-.621 3.602-.816 3.586-.81C141.03 195 141.03 195 143 195"/><path fill="#4c515c" d="m144 162 7 1v3h-2l-1 2h-5l-1 4c-.25-6.625-.25-6.625 2-10"/><path fill="#101b29" d="M353 192h15v3h-14z"/><path fill="#3d2524" d="M332 141h2c2.48 6.243 3.32 11.283 3 18l-2-3-2 1z"/><path fill="#2d9a2b" d="m290 261 2 1c-2.03 7.977-6.622 12-13 17l-2 1c.978-4.033 2.824-5.844 5.938-8.375 3.918-3.236 5.495-5.826 7.062-10.625"/><path fill="#f5d0aa" d="M310 253c5.238-.998 8.276 1.085 12.46 3.906L324 258l-1 2-3.562-1.437c-3.839-1.451-7.365-2.139-11.438-2.563z"/><path fill="#ebddb5" d="M106 273c7.547 4.864 7.547 4.864 9 7 0 3.783-.988 4.986-3.562 7.813L109 290l-2-1 5-6c-1.073-2.592-1.832-3.876-4.125-5.562-.619-.475-1.237-.95-1.875-1.438z"/><path fill="#272836" d="m90 255 1 2c2.025.652 2.025.652 4 1l-2.875.438c-5.847 1.596-9.91 6.44-14.125 10.562l-1-2c3.878-4.93 7.761-8.542 13-12"/><path fill="#eedfa9" d="M293 273c-1.23 3.688-2.939 4.724-6 7 .628 2.929 1.586 5.361 3 8-3.161-1.37-3.993-1.99-6-5 0-2.792.416-4.375 2.34-6.434C290.472 273 290.472 273 293 273"/><path fill="#e76201" d="M123.875 240.813c2.48.942 4.793 1.931 7.125 3.187v2c-4.958.292-8.028.13-12-3v-2c2-1 2-1 4.875-.187"/><path fill="#06101f" d="m180 164 4 1v10h-2l-1-2-2 2z"/><path fill="#efcb24" d="M336 259c3.441 1.545 6.187 3.583 9.125 5.938l2.633 2.09C350 269 350 269 352 272h-3v-2l-1.625-.687C345 268 345 268 341.938 265.438c-2.74-2.573-2.74-2.573-5.938-3.438z"/><path fill="#282a1b" d="M82 149c3.24 4.32 3.354 5.152 3.188 10.25l-.083 3.266L85 165l-3-1z"/><path fill="#262b36" d="M100 260v2l3 2-3.062.625C94.23 266.237 90.227 270.158 87 275l-2-1q2.123-2.377 4.25-4.75l2.39-2.672C97.66 260 97.66 260 100 260"/><path fill="#2f2d37" d="M304 256c4.368-.655 6.667.155 10.125 2.688 3.074 2.479 5.587 5.07 7.875 8.312-3 0-3 0-4.543-1.426l-1.644-1.887c-3.631-3.832-6.791-5.19-11.813-6.687z"/><path fill="#1161d5" d="m387 243 1 3c-2.464 4.865-5.916 9.387-10 13l-2-2 1.645-1.793 2.168-2.394 2.144-2.356c1.976-2.377 3.529-4.768 5.043-7.457"/><path fill="#e68b37" d="M115 230v2a301 301 0 0 1-5.25 2.125l-2.953 1.195c-2.797.68-2.797.68-5.156-.203L100 234a415 415 0 0 1 4.688-2l2.636-1.125c2.733-.894 4.823-1.04 7.676-.875"/><path fill="#c71a1c" d="M8 219h1l.184 3.105.254 4.083.119 2.04c.232 3.669.615 7.189 1.443 10.772-1.98-1.062-1.98-1.062-4-3-.426-3.25-.426-3.25-.312-7l.074-3.75C7 222 7 222 8 219"/><path fill="#011224" d="M119 221h14l-1 3h-12z"/><path fill="#b16a4a" d="M333 125c5.614 1.32 7.996 5.437 11 10 1.354 2.709 1.065 5.01 1 8-2-2-2-2-3.187-5.687-1.53-4.364-4.007-6.893-7.387-9.965L333 126z"/><path fill="#9b5b41" d="M106 294h5v12c-2-1-2-1-2.852-3.504l-.773-3.058c-.26-1.012-.52-2.024-.79-3.067z"/><path fill="#081324" d="m126 247 17 1v2h-16z"/><path fill="#8cd95d" d="M290 224c5.814.529 11.74 1.307 17 4l1 3-1.652-.586c-5.392-1.862-10.757-3.29-16.348-4.414z"/><path fill="#3695ed" d="M331 208c-1.408 3.215-3.103 5.322-5.625 7.75l-1.914 1.86L322 219c-.703-1.766-.703-1.766-1-4 1.328-1.922 1.328-1.922 3.25-3.75l1.89-1.86C328 208 328 208 331 208"/><path fill="#2982df" d="M54 182h2c.73 1.977 1.394 3.98 2 6l-1 2-7-1a56.5 56.5 0 0 1 4-7"/><path fill="#2c9f26" d="M223 249c1.775 3.55.122 7.347-1 11-1.73 3.898-3.375 6.584-7 9z"/><path fill="#e1e1cf" d="M311 236c1.984 1.145 1.984 1.145 4 3 .39 2.7.39 2.7.25 5.688l-.11 3.011L315 250c-2.682-3.077-3.42-5.197-3.687-9.25l-.2-2.703z"/><path fill="#ba825e" d="M131 133c2.858 2.858 2.408 5.147 2.625 9.125l.227 3.883L134 149h-2l-2-8-.625-2.125c-.505-2.527.32-3.725 1.625-5.875"/><path fill="#faf9dd" d="m63 266 1 4c-4.177 1.591-7.532 2.213-12 2 7.4-6 7.4-6 11-6"/><path fill="#232225" d="m126 237 6 1 1 4h8v1c-5.439.218-9.87.104-15-2z"/><path fill="#010e22" d="M310 231c1.3 2.602 1.168 4.597 1.188 7.5l.042 2.969C311 244 311 244 309 246c-1.807-1.807-1.173-4.504-1.187-6.937l-.043-3.278C308 233 308 233 310 231"/><path fill="#edc19b" d="m96 258 2 1-1 4-5 1 2-4-7 1c2.608-3.477 4.824-3.355 9-3"/><path fill="#f5a773" d="m329 252 8 6-1 2c-3.674-.306-4.781-.758-7.312-3.562L327 254h2z"/><path fill="#c45304" d="M131 244h7v2l3 2c-1.77.054-3.541.093-5.312.125l-2.989.07C130 248 130 248 127 246h4z"/><path fill="#3b3723" d="M105 140c2 2 2 2 2.266 4.313L107.25 147l.016 2.688C107 152 107 152 105 154v-6h-2c.875-6.875.875-6.875 2-8"/><path fill="#81ce5c" d="m199 257 12 15-1 2q-2.444-2.87-4.875-5.75l-1.395-1.633c-2.304-2.738-4.332-5.306-5.73-8.617z"/><path fill="#1a2430" d="m86 243 .375 1.938L87 247l2 1v3l2 1-1 2h-7l2-2-1-2c.608-2.35 1.271-4.685 2-7"/><path fill="#e09768" d="M333 185v2l-10 5c.313-2.375.313-2.375 1-5 3.435-2.29 4.985-2.178 9-2"/><path fill="#000b1e" d="M228 170h2c.111 5.458-.083 10.615-1 16h-1c-.846-5.078-1.178-9.848-1-15z"/><path fill="#575f6a" d="M250 161c2.563.25 2.563.25 5 1l1 2h-2v3h-5c-.625-1.875-.625-1.875-1-4z"/><path fill="#1b2633" d="m67 267 2 2h-2zm0 3-3 5-2.25-.937c-2.262-.875-4.4-1.506-6.75-2.063q2.15-.796 4.313-1.562l2.425-.88C64 269 64 269 67 270"/><path fill="#f0d7b7" d="m89 254 1 2-13 3c3.098-6.196 5.636-5.103 12-5"/><path fill="#010d21" d="m275 237-1 3h-10l1-3c6.625-1.125 6.625-1.125 10 0"/><path fill="#25343d" d="m294 219 10 3c-1.625 2.063-1.625 2.063-4 4-3.25-.25-3.25-.25-6-1z"/><path fill="#3da1f2" d="M363 196v2l-16 2c1-2 1-2 3.5-3.125 4.256-1.064 8.141-1.05 12.5-.875"/><path fill="#030f20" d="M217 165h2c.37 6.523.37 6.523-1.5 8.938L216 175c-1-1-1-1-1.187-4.437C215 167 215 167 217 165"/><path fill="#06294f" d="M267 58h2v2h2c.688 2.25.688 2.25 1 5-1.437 2.313-1.437 2.313-3 4-1.423-3.823-2.24-6.913-2-11"/><path fill="#d4b418" d="M208 45c3.102 4.653 4.338 9.415 4 15l-7-5 2-1 2 1z"/><path fill="#1e812b" d="m332 273 2 1c.625 3.063.625 3.063 1 6l-6 1c.547-3.375 1.055-5.082 3-8"/><path fill="#0a2527" d="m247 236 1.285 1.172c4.018 3.567 7.969 6.31 12.715 8.828v1c-3.939 0-6.01-.131-9.023-2.777C247 238.606 247 238.606 247 236"/><path fill="#85cd5c" d="m246.75 223.938 2.422.027L251 224c-4.161 2.774-7.33 4.186-12.375 3.625L236 227c3.2-3.2 6.37-3.127 10.75-3.062"/><path fill="#e4decd" d="m236 199 1.875 2c4.033 4.057 8.627 7.48 13.125 11l-2 1c-9.285-6.705-9.285-6.705-13-11z"/><path fill="#e74434" d="M53 199v3l-19-2v-1c6.512-.695 12.551-1.32 19 0"/><path fill="#393d45" d="M141 193v2c-4.798 2.907-8.427 3.284-13.875 2.688l-2.086-.186A334 334 0 0 1 120 197v-1l2.887-.148 3.8-.227 3.762-.21c3.682-.43 6.958-2.415 10.551-2.415"/><path fill="#202931" d="M291 161c7.385-.37 7.385-.37 10.5 1.5l1.5 1.5-1 3-2.687-1.437c-2.883-1.36-5.19-2.104-8.313-2.563z"/><path fill="#c07c58" d="m272 99-3 1 1 2-9 2-1-3a211 211 0 0 1 3.75-1.562l2.11-.88c2.44-.636 3.78-.36 6.14.442"/><path fill="#35211f" d="m296 142 2 2c-3.674.853-7.045 1.108-10.812 1.063l-2.958-.028L282 145c8.975-4.675 8.975-4.675 14-3"/><path fill="#d14e03" d="M89 249c7.46.611 7.46.611 10 2.438 1 1.562 1 1.562 1 3.562-3.724-1.213-7.378-2.509-11-4z"/><path fill="#318cea" d="M389 237c.688 1.813.688 1.813 1 4-1.187 1.75-1.187 1.75-3 3h-4c.188-2.375.188-2.375 1-5 2.563-1.312 2.563-1.312 5-2"/><path fill="#3388ce" d="m354 197-6 2v2l-8 1v-2a336 336 0 0 1 4.75-2.062l2.672-1.16c2.73-.824 3.947-.755 6.578.222"/><path fill="#1f3952" d="m353 193 1 1c2.016.234 4.038.413 6.063.563l3.347.253L366 195v1h-19l-2-2c2.945-.982 4.935-1.161 8-1"/><path fill="#d4d8db" d="M36 189c3 1 3 1 4 3-6.565.784-12.468 1.11-19 0v-1l2.773-.184 3.602-.254c1.183-.08 2.367-.162 3.586-.246 2.954-.127 2.954-.127 5.039-1.316"/><path fill="#182333" d="m228 163 3 1v10l-1-4-3 1z"/><path fill="#1b2637" d="m236 109 2 1-9 9-3-1a1326 1326 0 0 1 3.875-3.937l2.18-2.215C234 110 234 110 236 109"/><path fill="#1a1e2c" d="M284 226h4l-1 5h-3a104 104 0 0 0-5 2 162 162 0 0 1 2.25-3.5l1.266-1.969z"/><path fill="#1c212f" d="M107 168v2l-3.25.875c-2.844.853-5.185 1.689-7.75 3.125 2.324-6.473 4.301-6.124 11-6"/><path fill="#efb688" d="M137 141h2c1 3 1 3-.062 5.625C137 149 137 149 133.813 149.813L131 150l1-2 2 1c1.075-2.652 2.095-5.284 3-8"/><path fill="#052553" d="M269 46c7.429-.286 7.429-.286 11 2-2.917 1.984-4.124 1.988-7.75 1.625L269 49z"/><path fill="#fbbe8c" d="m197 269 2 1v9h-3c-1.25-6.625-1.25-6.625 1-10"/><path fill="#dca075" d="M193 263v7h-2l-1 2-1-8c2-1 2-1 4-1"/><path fill="#1e1f2b" d="M300 262c4.104.518 5.957 2.646 8.75 5.563l2.422 2.503L313 272l-1 2-1.61-1.68-2.14-2.195-2.11-2.18c-1.991-1.81-3.683-2.893-6.14-3.945z"/><path fill="#2a8025" d="M307 232h1l1 18-3-1z"/><path fill="#e9e9db" d="M85 237h2a340 340 0 0 1-.375 4.313c-.07.8-.14 1.6-.21 2.425C86 246 86 246 84 249a340 340 0 0 1-.625-4.875l-.352-2.742L83 239z"/><path fill="#cd8c66" d="m203 239 4 1c-1.491 3.795-3.757 5.61-7 8z"/><path fill="#ec8e41" d="m189 226 11 6v3l-11-6z"/><path fill="#e28a04" d="m31 182 2 1c-.71 1.953-.71 1.953-2 4-2.164.61-2.164.61-4.625.75l-2.477.172L22 188v-2a419 419 0 0 1 4.375-2.062l2.46-1.16z"/><path fill="#000f25" d="M180 142c2.729.033 5.297.564 8 1v3c-6.625.25-6.625.25-10-2z"/><path fill="#a66950" d="M328 284h1c.365 1.748.716 3.498 1.063 5.25l.597 2.953c.324 2.665.195 4.286-.66 6.797-2.17-3.254-2.38-4.807-2.687-8.625l-.262-2.977L327 285z"/><path fill="#acec80" d="m218 237 1 3a517 517 0 0 1-3.375 3.5l-1.898 1.969C212 247 212 247 210 247c1.65-4.292 4.738-6.88 8-10"/><path fill="#222833" d="M249.945 152.805 256 153l2 4q-2.437-.213-4.875-.437l-2.742-.247C248 156 248 156 246 155c2-2 2-2 3.945-2.195"/><path fill="#020f21" d="M254 222h1v10h-3c-.195-6.055-.195-6.055 0-8z"/><path fill="#1b201d" d="M151 134c4.875 4.625 4.875 4.625 6 8l-3 2c-2.034-3.73-3-5.67-3-10"/><path fill="#133b76" d="m236 39 4 2h-3l-1 6-5-2z"/><path fill="#df790f" d="m105 274 1 2 1.875.938c2.183 1.091 3.495 2.27 5.125 4.062l-1 2c-3.399-1.133-4.734-2.265-7-5z"/><path fill="#e99d6a" d="M196 263c5.571 5.143 5.571 5.143 6 9-3.161-1.37-3.993-1.99-6-5z"/><path fill="#f9bf66" d="M71 250h4v4l-8 1c1.75-2.5 1.75-2.5 4-5"/><path fill="#362923" d="M181 244c2.9 2.395 3.502 4.312 4 8h-2l-1 3c-1.176-3.674-1.074-7.17-1-11"/><path fill="#012" d="M132 239c3.313-.187 3.313-.187 7 0l3 3h-9z"/><path fill="#fa9b48" d="M101.188 235.313 103 236c-5.143 5.571-5.143 5.571-9 6 3.25-7.25 3.25-7.25 7.188-6.687"/><path fill="#d89465" d="M101 156c1.16 3.478.708 5.459 0 9l-6-1z"/><path fill="#16202c" d="M143.98 153.734c2.009.015 4.016.135 6.02.266l1 2-3.75.438c-2.815.349-5.52.766-8.25 1.562 1.259-2.518 2.096-3.879 4.98-4.266"/><path fill="#e2dfcf" d="m108 105-1 3 2 1-6 1v-4l-2-1c3.133-1.044 3.99-.934 7 0"/><path fill="#f5e6d4" d="M234 150h2c-.114 1.46-.242 2.917-.375 4.375-.07.812-.14 1.624-.21 2.46C235 159 235 159 233 161a585 585 0 0 1-.062-4.375l-.036-2.46C233 152 233 152 234 150"/><path fill="#2a4468" d="m244 62 4 4-2 2-1-1-3 5c-1-2-1-2-.441-3.945l.879-2.18.87-2.195z"/><path fill="#d02b36" d="m128 50-1 2h-2v2l2 1c-3 0-3 0-5.187-2L120 51c2.709-1.354 5.01-1.065 8-1"/><path fill="#f6b181" d="M193 267h1v13c-3.006-3.006-2.596-5.824-3-10h2z"/><path fill="#f7b47e" d="m86 171 2 1-5 10-2-1v-3h2l.375-2.375C84 173 84 173 86 171"/><path fill="#787b80" d="M294.625 168.875 297 169l-2 2c.319 2.108.319 2.108 1 4l-4-1v-2l-2-1c2-2 2-2 4.625-2.125"/><path fill="#e8e8e0" d="M26 163c1.563 1.188 1.563 1.188 3 3-.312 2.688-.312 2.688-1 5l-4-1c.875-4.75.875-4.75 2-7"/><path fill="#fdf9e6" d="M33 160c-1.074 2.915-1.778 4.778-4 7h-2v-4c3.214-3 3.214-3 6-3"/><path fill="#c8895f" d="m235 144 12 1v1l-3.25.438c-2.667.4-5.164.838-7.75 1.562z"/><path fill="#83412a" d="M333 112h1c.37 6.523.37 6.523-1.5 8.938L331 122v-2l-2-1 1.438-2.375c.901-1.514 1.774-3.049 2.562-4.625"/><path fill="#dfce55" d="m197 15 3 3v2l-3 1-1 3h-2z"/><path fill="#deba94" d="M302 257h6v2h-5v3l-3-1z"/><path fill="#020a1b" d="M171 166c2.139 3.208 2.477 4.277 2 8l-3 2c-.125-6.625-.125-6.625 1-10"/><path fill="#252f35" d="m70 146-2 5c-3 0-3 0-6-1l1-3v2l2.375-1.5C68 146 68 146 70 146"/><path fill="#5baf3c" d="M260 38h2l1 7-5-1z"/><path fill="#2a4459" d="m215 27-1 3 3 1-9-1v-2c2.463-1.231 4.28-1.072 7-1"/><path fill="#030d1c" d="M61.313 273.438 63 275c-1 1-1 1-3.562 1.063L57 276v-2l-3-1c4.43-1.354 4.43-1.354 7.313.438"/><path fill="#123e31" d="m294 230 1 2-5 7-3-1z"/><path fill="#010b1f" d="M120 197h12v1h-9v3l-3-1z"/><path fill="#1b3e6b" d="m18 153 2 1a809 809 0 0 1-2.437 4l-1.372 2.25L15 162h-1v-5l3-1z"/><path fill="#061321" d="m141 138 5 2v4l2 1c-3.235-.558-4.979-1.372-7-4z"/><path fill="#e3c170" d="M284 279c2.786 1.393 3.524 3.304 5 6l1 3c-3.161-1.37-3.993-1.99-6-5z"/><path fill="#181c29" d="m298 275 4 4-1 3h-2c-1.625-2.5-1.625-2.5-3-5h2z"/><path fill="#fef26f" d="M341 266c3.375 1.186 5.647 2.276 8 5-5.538-.615-5.538-.615-7.875-2.562L340 267z"/><path fill="#f6f5c4" d="M334 266h5l1 2c-2.375 1.063-2.375 1.063-5 2l-2-1z"/><path fill="#dcc4a6" d="M310 253c3.125-.187 3.125-.187 6 0v2c-2.709 1.354-5.01 1.065-8 1z"/><path fill="#21282e" d="m315 250 7 2-2 3-4-1z"/><path fill="#f38732" d="M180 223c6.75.875 6.75.875 9 2l-1 3-8-4z"/><path fill="#e85847" d="m27 199-1 3c-3.062 1.188-3.062 1.188-6 2 1.773-3.926 2.48-5 7-5"/><path fill="#68707d" d="m101 178 4 1v4h-3l-1 2z"/><path fill="#1a1e29" d="m166 148-1 4-8-2v-1c5.625-2.125 5.625-2.125 9-1"/><path fill="#071125" d="m198.25 140.75 2.75.25c-2.068 2.797-3.144 3.027-6.687 3.688L191 145c2.41-2.967 3.347-3.95 7.25-4.25"/><path fill="#f92d2f" d="M140 49h11l-5 5 1-4h-7z"/><path fill="#ebb45e" d="m113 281 2 1c-1.443 3.366-3.333 5.51-6 8l-2-1 3.809-4.492c1.279-1.514 1.279-1.514 2.191-3.508"/><path fill="#332620" d="M159 231h1c-.615 7.508-.615 7.508-2.562 10L156 242c0-2.953.439-4.49 1.5-7.187l.844-2.168z"/><path fill="#47a9fb" d="m388 215 2 1v6l-2 1a177 177 0 0 1-1-7z"/><path fill="#1c1f26" d="M79 186c1.563 1.25 1.563 1.25 3 3-.312 2.188-.312 2.188-1 4l-5-4h3z"/><path fill="#083371" d="m222 37 3 1-1 4-5-1z"/><path fill="#084a9c" d="M263.563 407.938 266 408c-2.363 2.526-3.665 3.888-7 5 1.124-4.979 1.124-4.979 4.563-5.062"/><path fill="#f3864d" d="M106 295h3c1.354 2.709 1.065 5.01 1 8-2.154-2.622-3.4-4.644-4-8"/><path fill="#ddc529" d="m51 267 2 1c-1.812 2.5-1.812 2.5-4 5h-3v-2a105 105 0 0 1 5-4"/><path fill="#39353d" d="m90 255 1 2c2.025.652 2.025.652 4 1l-3.375.938c-3.42.885-3.42.885-5.625 2.062v-3c2-1.687 2-1.687 4-3"/><path fill="#22262f" d="M254 164h3v7h-2z"/><path fill="#9e593c" d="M333 125c3.914 1.27 5.79 2.512 8 6-3 0-3 0-4.387-1.312z"/><path fill="#cd7c51" d="m306 100 1 3-10-2v-1c5.625-1.125 5.625-1.125 9 0"/><path fill="#c6ba59" d="M191 29v2c-3.982 1.054-6.982.841-11 0v-1c3.724-.693 7.21-1.111 11-1"/></svg>